<?xml version="1.0" encoding="UTF-8" standalone="no"?>
<!-- Created with Inkscape (http://www.inkscape.org/) -->

<svg
   xmlns:dc="http://purl.org/dc/elements/1.1/"
   xmlns:cc="http://creativecommons.org/ns#"
   xmlns:rdf="http://www.w3.org/1999/02/22-rdf-syntax-ns#"
   xmlns:svg="http://www.w3.org/2000/svg"
   xmlns="http://www.w3.org/2000/svg"
   xmlns:sodipodi="http://sodipodi.sourceforge.net/DTD/sodipodi-0.dtd"
   xmlns:inkscape="http://www.inkscape.org/namespaces/inkscape"
   width="210mm"
   height="297mm"
   viewBox="0 0 744.09448819 1052.3622047"
   id="svg2"
   version="1.1"
   inkscape:version="0.91 r"
   sodipodi:docname="coupon.svg">
  <defs
     id="defs4" />
  <sodipodi:namedview
     id="base"
     pagecolor="#ffffff"
     bordercolor="#666666"
     borderopacity="1.0"
     inkscape:pageopacity="0.0"
     inkscape:pageshadow="2"
     inkscape:zoom="1.4"
     inkscape:cx="391.75846"
     inkscape:cy="630.07176"
     inkscape:document-units="px"
     inkscape:current-layer="layer1"
     showgrid="false"
     inkscape:window-width="1366"
     inkscape:window-height="718"
     inkscape:window-x="0"
     inkscape:window-y="0"
     inkscape:window-maximized="1" />
  <metadata
     id="metadata7">
    <rdf:RDF>
      <cc:Work
         rdf:about="">
        <dc:format>image/svg+xml</dc:format>
        <dc:type
           rdf:resource="http://purl.org/dc/dcmitype/StillImage" />
        <dc:title></dc:title>
      </cc:Work>
    </rdf:RDF>
  </metadata>
  <g
     inkscape:label="Layer 1"
     inkscape:groupmode="layer"
     id="layer1">
    <path
       style="opacity:1;fill:#000000;fill-opacity:1;stroke:#000000;stroke-width:1;stroke-linecap:round;stroke-linejoin:round;stroke-miterlimit:4;stroke-dasharray:none;stroke-opacity:1"
       id="path4140"
       d="m 75.869041,52.782389 c -0.0217,3.463638 -0.0237,6.927361 -0.0298,10.391052 -0.0317,5.577567 -0.0485,11.150583 0.19661,16.723404 0.42698,3.322614 -0.10105,6.824474 0.76246,10.085113 0.74705,1.61534 2.58491,1.376987 4.10659,1.419745 4.38459,-0.307361 8.77326,-0.501656 13.16673,-0.621718 6.788009,-0.141052 13.577999,-0.139554 20.367169,-0.146467 7.56769,-0.0055 15.13538,-7.83e-4 22.70307,-8.48e-4 6.91968,4.55e-4 13.83936,-0.0025 20.75904,-1.88e-4 7.37947,5.66e-4 14.75894,0.0036 22.13841,0.005 6.9314,0.0013 13.8628,-0.0066 20.79421,-0.009 6.59877,4e-5 13.19754,0.0034 19.7963,0.0062 6.57161,1.24e-4 13.14322,-0.003 19.71483,-0.0078 4.8249,-0.0024 9.64979,-0.004 14.47469,-0.0079 2.87625,-0.0042 5.7525,-0.0064 8.62876,-0.0096 1.847,-0.0014 3.69399,-0.0019 5.54099,-0.0028 0.9597,-0.09819 1.99161,0.18036 2.93211,-0.105928 0.14577,-0.04437 0.82721,-0.415336 0.96528,-0.488854 -0.84887,0.458069 -1.64782,1.024125 -2.54663,1.374208 -0.14353,0.0559 0.42697,-0.284935 0.82036,-1.248481 0.52741,-1.291842 0.54352,-2.748252 0.65535,-4.113293 0.26913,-5.556953 0.32362,-11.12172 -0.0533,-16.67314 -0.3465,-4.347952 -1.37907,-8.582159 -2.46313,-12.791191 -0.62341,-1.577837 -0.68662,-3.548903 -1.99623,-4.747708 -1.32479,-0.719835 -2.92286,-0.582014 -4.38309,-0.598112 -4.69658,-0.0076 -9.39318,0.0075 -14.08976,0.01157 -7.6083,0.0028 -15.2166,0.0026 -22.82491,0.0027 -7.81489,-0.002 -15.62979,0.0015 -23.44468,0.0057 -5.89165,0.0042 -11.78331,0.0059 -17.67496,0.0089 -4.67613,0.004 -9.35226,0.0017 -14.02839,0.004 -4.15528,0.0025 -8.31055,0.0016 -12.46583,7.96e-4 -4.82075,-0.0016 -9.64151,-0.0032 -14.46227,-0.0052 -6.08302,-0.0034 -12.16604,-0.0055 -18.24907,-0.0051 -5.89236,8.38e-4 -11.78472,0.0015 -17.67708,0.0046 -4.13937,0.0031 -8.278749,0.0071 -12.418119,0.01007 -2.92833,0.0042 -5.85667,0.0022 -8.78501,0.0022 -2.89241,1.42e-4 -5.78481,2.66e-4 -8.67722,3.31e-4 -1.64092,0.01106 -3.27857,-0.05647 -4.91298,0.101176 0,0 2.84362,-2.102075 2.84362,-2.102075 l 0,0 c 1.63813,-0.113185 3.2778,-0.06384 4.9193,-0.06971 2.89211,6.6e-5 5.78421,1.89e-4 8.67631,3.31e-4 2.92631,6.6e-5 5.85261,-0.002 8.77891,0.0022 4.130139,0.003 8.260269,0.007 12.390409,0.01007 5.88815,0.0031 11.77629,0.0038 17.66444,0.0046 6.08766,4.89e-4 12.17531,-0.0016 18.26297,-0.005 4.82556,-0.0021 9.65112,-0.0036 14.47667,-0.0052 4.15455,-8.46e-4 8.3091,-0.0017 12.46364,7.93e-4 4.67245,0.0023 9.3449,3.6e-5 14.01735,0.004 5.88329,0.0031 11.76658,0.0049 17.64988,0.0093 7.80998,0.0044 15.61996,0.0083 23.42994,0.005 7.61722,-0.002 15.23443,-0.0037 22.85163,-0.02285 4.71481,-0.01289 9.42959,-0.03653 14.14439,-0.0454 1.54251,0.01903 3.21308,-0.0956 4.54798,0.808422 1.31288,1.310358 1.46573,3.247968 2.06935,4.933168 1.06295,4.239668 2.09322,8.499404 2.44777,12.870729 0.3842,5.560492 0.3333,11.132513 0.10932,16.700647 -0.0735,1.084429 -0.22282,4.821772 -1.32014,5.605934 -1.12192,0.80175 -2.34814,1.446479 -3.52222,2.169719 -1.2748,0.588008 -2.60928,0.482452 -3.9887,0.458913 -1.84444,-9.21e-4 -3.68889,-0.0014 -5.53333,-0.0028 -2.86742,-0.0033 -5.73484,-0.0054 -8.60225,-0.0096 -4.81768,-0.0038 -9.63537,-0.0055 -14.45305,-0.0079 -6.56447,-0.0048 -13.12894,-0.0079 -19.69342,-0.0078 -6.60442,0.0028 -13.20884,0.0061 -19.81327,0.0062 -6.92313,-0.0025 -13.84626,-0.01033 -20.7694,-0.009 -7.38388,0.0014 -14.76777,0.0045 -22.15165,0.0046 -6.91727,0.0017 -13.83453,-0.0023 -20.7518,-0.0052 -7.56687,-0.0036 -15.13374,-0.0067 -22.7006,-2.13e-4 -6.79664,0.01317 -13.594219,0.01598 -20.389399,0.174193 -4.41237,0.130128 -8.81718,0.364728 -13.22252,0.635731 -1.7202,-0.06439 -3.55816,0.01487 -4.35471,-1.796983 -0.88109,-3.291374 -0.32155,-6.823932 -0.74458,-10.180571 -0.24188,-5.576335 -0.2311,-11.152507 -0.21015,-16.733553 -0.006,-3.45356 -0.008,-6.907152 -0.0298,-10.360659 0,0 3.16666,-1.613492 3.16666,-1.613492 z"
       inkscape:connector-curvature="0" />
    <path
       style="opacity:1;fill:#000000;fill-opacity:1;stroke:#000000;stroke-width:1;stroke-linecap:round;stroke-linejoin:round;stroke-miterlimit:4;stroke-dasharray:none;stroke-opacity:1"
       id="path4140-6"
       d="m 75.525561,133.12555 c -0.0217,3.46363 -0.0237,6.92736 -0.0298,10.39105 -0.0317,5.57757 -0.0485,11.15058 0.19661,16.7234 0.42698,3.32262 -0.10105,6.82448 0.76246,10.08512 0.74705,1.61534 2.58491,1.37698 4.10659,1.41974 4.38459,-0.30736 8.77326,-0.50166 13.16673,-0.62172 6.788009,-0.14105 13.577999,-0.13955 20.367169,-0.14646 7.56769,-0.005 15.13538,-7.9e-4 22.70307,-8.5e-4 6.91968,4.5e-4 13.83936,-0.002 20.75904,-1.9e-4 7.37947,5.7e-4 14.75894,0.004 22.13841,0.005 6.9314,0.001 13.8628,-0.007 20.79421,-0.009 6.59877,4e-5 13.19754,0.003 19.7963,0.006 6.57161,1.2e-4 13.14322,-0.003 19.71483,-0.008 4.8249,-0.002 9.64979,-0.004 14.47469,-0.008 2.87625,-0.004 5.7525,-0.006 8.62876,-0.01 1.847,-0.001 3.69399,-0.002 5.54099,-0.003 0.9597,-0.0982 1.99161,0.18036 2.93211,-0.10593 0.14577,-0.0444 0.82721,-0.41533 0.96528,-0.48885 -0.84887,0.45807 -1.64782,1.02412 -2.54663,1.37421 -0.14353,0.0559 0.42697,-0.28494 0.82036,-1.24849 0.52741,-1.29184 0.54352,-2.74825 0.65535,-4.11329 0.26913,-5.55695 0.32362,-11.12172 -0.0533,-16.67314 -0.3465,-4.34795 -1.37907,-8.58216 -2.46313,-12.79119 -0.62341,-1.57784 -0.68662,-3.5489 -1.99623,-4.74771 -1.32479,-0.71983 -2.92286,-0.58201 -4.38309,-0.59811 -4.69658,-0.008 -9.39318,0.008 -14.08976,0.0116 -7.6083,0.003 -15.2166,0.003 -22.82491,0.003 -7.81489,-0.002 -15.62979,0.002 -23.44468,0.006 -5.89165,0.004 -11.78331,0.006 -17.67496,0.009 -4.67613,0.004 -9.35226,0.002 -14.02839,0.004 -4.15528,0.002 -8.31055,0.002 -12.46583,8e-4 -4.82075,-0.002 -9.64151,-0.003 -14.46227,-0.005 -6.08302,-0.003 -12.16604,-0.005 -18.24907,-0.005 -5.89236,8.3e-4 -11.78472,0.002 -17.67708,0.005 -4.13937,0.003 -8.278749,0.007 -12.418119,0.0101 -2.92833,0.004 -5.85667,0.002 -8.78501,0.002 -2.89241,1.4e-4 -5.78481,2.6e-4 -8.67722,3.3e-4 -1.64092,0.0111 -3.27857,-0.0565 -4.91298,0.10117 0,0 2.84362,-2.10207 2.84362,-2.10207 l 0,0 c 1.63813,-0.11319 3.2778,-0.0638 4.9193,-0.0697 2.89211,6e-5 5.78421,1.9e-4 8.67631,3.3e-4 2.92631,7e-5 5.85261,-0.002 8.77891,0.002 4.130139,0.003 8.260269,0.007 12.390409,0.0101 5.88815,0.003 11.77629,0.004 17.66444,0.005 6.08766,4.9e-4 12.17531,-0.002 18.26297,-0.005 4.82556,-0.002 9.65112,-0.004 14.47667,-0.005 4.15455,-8.5e-4 8.3091,-0.002 12.46364,7.9e-4 4.67245,0.002 9.3449,4e-5 14.01735,0.004 5.88329,0.003 11.76658,0.005 17.64988,0.009 7.80998,0.004 15.61996,0.008 23.42994,0.005 7.61722,-0.002 15.23443,-0.004 22.85163,-0.0228 4.71481,-0.0129 9.42959,-0.0365 14.14439,-0.0454 1.54251,0.019 3.21308,-0.0956 4.54798,0.80842 1.31288,1.31036 1.46573,3.24797 2.06935,4.93317 1.06295,4.23967 2.09322,8.49941 2.44777,12.87073 0.3842,5.56049 0.3333,11.13251 0.10932,16.70065 -0.0735,1.08443 -0.22282,4.82177 -1.32014,5.60593 -1.12192,0.80175 -2.34814,1.44648 -3.52222,2.16972 -1.2748,0.58801 -2.60928,0.48245 -3.9887,0.45891 -1.84444,-9.2e-4 -3.68889,-10e-4 -5.53333,-0.003 -2.86742,-0.003 -5.73484,-0.005 -8.60225,-0.01 -4.81768,-0.004 -9.63537,-0.006 -14.45305,-0.008 -6.56447,-0.005 -13.12894,-0.008 -19.69342,-0.008 -6.60442,0.003 -13.20884,0.006 -19.81327,0.006 -6.92313,-0.002 -13.84626,-0.0103 -20.7694,-0.009 -7.38388,0.001 -14.76777,0.005 -22.15165,0.005 -6.91727,0.002 -13.83453,-0.002 -20.7518,-0.005 -7.56687,-0.004 -15.13374,-0.007 -22.7006,-2.1e-4 -6.79664,0.0132 -13.594219,0.016 -20.389399,0.17419 -4.41237,0.13013 -8.81718,0.36473 -13.22252,0.63574 -1.7202,-0.0644 -3.55816,0.0149 -4.35471,-1.79699 -0.88109,-3.29137 -0.32155,-6.82393 -0.74458,-10.18057 -0.24188,-5.57633 -0.2311,-11.15251 -0.21015,-16.73355 -0.006,-3.45356 -0.008,-6.90715 -0.0298,-10.36066 0,0 3.16666,-1.61349 3.16666,-1.61349 z"
       inkscape:connector-curvature="0" />
    <path
       style="opacity:1;fill:#000000;fill-opacity:1;stroke:#000000;stroke-width:1;stroke-linecap:round;stroke-linejoin:round;stroke-miterlimit:4;stroke-dasharray:none;stroke-opacity:1"
       id="path4157"
       d="m 80.869042,229.92525 c -0.07724,3.51653 2.78e-4,7.02647 0.171686,10.53864 0.15115,5.72081 0.481819,11.42114 0.976856,17.12155 0.549927,5.80376 0.765033,11.62969 0.895077,17.45551 0.08366,4.2317 0.08745,8.46436 0.09037,12.69671 -0.0014,2.75232 2.54e-4,5.50463 0.003,8.25694 0.02048,2.20913 0.34595,4.40425 0.50712,6.60763 0.134874,2.14518 0.181788,4.29438 0.205452,6.44322 0.0123,1.51604 0.0092,3.03215 0.0076,4.54823 -0.02824,1.19657 -0.191673,2.396 0.955149,3.07169 1.843262,0.53276 3.845394,0.39372 5.747224,0.40716 5.822831,0.0105 11.645684,0.002 17.468524,-2e-5 7.89397,-0.006 15.78794,-0.005 23.68192,-0.004 7.29896,-7.1e-4 14.59793,-0.004 21.89689,-0.0106 4.73132,-0.002 9.46265,-0.008 14.19397,-0.0121 3.82938,-0.001 7.65876,7e-5 11.48814,0.002 4.34207,0.002 8.68414,0.002 13.02622,-0.001 2.69481,-0.003 5.38963,-0.008 8.08445,-0.009 2.44362,4.7e-4 4.88724,0.003 7.33087,0.002 1.92808,-10e-4 3.85616,-0.004 5.78425,-0.005 1.40632,-0.11753 2.9128,0.26115 4.25847,-0.21027 1.87646,-0.89815 -1.18719,0.86532 -1.87535,1.08371 -0.29009,0.0921 0.4046,-0.46182 0.54816,-0.73018 0.92694,-1.73266 1.0779,-3.80836 1.35649,-5.7066 0.75623,-7.55957 0.74596,-15.17132 0.80255,-22.76092 0.0413,-8.53354 0.0211,-17.06724 0.006,-25.60082 -0.009,-6.46678 -0.0199,-12.93355 -0.0292,-19.40032 -0.006,-3.50461 -0.0152,-7.00921 -0.0241,-10.51381 -0.004,-1.65503 -0.006,-3.31006 -0.007,-4.9651 -3.4e-4,-1.41133 -2e-4,-2.82265 -1.5e-4,-4.23398 0.0279,-1.19826 0.18628,-2.39593 -0.95814,-3.07549 -1.31218,-0.45989 -2.7389,-0.39425 -4.11028,-0.40634 -4.94027,-0.006 -9.88056,-0.005 -14.82084,-0.007 -9.50605,-0.005 -19.0121,-0.003 -28.51815,-0.004 -9.16665,-0.002 -18.3333,0.007 -27.49995,0.01 -7.11851,0.003 -14.23702,0.005 -21.35553,0.008 -5.12423,0.004 -10.24845,0.006 -15.37268,0.0114 -3.30362,0.002 -6.607242,0.005 -9.910864,0.006 -2.944692,0.002 -5.889386,-3.2e-4 -8.834078,-0.002 -3.359533,-8.3e-4 -6.719065,-0.002 -10.078596,0.001 -1.714659,0.12464 -0.884736,0.0492 -2.490247,0.22105 0,0 2.836074,-2.1045 2.836074,-2.1045 l 0,0 c 1.611722,-0.15331 0.777843,-0.0893 2.502113,-0.1857 3.358293,0.004 6.716586,0.002 10.074881,0.001 2.946484,-0.002 5.892971,-0.004 8.839455,-0.002 3.297802,8.7e-4 6.595592,0.004 9.893382,0.006 5.11376,0.005 10.22753,0.008 15.34129,0.0114 7.1107,0.003 14.22141,0.005 21.33212,0.009 9.15784,0.003 18.31568,0.0127 27.47352,0.009 9.51752,-0.002 19.03505,-0.001 28.55255,-0.0215 4.96655,-0.0119 9.93306,-0.0342 14.8996,-0.046 1.42255,0.0148 2.91805,-0.0462 4.23819,0.56501 1.17803,0.84375 1.20366,2.01778 1.12694,3.38298 5e-5,1.41139 1.9e-4,2.82278 -2e-4,4.23417 -7e-4,1.65732 -0.002,3.31465 -0.007,4.97197 -0.009,3.51245 -0.018,7.02489 -0.0223,10.53734 -0.006,6.47279 -0.0105,12.94559 -0.007,19.41838 3.9e-4,8.53665 0.0112,17.07335 -0.0176,25.60997 -0.0498,7.59375 -0.0326,15.20638 -0.72826,22.77487 -0.14576,1.08951 -0.66182,5.89619 -1.73103,6.67637 -2.39612,1.7484 -2.5282,1.75423 -4.24004,2.37758 -1.41275,0.28635 -2.87676,0.0626 -4.3111,0.13149 -1.92375,-10e-4 -3.84751,-0.003 -5.77126,-0.005 -2.44538,-9.4e-4 -4.89075,10e-4 -7.33612,0.002 -2.68662,-7.3e-4 -5.37324,-0.006 -8.05987,-0.009 -4.34083,-0.003 -8.68165,-0.004 -13.02248,-10e-4 -3.83165,0.002 -7.6633,0.004 -11.49495,0.002 -4.72013,-0.004 -9.44025,-0.01 -14.16038,-0.0123 -7.28945,-0.007 -14.5789,-0.0103 -21.86835,-0.0101 -7.89779,0.002 -15.79558,0.004 -23.69337,0.0131 -5.842558,0.01 -11.685091,0.0283 -17.527637,0.04 -1.944241,-0.009 -4.052622,0.17667 -5.891971,-0.55399 -1.180858,-0.84122 -1.202227,-2.01586 -1.124377,-3.38061 0.002,-1.51581 0.0062,-3.03164 -9.72e-4,-4.54744 -0.01632,-2.14379 -0.05195,-4.28827 -0.185373,-6.4285 -0.158583,-2.21122 -0.489703,-4.41243 -0.524632,-6.62772 0.0077,-2.75631 0.01765,-5.51261 0.02101,-8.26893 0.0059,-4.23453 0.0086,-8.46933 -0.06055,-12.70344 -0.117936,-5.82124 -0.326277,-11.64259 -0.871294,-17.44199 -0.502966,-5.70025 -0.845819,-11.39967 -1.006237,-17.1208 -0.182453,-3.50807 -0.268519,-7.01286 -0.235079,-10.52608 0,0 3.166656,-1.61349 3.166656,-1.61349 z"
       inkscape:connector-curvature="0" />
    <path
       style="opacity:1;fill:#000000;fill-opacity:1;stroke:#000000;stroke-width:1;stroke-linecap:round;stroke-linejoin:round;stroke-miterlimit:4;stroke-dasharray:none;stroke-opacity:1"
       id="path4159"
       d="m 181.22142,233.47093 c -4.44183,3.10031 -8.69485,6.45614 -12.96897,9.7809 -7.93415,5.99218 -16.07096,11.70835 -24.27906,17.31689 -5.98863,4.04254 -11.94288,8.12693 -17.71745,12.47087 -2.96459,2.38182 -6.24589,4.25855 -9.63732,5.94945 -2.31996,1.11762 2.56003,-1.51642 1.90553,-1.16252 -1.21268,0.65573 -2.40343,1.35125 -3.60911,2.01976 -2.51002,1.39175 3.74429,-2.34047 1.11457,-0.60219 -1.74222,1.35571 -3.56303,2.598 -5.37949,3.84996 -3.13733,2.30386 -6.43361,4.30001 -9.82034,6.21165 -0.933051,0.25259 -0.48999,0.2284 -1.323468,0.14278 0,0 2.880268,-2.08053 2.880268,-2.08053 l 0,0 c 0.74825,-0.0441 0.34348,0.026 1.20116,-0.27564 -0.70161,0.42306 -1.39214,0.86507 -2.10484,1.26917 -0.37515,0.21271 0.73232,-0.45593 1.09151,-0.69461 1.61328,-1.072 3.18264,-2.20975 4.79556,-3.28242 1.80376,-1.25897 3.64922,-2.45879 5.36059,-3.84589 1.77016,-1.23992 0.72289,-0.53495 4.34678,-2.59508 0.19913,-0.1132 0.807,-0.43255 0.61234,-0.31183 -0.81667,0.50648 -3.32947,1.9193 -2.47995,1.47008 6.11757,-3.23492 1.92293,-1.29156 4.17905,-2.32456 0.98075,-0.47033 3.89808,-1.70269 -0.49406,0.46276 -0.40678,0.20055 0.76245,-0.4917 1.1348,-0.75063 1.00862,-0.70141 1.97376,-1.4641 2.98596,-2.16049 5.79759,-4.36125 11.77369,-8.4638 17.79022,-12.51661 8.20202,-5.59619 16.33147,-11.30133 24.25709,-17.28508 4.2381,-3.30784 8.44421,-6.66447 12.86138,-9.73297 0,0 3.29725,-1.32322 3.29725,-1.32322 z"
       inkscape:connector-curvature="0" />
    <path
       style="opacity:1;fill:#000000;fill-opacity:1;stroke:#000000;stroke-width:1;stroke-linecap:round;stroke-linejoin:round;stroke-miterlimit:4;stroke-dasharray:none;stroke-opacity:1"
       id="path4161"
       d="m 114.00945,231.87805 c 2.4197,3.25258 4.96742,6.4025 7.57933,9.50289 4.69363,5.40805 9.71811,10.51589 14.73735,15.61899 4.68069,4.9899 9.02046,10.27941 13.92035,15.06003 3.92752,3.6446 8.01605,7.06595 12.57741,9.88313 1.50238,0.94382 3.09302,1.75784 4.51336,2.82946 0.82979,0.62607 1.57733,1.3569 2.40244,1.99125 0.83923,0.85247 1.94054,1.34294 2.86262,2.0851 0.5422,0.39336 1.00371,0.84777 1.58566,1.18674 0,0 -2.9855,1.92833 -2.9855,1.92833 l 0,0 c -0.57394,-0.36589 -1.061,-0.82016 -1.60821,-1.22185 -0.93726,-0.71669 -2.01207,-1.24517 -2.85189,-2.09042 -0.80808,-0.63892 -1.5509,-1.3655 -2.37277,-1.98519 -1.41352,-1.06579 -2.9923,-1.88278 -4.48267,-2.8296 -4.56256,-2.85133 -8.65551,-6.29972 -12.58958,-9.96512 -4.89113,-4.79107 -9.23193,-10.08078 -13.91099,-15.07391 -5.02176,-5.11564 -10.05536,-10.22848 -14.77818,-15.62479 -2.62269,-3.09973 -5.17358,-6.25399 -7.64839,-9.47232 0,0 3.04966,-1.82272 3.04966,-1.82272 z"
       inkscape:connector-curvature="0" />
    <path
       style="opacity:1;fill:#000000;fill-opacity:1;stroke:#000000;stroke-width:1;stroke-linecap:round;stroke-linejoin:round;stroke-miterlimit:4;stroke-dasharray:none;stroke-opacity:1"
       id="path4157-8"
       d="m 267.11604,234.92087 c -0.0772,3.51653 2.8e-4,7.02647 0.17169,10.53864 0.15115,5.72081 0.48181,11.42114 0.97685,17.12155 0.54993,5.80376 0.76503,11.62969 0.89508,17.45551 0.0837,4.2317 0.0875,8.46436 0.0904,12.69671 -0.001,2.75232 2.5e-4,5.50463 0.003,8.25694 0.0205,2.20913 0.34595,4.40425 0.50712,6.60763 0.13487,2.14518 0.18179,4.29438 0.20545,6.44322 0.0123,1.51604 0.009,3.03215 0.008,4.54823 -0.0282,1.19657 -0.19167,2.396 0.95515,3.07169 1.84326,0.53276 3.84539,0.39372 5.74722,0.40716 5.82284,0.0105 11.64569,0.002 17.46853,-2e-5 7.89397,-0.006 15.78794,-0.005 23.68192,-0.004 7.29896,-7.1e-4 14.59793,-0.004 21.89689,-0.0106 4.73132,-0.002 9.46265,-0.008 14.19397,-0.0121 3.82938,-10e-4 7.65876,7e-5 11.48814,0.002 4.34207,0.002 8.68414,0.002 13.02622,-10e-4 2.69481,-0.003 5.38963,-0.008 8.08445,-0.009 2.44362,4.7e-4 4.88724,0.003 7.33087,0.002 1.92808,-0.001 3.85616,-0.004 5.78425,-0.005 1.40632,-0.11753 2.9128,0.26115 4.25847,-0.21027 1.87646,-0.89815 -1.18719,0.86532 -1.87535,1.08371 -0.29009,0.0921 0.4046,-0.46182 0.54816,-0.73018 0.92694,-1.73266 1.0779,-3.80836 1.35649,-5.7066 0.75623,-7.55957 0.74596,-15.17132 0.80255,-22.76092 0.0413,-8.53354 0.0211,-17.06724 0.006,-25.60082 -0.009,-6.46678 -0.0199,-12.93355 -0.0292,-19.40032 -0.006,-3.50461 -0.0152,-7.00921 -0.0241,-10.51381 -0.004,-1.65503 -0.006,-3.31006 -0.007,-4.9651 -3.4e-4,-1.41133 -2e-4,-2.82265 -1.5e-4,-4.23398 0.0279,-1.19826 0.18628,-2.39593 -0.95814,-3.07549 -1.31218,-0.45989 -2.7389,-0.39425 -4.11028,-0.40634 -4.94027,-0.006 -9.88056,-0.005 -14.82084,-0.007 -9.50605,-0.005 -19.0121,-0.003 -28.51815,-0.004 -9.16665,-0.002 -18.3333,0.007 -27.49995,0.01 -7.11851,0.003 -14.23702,0.005 -21.35553,0.008 -5.12423,0.004 -10.24845,0.006 -15.37268,0.0114 -3.30362,0.002 -6.60724,0.005 -9.91087,0.006 -2.94469,0.002 -5.88938,-3.2e-4 -8.83407,-0.002 -3.35954,-8.3e-4 -6.71907,-0.002 -10.0786,0.001 -1.71466,0.12464 -0.88474,0.0492 -2.49025,0.22105 0,0 2.83608,-2.1045 2.83608,-2.1045 l 0,0 c 1.61172,-0.15331 0.77784,-0.0893 2.50211,-0.1857 3.35829,0.004 6.71659,0.002 10.07488,0.001 2.94649,-0.002 5.89297,-0.004 8.83946,-0.002 3.2978,8.7e-4 6.59559,0.004 9.89338,0.006 5.11376,0.005 10.22753,0.008 15.34129,0.0114 7.1107,0.003 14.22141,0.005 21.33212,0.009 9.15784,0.003 18.31568,0.0127 27.47352,0.009 9.51752,-0.002 19.03505,-0.001 28.55255,-0.0215 4.96655,-0.0119 9.93306,-0.0342 14.8996,-0.046 1.42255,0.0148 2.91805,-0.0462 4.23819,0.56501 1.17803,0.84375 1.20366,2.01778 1.12694,3.38298 5e-5,1.41139 1.9e-4,2.82278 -2e-4,4.23417 -7e-4,1.65732 -0.002,3.31465 -0.007,4.97197 -0.009,3.51245 -0.018,7.02489 -0.0223,10.53734 -0.006,6.47279 -0.0105,12.94559 -0.007,19.41838 3.9e-4,8.53665 0.0112,17.07335 -0.0176,25.60997 -0.0498,7.59375 -0.0326,15.20638 -0.72826,22.77487 -0.14576,1.08951 -0.66182,5.89619 -1.73103,6.67637 -2.39612,1.7484 -2.5282,1.75423 -4.24004,2.37758 -1.41275,0.28635 -2.87676,0.0626 -4.3111,0.13149 -1.92375,-10e-4 -3.84751,-0.003 -5.77126,-0.005 -2.44538,-9.4e-4 -4.89075,0.001 -7.33612,0.002 -2.68662,-7.3e-4 -5.37324,-0.006 -8.05987,-0.009 -4.34083,-0.003 -8.68165,-0.004 -13.02248,-10e-4 -3.83165,0.002 -7.6633,0.004 -11.49495,0.002 -4.72013,-0.004 -9.44025,-0.01 -14.16038,-0.0123 -7.28945,-0.007 -14.5789,-0.0103 -21.86835,-0.0101 -7.89779,0.002 -15.79558,0.004 -23.69337,0.0131 -5.84256,0.01 -11.68509,0.0283 -17.52764,0.04 -1.94424,-0.009 -4.05262,0.17667 -5.89197,-0.55399 -1.18086,-0.84122 -1.20223,-2.01586 -1.12438,-3.38061 0.002,-1.51581 0.006,-3.03164 -9.7e-4,-4.54744 -0.0163,-2.14379 -0.052,-4.28827 -0.18537,-6.4285 -0.15859,-2.21122 -0.48971,-4.41243 -0.52463,-6.62772 0.008,-2.75631 0.0177,-5.51261 0.021,-8.26893 0.006,-4.23453 0.009,-8.46933 -0.0606,-12.70344 -0.11794,-5.82124 -0.32628,-11.64259 -0.8713,-17.44199 -0.50296,-5.70025 -0.84582,-11.39967 -1.00624,-17.1208 -0.18245,-3.50807 -0.26851,-7.01286 -0.23507,-10.52608 0,0 3.16665,-1.61349 3.16665,-1.61349 z"
       inkscape:connector-curvature="0" />
    <path
       style="opacity:1;fill:#000000;fill-opacity:1;stroke:#000000;stroke-width:1;stroke-linecap:round;stroke-linejoin:round;stroke-miterlimit:4;stroke-dasharray:none;stroke-opacity:1"
       id="path4159-7"
       d="m 367.46842,238.46655 c -4.44183,3.10031 -8.69485,6.45614 -12.96897,9.7809 -7.93415,5.99218 -16.07096,11.70835 -24.27906,17.31689 -5.98863,4.04254 -11.94288,8.12693 -17.71745,12.47087 -2.96459,2.38182 -6.24589,4.25855 -9.63732,5.94945 -2.31996,1.11762 2.56003,-1.51642 1.90553,-1.16252 -1.21268,0.65573 -2.40343,1.35125 -3.60911,2.01976 -2.51002,1.39175 3.74429,-2.34047 1.11457,-0.60219 -1.74222,1.35571 -3.56303,2.598 -5.37949,3.84996 -3.13733,2.30386 -6.43361,4.30001 -9.82034,6.21165 -0.93305,0.25259 -0.48999,0.2284 -1.32347,0.14278 0,0 2.88027,-2.08053 2.88027,-2.08053 l 0,0 c 0.74825,-0.0441 0.34348,0.026 1.20116,-0.27564 -0.70161,0.42306 -1.39214,0.86507 -2.10484,1.26917 -0.37515,0.21271 0.73232,-0.45593 1.09151,-0.69461 1.61328,-1.072 3.18264,-2.20975 4.79556,-3.28242 1.80376,-1.25897 3.64922,-2.45879 5.36059,-3.84589 1.77016,-1.23992 0.72289,-0.53495 4.34678,-2.59508 0.19913,-0.1132 0.807,-0.43255 0.61234,-0.31183 -0.81667,0.50648 -3.32947,1.9193 -2.47995,1.47008 6.11757,-3.23492 1.92293,-1.29156 4.17905,-2.32456 0.98075,-0.47033 3.89808,-1.70269 -0.49406,0.46276 -0.40678,0.20055 0.76245,-0.4917 1.1348,-0.75063 1.00862,-0.70141 1.97376,-1.4641 2.98596,-2.16049 5.79759,-4.36125 11.77369,-8.4638 17.79022,-12.51661 8.20202,-5.59619 16.33147,-11.30133 24.25709,-17.28508 4.2381,-3.30784 8.44421,-6.66447 12.86138,-9.73297 0,0 3.29725,-1.32322 3.29725,-1.32322 z"
       inkscape:connector-curvature="0" />
    <path
       style="opacity:1;fill:#000000;fill-opacity:1;stroke:#000000;stroke-width:1;stroke-linecap:round;stroke-linejoin:round;stroke-miterlimit:4;stroke-dasharray:none;stroke-opacity:1"
       id="path4161-9"
       d="m 300.25645,236.87367 c 2.4197,3.25258 4.96742,6.4025 7.57933,9.50289 4.69363,5.40805 9.71811,10.51589 14.73735,15.61899 4.68069,4.9899 9.02046,10.27941 13.92035,15.06003 3.92752,3.6446 8.01605,7.06595 12.57741,9.88313 1.50238,0.94382 3.09302,1.75784 4.51336,2.82946 0.82979,0.62607 1.57733,1.3569 2.40244,1.99125 0.83923,0.85247 1.94054,1.34294 2.86262,2.0851 0.5422,0.39336 1.00371,0.84777 1.58566,1.18674 0,0 -2.9855,1.92833 -2.9855,1.92833 l 0,0 c -0.57394,-0.36589 -1.061,-0.82016 -1.60821,-1.22185 -0.93726,-0.71669 -2.01207,-1.24517 -2.85189,-2.09042 -0.80808,-0.63892 -1.5509,-1.3655 -2.37277,-1.98519 -1.41352,-1.06579 -2.9923,-1.88278 -4.48267,-2.8296 -4.56256,-2.85133 -8.65551,-6.29972 -12.58958,-9.96512 -4.89113,-4.79107 -9.23193,-10.08078 -13.91099,-15.07391 -5.02176,-5.11564 -10.05536,-10.22848 -14.77818,-15.62479 -2.62269,-3.09973 -5.17358,-6.25399 -7.64839,-9.47232 0,0 3.04966,-1.82272 3.04966,-1.82272 z"
       inkscape:connector-curvature="0" />
    <path
       style="opacity:1;fill:#000000;fill-opacity:1;stroke:#000000;stroke-width:1;stroke-linecap:round;stroke-linejoin:round;stroke-miterlimit:4;stroke-dasharray:none;stroke-opacity:1"
       id="path4157-2"
       d="m 447.83033,233.4923 c -0.0772,3.51653 2.8e-4,7.02647 0.17168,10.53864 0.15115,5.72081 0.48182,11.42114 0.97686,17.12155 0.54993,5.80376 0.76503,11.62969 0.89508,17.45551 0.0837,4.2317 0.0874,8.46436 0.0904,12.69671 -0.001,2.75232 2.5e-4,5.50463 0.003,8.25694 0.0205,2.20913 0.34595,4.40425 0.50712,6.60763 0.13487,2.14518 0.18178,4.29438 0.20545,6.44322 0.0123,1.51604 0.009,3.03215 0.008,4.54823 -0.0282,1.19657 -0.19167,2.396 0.95515,3.07169 1.84326,0.53276 3.84539,0.39372 5.74722,0.40716 5.82283,0.0105 11.64569,0.002 17.46853,-2e-5 7.89397,-0.006 15.78794,-0.005 23.68192,-0.004 7.29896,-7.1e-4 14.59793,-0.004 21.89689,-0.0106 4.73132,-0.002 9.46265,-0.008 14.19397,-0.0121 3.82938,-0.001 7.65876,7e-5 11.48814,0.002 4.34207,0.002 8.68414,0.002 13.02622,-0.001 2.69481,-0.003 5.38963,-0.008 8.08445,-0.009 2.44362,4.7e-4 4.88724,0.003 7.33087,0.002 1.92808,-10e-4 3.85616,-0.004 5.78425,-0.005 1.40632,-0.11753 2.9128,0.26115 4.25847,-0.21027 1.87646,-0.89815 -1.18719,0.86532 -1.87535,1.08371 -0.29009,0.0921 0.4046,-0.46182 0.54816,-0.73018 0.92694,-1.73266 1.0779,-3.80836 1.35649,-5.7066 0.75623,-7.55957 0.74596,-15.17132 0.80255,-22.76092 0.0413,-8.53354 0.0211,-17.06724 0.006,-25.60082 -0.009,-6.46678 -0.0199,-12.93355 -0.0292,-19.40032 -0.006,-3.50461 -0.0152,-7.00921 -0.0241,-10.51381 -0.004,-1.65503 -0.006,-3.31006 -0.007,-4.9651 -3.4e-4,-1.41133 -2e-4,-2.82265 -1.5e-4,-4.23398 0.0279,-1.19826 0.18628,-2.39593 -0.95814,-3.07549 -1.31218,-0.45989 -2.7389,-0.39425 -4.11028,-0.40634 -4.94027,-0.006 -9.88056,-0.005 -14.82084,-0.007 -9.50605,-0.005 -19.0121,-0.003 -28.51815,-0.004 -9.16665,-0.002 -18.3333,0.007 -27.49995,0.01 -7.11851,0.003 -14.23702,0.005 -21.35553,0.008 -5.12423,0.004 -10.24845,0.006 -15.37268,0.0114 -3.30362,0.002 -6.60725,0.005 -9.91087,0.006 -2.94469,0.002 -5.88938,-3.2e-4 -8.83408,-0.002 -3.35953,-8.3e-4 -6.71906,-0.002 -10.07859,0.001 -1.71466,0.12464 -0.88474,0.0492 -2.49025,0.22105 0,0 2.83607,-2.1045 2.83607,-2.1045 l 0,0 c 1.61173,-0.15331 0.77785,-0.0893 2.50212,-0.1857 3.35829,0.004 6.71658,0.002 10.07488,0.001 2.94648,-0.002 5.89297,-0.004 8.83945,-0.002 3.29781,8.7e-4 6.5956,0.004 9.89339,0.006 5.11376,0.005 10.22753,0.008 15.34129,0.0114 7.1107,0.003 14.22141,0.005 21.33212,0.009 9.15784,0.003 18.31568,0.0127 27.47352,0.009 9.51752,-0.002 19.03505,-0.001 28.55255,-0.0215 4.96655,-0.0119 9.93306,-0.0342 14.8996,-0.046 1.42255,0.0148 2.91805,-0.0462 4.23819,0.56501 1.17803,0.84375 1.20366,2.01778 1.12694,3.38298 5e-5,1.41139 1.9e-4,2.82278 -2e-4,4.23417 -7e-4,1.65732 -0.002,3.31465 -0.007,4.97197 -0.009,3.51245 -0.018,7.02489 -0.0223,10.53734 -0.006,6.47279 -0.0105,12.94559 -0.007,19.41838 3.9e-4,8.53665 0.0112,17.07335 -0.0176,25.60997 -0.0498,7.59375 -0.0326,15.20638 -0.72826,22.77487 -0.14576,1.08951 -0.66182,5.89619 -1.73103,6.67637 -2.39612,1.7484 -2.5282,1.75423 -4.24004,2.37758 -1.41275,0.28635 -2.87676,0.0626 -4.3111,0.13149 -1.92375,-10e-4 -3.84751,-0.003 -5.77126,-0.005 -2.44538,-9.4e-4 -4.89075,10e-4 -7.33612,0.002 -2.68662,-7.3e-4 -5.37324,-0.006 -8.05987,-0.009 -4.34083,-0.003 -8.68165,-0.004 -13.02248,-10e-4 -3.83165,0.002 -7.6633,0.004 -11.49495,0.002 -4.72013,-0.004 -9.44025,-0.01 -14.16038,-0.0123 -7.28945,-0.007 -14.5789,-0.0103 -21.86835,-0.0101 -7.89779,0.002 -15.79558,0.004 -23.69337,0.0131 -5.84256,0.01 -11.6851,0.0283 -17.52764,0.04 -1.94424,-0.009 -4.05262,0.17667 -5.89197,-0.55399 -1.18086,-0.84122 -1.20223,-2.01586 -1.12438,-3.38061 0.002,-1.51581 0.006,-3.03164 -9.7e-4,-4.54744 -0.0163,-2.14379 -0.0519,-4.28827 -0.18537,-6.4285 -0.15859,-2.21122 -0.48971,-4.41243 -0.52464,-6.62772 0.008,-2.75631 0.0177,-5.51261 0.021,-8.26893 0.006,-4.23453 0.009,-8.46933 -0.0605,-12.70344 -0.11793,-5.82124 -0.32627,-11.64259 -0.87129,-17.44199 -0.50297,-5.70025 -0.84582,-11.39967 -1.00624,-17.1208 -0.18245,-3.50807 -0.26852,-7.01286 -0.23508,-10.52608 0,0 3.16666,-1.61349 3.16666,-1.61349 z"
       inkscape:connector-curvature="0" />
    <path
       style="opacity:1;fill:#000000;fill-opacity:1;stroke:#000000;stroke-width:1;stroke-linecap:round;stroke-linejoin:round;stroke-miterlimit:4;stroke-dasharray:none;stroke-opacity:1"
       id="path4159-2"
       d="m 548.18271,237.03798 c -4.44183,3.10031 -8.69485,6.45614 -12.96897,9.7809 -7.93415,5.99218 -16.07096,11.70835 -24.27906,17.31689 -5.98863,4.04254 -11.94288,8.12693 -17.71745,12.47087 -2.96459,2.38182 -6.24589,4.25855 -9.63732,5.94945 -2.31996,1.11762 2.56003,-1.51642 1.90553,-1.16252 -1.21268,0.65573 -2.40343,1.35125 -3.60911,2.01976 -2.51002,1.39175 3.74429,-2.34047 1.11457,-0.60219 -1.74222,1.35571 -3.56303,2.598 -5.37949,3.84996 -3.13733,2.30386 -6.43361,4.30001 -9.82034,6.21165 -0.93306,0.25259 -0.48999,0.2284 -1.32347,0.14278 0,0 2.88027,-2.08053 2.88027,-2.08053 l 0,0 c 0.74825,-0.0441 0.34348,0.026 1.20116,-0.27564 -0.70161,0.42306 -1.39214,0.86507 -2.10484,1.26917 -0.37515,0.21271 0.73232,-0.45593 1.09151,-0.69461 1.61328,-1.072 3.18264,-2.20975 4.79556,-3.28242 1.80376,-1.25897 3.64922,-2.45879 5.36059,-3.84589 1.77016,-1.23992 0.72289,-0.53495 4.34678,-2.59508 0.19913,-0.1132 0.807,-0.43255 0.61234,-0.31183 -0.81667,0.50648 -3.32947,1.9193 -2.47995,1.47008 6.11757,-3.23492 1.92293,-1.29156 4.17905,-2.32456 0.98075,-0.47033 3.89808,-1.70269 -0.49406,0.46276 -0.40678,0.20055 0.76245,-0.4917 1.1348,-0.75063 1.00862,-0.70141 1.97376,-1.4641 2.98596,-2.16049 5.79759,-4.36125 11.77369,-8.4638 17.79022,-12.51661 8.20202,-5.59619 16.33147,-11.30133 24.25709,-17.28508 4.2381,-3.30784 8.44421,-6.66447 12.86138,-9.73297 0,0 3.29725,-1.32322 3.29725,-1.32322 z"
       inkscape:connector-curvature="0" />
    <path
       style="opacity:1;fill:#000000;fill-opacity:1;stroke:#000000;stroke-width:1;stroke-linecap:round;stroke-linejoin:round;stroke-miterlimit:4;stroke-dasharray:none;stroke-opacity:1"
       id="path4161-2"
       d="m 480.97074,235.4451 c 2.4197,3.25258 4.96742,6.4025 7.57933,9.50289 4.69363,5.40805 9.71811,10.51589 14.73735,15.61899 4.68069,4.9899 9.02046,10.27941 13.92035,15.06003 3.92752,3.6446 8.01605,7.06595 12.57741,9.88313 1.50238,0.94382 3.09302,1.75784 4.51336,2.82946 0.82979,0.62607 1.57733,1.3569 2.40244,1.99125 0.83923,0.85247 1.94054,1.34294 2.86262,2.0851 0.5422,0.39336 1.00371,0.84777 1.58566,1.18674 0,0 -2.9855,1.92833 -2.9855,1.92833 l 0,0 c -0.57394,-0.36589 -1.061,-0.82016 -1.60821,-1.22185 -0.93726,-0.71669 -2.01207,-1.24517 -2.85189,-2.09042 -0.80808,-0.63892 -1.5509,-1.3655 -2.37277,-1.98519 -1.41352,-1.06579 -2.9923,-1.88278 -4.48267,-2.8296 -4.56256,-2.85133 -8.65551,-6.29972 -12.58958,-9.96512 -4.89113,-4.79107 -9.23193,-10.08078 -13.91099,-15.07391 -5.02176,-5.11564 -10.05536,-10.22848 -14.77818,-15.62479 -2.62269,-3.09973 -5.17358,-6.25399 -7.64839,-9.47232 0,0 3.04966,-1.82272 3.04966,-1.82272 z"
       inkscape:connector-curvature="0" />
    <text
       xml:space="preserve"
       style="font-style:normal;font-weight:normal;font-size:25px;line-height:125%;font-family:Sans;letter-spacing:0px;word-spacing:0px;fill:#000000;fill-opacity:1;stroke:none;stroke-width:1px;stroke-linecap:butt;stroke-linejoin:miter;stroke-opacity:1"
       x="97.142868"
       y="82.362206"
       id="text4194"
       sodipodi:linespacing="125%"><tspan
         sodipodi:role="line"
         id="tspan4196"
         x="97.142868"
         y="82.362206"> 面额</tspan></text>
    <text
       xml:space="preserve"
       style="font-style:normal;font-weight:normal;font-size:25px;line-height:125%;font-family:Sans;letter-spacing:0px;word-spacing:0px;fill:#000000;fill-opacity:1;stroke:none;stroke-width:1px;stroke-linecap:butt;stroke-linejoin:miter;stroke-opacity:1"
       x="100.71428"
       y="163.07649"
       id="text4198"
       sodipodi:linespacing="125%"><tspan
         sodipodi:role="line"
         id="tspan4200"
         x="100.71428"
         y="163.07649">有效期</tspan></text>
    <text
       xml:space="preserve"
       style="font-style:normal;font-weight:normal;font-size:25px;line-height:125%;font-family:Sans;letter-spacing:0px;word-spacing:0px;fill:#000000;fill-opacity:1;stroke:none;stroke-width:1px;stroke-linecap:butt;stroke-linejoin:miter;stroke-opacity:1"
       x="591.42859"
       y="194.50507"
       id="text4202"
       sodipodi:linespacing="125%"><tspan
         sodipodi:role="line"
         id="tspan4204"
         x="591.42859"
         y="194.50507">模板</tspan></text>
    <path
       style="opacity:1;fill:#000000;fill-opacity:1;stroke:#000000;stroke-width:1;stroke-linecap:round;stroke-linejoin:round;stroke-miterlimit:4;stroke-dasharray:none;stroke-opacity:1"
       id="path4206"
       d="m 580.19258,181.26385 c -2.43521,0.0158 -4.85149,0.0661 -7.26121,-0.31881 -2.99519,-0.53425 -5.94223,-1.35595 -8.84128,-2.27459 -3.37303,-1.12526 -6.83607,-1.74978 -10.36379,-2.11085 -3.57241,-0.30561 -7.16083,-0.3132 -10.74352,-0.32711 -3.45846,-0.004 -6.9169,0.009 -10.37535,0.0137 -3.69854,0.005 -7.39708,10e-4 -11.09562,0.003 -4.66908,0.001 -9.33816,-0.006 -14.00723,-0.009 -4.05259,0.0594 -8.11111,-0.16278 -12.1558,0.17642 -2.58306,0.21662 -3.36017,0.38332 -5.89882,0.7795 -5.18046,0.88588 -10.26385,2.17716 -15.28646,3.70921 -5.56511,1.75021 -11.10209,3.5912 -16.64255,5.41891 -6.48449,2.15075 -12.92851,4.43572 -19.48415,6.36433 -3.85502,1.28855 -7.86145,1.96697 -11.80172,2.91644 -1.38118,0.39659 -2.84275,0.72744 -4.16517,1.30151 -0.50628,0.24294 -1.04693,0.37689 -1.58981,0.50556 0,0 2.81973,-2.16012 2.81973,-2.16012 l 0,0 c 0.53192,-0.15034 1.05823,-0.31302 1.5641,-0.53944 1.36873,-0.48159 2.76267,-0.92749 4.17753,-1.24844 3.92378,-0.92299 7.9052,-1.61102 11.73932,-2.89209 6.54888,-1.94051 12.99271,-4.21537 19.47307,-6.36945 5.55011,-1.82765 11.09053,-3.68777 16.6683,-5.42859 5.02759,-1.52195 10.12091,-2.79037 15.30538,-3.66114 2.53376,-0.38148 3.33784,-0.54771 5.9153,-0.75021 4.05114,-0.31827 8.11561,-0.0982 12.17343,-0.16521 4.67728,-0.002 9.35456,-0.01 14.03184,-0.009 3.70074,0.001 7.40149,-0.004 11.10223,-0.009 3.45777,-0.006 6.91555,-0.0144 10.37332,-0.01 3.58924,0.016 7.18475,0.0307 10.76217,0.35715 3.54345,0.3821 7.02176,1.03375 10.41122,2.16338 2.89212,0.90198 5.82775,1.71989 8.81713,2.22518 2.40829,0.34385 4.82533,0.28436 7.25367,0.25885 0,0 -2.87526,2.089 -2.87526,2.089 z"
       inkscape:connector-curvature="0" />
    <path
       style="opacity:1;fill:#000000;fill-opacity:1;stroke:#000000;stroke-width:1;stroke-linecap:round;stroke-linejoin:round;stroke-miterlimit:4;stroke-dasharray:none;stroke-opacity:1"
       id="path4210"
       d="m 436.12577,176.48191 c -2.39009,2.19843 -5.06835,4.03412 -7.51028,6.17211 -2.69942,2.13715 -5.3232,4.35181 -7.8613,6.67657 -1.26931,1.3282 -2.85537,2.2511 -4.33261,3.3133 -0.77366,0.64666 -1.12259,1.35617 -0.46534,2.19066 0.90258,0.69035 2.09041,0.60171 3.14522,0.85676 1.1198,0.22123 2.02674,0.91315 2.92238,1.57844 0.97248,0.73156 1.9125,1.34084 3.0992,1.65018 1.09877,0.51144 2.26506,0.74254 3.46089,0.87043 1.72457,0.12574 3.45623,0.10968 5.18436,0.11269 1.94571,1.8e-4 3.89142,-0.005 5.83712,-0.008 1.08673,-0.002 0.54925,-9e-4 1.61242,-0.002 0,0 -2.86754,2.08372 -2.86754,2.08372 l 0,0 c -1.06173,3.6e-4 -0.52502,1.4e-4 -1.61014,6.6e-4 -1.94438,0.001 -3.88877,0.005 -5.83315,0.004 -1.73967,-0.004 -3.48462,0.0193 -5.21887,-0.13797 -1.20682,-0.154 -2.37114,-0.43667 -3.49381,-0.91609 -1.19661,-0.36326 -2.17401,-1.01311 -3.17044,-1.75546 -0.87267,-0.6332 -1.74892,-1.27165 -2.83989,-1.45597 -1.13845,-0.22701 -2.38694,-0.2207 -3.28519,-1.06341 -0.70719,-0.95335 -0.65673,-1.84351 0.22441,-2.69615 1.43458,-1.12515 3.11592,-1.93116 4.36935,-3.29187 2.55079,-2.31697 5.13895,-4.58147 7.87144,-6.687 2.41752,-2.14886 5.073,-3.98284 7.48494,-6.13786 0,0 3.27683,-1.35731 3.27683,-1.35731 z"
       inkscape:connector-curvature="0" />
    <text
       xml:space="preserve"
       style="font-style:normal;font-weight:normal;font-size:25px;line-height:125%;font-family:Sans;letter-spacing:0px;word-spacing:0px;fill:#000000;fill-opacity:1;stroke:none;stroke-width:1px;stroke-linecap:butt;stroke-linejoin:miter;stroke-opacity:1"
       x="89.285713"
       y="386.64792"
       id="text4876"
       sodipodi:linespacing="125%"><tspan
         sodipodi:role="line"
         id="tspan4878"
         x="89.285713"
         y="386.64792">预览</tspan></text>
    <path
       style="opacity:1;fill:#000000;fill-opacity:1;stroke:#000000;stroke-width:1;stroke-linecap:round;stroke-linejoin:round;stroke-miterlimit:4;stroke-dasharray:none;stroke-opacity:1"
       id="path4882"
       d="m 83.083696,358.47069 c 0.395471,3.53038 0.46123,7.0877 0.533104,10.6362 0.06887,4.33173 0.08458,8.66409 0.09428,12.99628 0.0048,3.36135 -2.95e-4,6.72269 -5.04e-4,10.08404 -0.0031,2.98991 -3.1e-5,5.97983 0.0051,8.96974 -0.13761,1.63937 0.155357,3.22668 0.425185,4.83086 0.05412,0.17833 0.108242,0.35666 0.162363,0.53499 0,0 -3.114577,1.7069 -3.114577,1.7069 l 0,0 c -0.06109,-0.19287 -0.122181,-0.38574 -0.183271,-0.57862 -0.267306,-1.62506 -0.587929,-3.23074 -0.435233,-4.89142 0.0054,-2.9922 0.0092,-5.98441 0.0081,-8.97661 0.0025,-3.36208 0.0027,-6.72415 0.0059,-10.08623 0.0013,-4.33265 -7.8e-5,-8.66559 -0.07593,-12.99772 -0.07779,-3.5242 -0.140625,-7.0596 -0.563862,-10.56295 0,0 3.139367,-1.66546 3.139367,-1.66546 z"
       inkscape:connector-curvature="0" />
    <path
       style="opacity:1;fill:#000000;fill-opacity:1;stroke:#000000;stroke-width:1;stroke-linecap:round;stroke-linejoin:round;stroke-miterlimit:4;stroke-dasharray:none;stroke-opacity:1"
       id="path4884"
       d="m 87.664563,356.3177 c 2.423309,0.008 4.846638,0.008 7.269957,0.0109 5.66046,0.0119 11.32093,0.016 16.9814,0.0197 7.24724,0.004 14.49447,0.002 21.7417,-0.002 4.81548,-0.004 9.63095,-0.008 14.44642,-0.0166 2.20274,-0.005 4.40547,-0.009 6.60821,-0.006 2.8882,0.004 5.77641,0.004 8.66461,0.006 3.88121,0.003 7.76241,0.004 11.64362,0.002 1.75431,0.18126 4.57417,-0.51648 6.10243,0.66603 0.20098,0.1555 0.33478,0.38238 0.50217,0.57358 0.96827,2.15496 0.62215,4.63423 0.71925,6.93182 0.0321,0.7608 0.10931,1.51904 0.16396,2.27856 0.49193,4.74985 0.83403,9.5115 1.04305,14.28165 0.14704,3.92174 0.15273,7.84668 0.16436,11.77057 -0.0806,2.05109 0.47471,4.46912 -0.97188,6.15665 -3.06512,2.15607 -3.81819,2.35175 -6.9625,2.339 -2.9816,-0.0407 -5.96341,-0.0575 -8.94523,-0.0701 -5.9755,-0.0208 -11.95104,-0.0221 -17.92656,-0.023 -5.60162,-0.004 -11.20324,0.005 -16.80485,0.01 -2.95495,0.002 -5.90989,0.0101 -8.86484,0.0116 -2.4848,-5.8e-4 -4.9696,-10e-4 -7.4544,-0.003 -3.60552,-0.004 -7.21104,-0.004 -10.81657,-0.005 -3.93932,-0.002 -7.878647,-9.4e-4 -11.817971,10e-4 -2.93026,-2e-4 -5.860518,0.003 -8.790775,0.007 -0.908183,10e-4 -1.816366,0.002 -2.724549,0.003 0,0 2.866535,-2.08266 2.866535,-2.08266 l 0,0 c 0.905617,7.4e-4 1.811234,0.002 2.716851,0.003 2.923918,0.004 5.847838,0.007 8.771759,0.007 3.938046,0.002 7.87609,0.003 11.81414,10e-4 3.6102,-9.3e-4 7.22041,-6.4e-4 10.83061,-0.005 2.48789,-0.002 4.97579,-0.003 7.46368,-0.003 2.94445,10e-4 5.8889,0.009 8.83335,0.0112 5.59252,0.004 11.18503,0.0129 16.77756,0.01 5.98509,7.3e-4 11.97018,-0.001 17.95526,0.003 2.99447,0.005 5.98889,0.014 8.98325,0.0404 0.71073,-0.005 1.42962,0.006 2.13579,-0.0924 1.33501,-0.18518 3.35338,-1.47312 -1.3218,1.19442 1.69165,-1.40394 1.00734,-3.98958 1.12593,-5.91965 -0.002,-3.9214 -0.0123,-7.84376 -0.1474,-11.76327 -0.19459,-4.76796 -0.52382,-9.52804 -1.03351,-14.27349 -0.0608,-0.76489 -0.14563,-1.52825 -0.18234,-2.29468 -0.10589,-2.21099 0.22052,-4.59229 -0.63484,-6.68728 -1.55408,-1.66688 -4.3962,-0.83295 -6.40691,-1.01636 -3.8831,-0.002 -7.7662,-9.6e-4 -11.6493,0.002 -2.89408,0.002 -5.78816,0.003 -8.68224,0.006 -2.19707,0.002 -4.39414,-0.001 -6.59121,-0.006 -4.80021,-0.009 -9.60043,-0.0127 -14.40065,-0.0166 -7.24513,-0.004 -14.49027,-0.006 -21.7354,-0.002 -5.67852,0.004 -11.357042,0.008 -17.035553,0.0197 -2.433279,0.002 -4.866569,0.003 -7.299838,0.0109 0,0 2.875264,-2.089 2.875264,-2.089 z"
       inkscape:connector-curvature="0" />
    <text
       xml:space="preserve"
       style="font-style:normal;font-weight:normal;font-size:25px;line-height:125%;font-family:Sans;letter-spacing:0px;word-spacing:0px;fill:#000000;fill-opacity:1;stroke:none;stroke-width:1px;stroke-linecap:butt;stroke-linejoin:miter;stroke-opacity:1"
       x="255"
       y="389.50507"
       id="text4886"
       sodipodi:linespacing="125%"><tspan
         sodipodi:role="line"
         x="255"
         y="389.50507"
         id="tspan4896">优惠券通过手机号+手机验证码</tspan><tspan
         sodipodi:role="line"
         x="255"
         y="423.3782"
         id="tspan4904">的形式领取（折扣券/代金券/满200-30）</tspan><tspan
         sodipodi:role="line"
         x="255"
         y="457.25134"
         id="tspan4900" /><tspan
         sodipodi:role="line"
         x="255"
         y="488.50134"
         id="tspan4902">防伪，防恶意领取</tspan><tspan
         sodipodi:role="line"
         x="255"
         y="519.75134"
         id="tspan4892" /><tspan
         sodipodi:role="line"
         x="255"
         y="551.00134"
         id="tspan4890" /></text>
  </g>
</svg>
