<?xml version="1.0" encoding="UTF-8" standalone="no"?>
<!-- Created with Inkscape (http://www.inkscape.org/) -->

<svg
   xmlns:dc="http://purl.org/dc/elements/1.1/"
   xmlns:cc="http://creativecommons.org/ns#"
   xmlns:rdf="http://www.w3.org/1999/02/22-rdf-syntax-ns#"
   xmlns:svg="http://www.w3.org/2000/svg"
   xmlns="http://www.w3.org/2000/svg"
   xmlns:sodipodi="http://sodipodi.sourceforge.net/DTD/sodipodi-0.dtd"
   xmlns:inkscape="http://www.inkscape.org/namespaces/inkscape"
   width="210mm"
   height="297mm"
   viewBox="0 0 744.09448819 1052.3622047"
   id="svg2"
   version="1.1"
   inkscape:version="0.91 r"
   sodipodi:docname="report-idea.svg">
  <defs
     id="defs4" />
  <sodipodi:namedview
     id="base"
     pagecolor="#ffffff"
     bordercolor="#666666"
     borderopacity="1.0"
     inkscape:pageopacity="0.0"
     inkscape:pageshadow="2"
     inkscape:zoom="1"
     inkscape:cx="487.96551"
     inkscape:cy="675.80706"
     inkscape:document-units="px"
     inkscape:current-layer="layer1"
     showgrid="false"
     inkscape:window-width="1366"
     inkscape:window-height="718"
     inkscape:window-x="0"
     inkscape:window-y="0"
     inkscape:window-maximized="1" />
  <metadata
     id="metadata7">
    <rdf:RDF>
      <cc:Work
         rdf:about="">
        <dc:format>image/svg+xml</dc:format>
        <dc:type
           rdf:resource="http://purl.org/dc/dcmitype/StillImage" />
        <dc:title />
      </cc:Work>
    </rdf:RDF>
  </metadata>
  <g
     inkscape:label="Layer 1"
     inkscape:groupmode="layer"
     id="layer1">
    <text
       xml:space="preserve"
       style="font-style:normal;font-weight:normal;font-size:14.35581207px;line-height:125%;font-family:Sans;letter-spacing:0px;word-spacing:0px;fill:#000000;fill-opacity:1;stroke:none;stroke-width:1px;stroke-linecap:butt;stroke-linejoin:miter;stroke-opacity:1"
       x="25.287457"
       y="243.58572"
       id="text4136"
       sodipodi:linespacing="125%"
       transform="scale(0.79051783,1.2649936)"><tspan
         sodipodi:role="line"
         id="tspan4138"
         x="25.287457"
         y="243.58572">销售额汇总：日、月、季度，可以年</tspan><tspan
         sodipodi:role="line"
         x="25.287457"
         y="260.9259"
         id="tspan4142">同期相比</tspan><tspan
         sodipodi:role="line"
         x="25.287457"
         y="278.26611"
         id="tspan4182" /><tspan
         sodipodi:role="line"
         x="25.287457"
         y="297.06183"
         id="tspan4180">最畅销的宝贝前20（最近一星期）</tspan><tspan
         sodipodi:role="line"
         x="25.287457"
         y="315.85757"
         id="tspan4349">销售额最大的宝贝前20（最近一星期）</tspan><tspan
         sodipodi:role="line"
         x="25.287457"
         y="333.19775"
         id="tspan4351">基于分类的销售额统计（最近一星期，</tspan><tspan
         sodipodi:role="line"
         x="25.287457"
         y="351.9935"
         id="tspan4385">只列出占比大于5%的，未列出的归入</tspan><tspan
         sodipodi:role="line"
         x="25.287457"
         y="370.78925"
         id="tspan4387">“其它”）</tspan><tspan
         sodipodi:role="line"
         x="25.287457"
         y="389.58496"
         id="tspan4353" /><tspan
         sodipodi:role="line"
         x="25.287457"
         y="408.38071"
         id="tspan4178" /><tspan
         sodipodi:role="line"
         x="25.287457"
         y="427.17645"
         id="tspan4144" /><tspan
         sodipodi:role="line"
         x="25.287457"
         y="445.97217"
         id="tspan4140" /></text>
    <path
       style="opacity:1;fill:#000000;fill-opacity:1;stroke:#000000;stroke-width:0.23926355;stroke-linecap:round;stroke-linejoin:round;stroke-miterlimit:4;stroke-dasharray:none;stroke-opacity:1"
       id="path4146"
       d="m 450.27036,245.51545 c -0.29599,4.59691 -0.38553,9.21649 -0.46444,13.83318 -0.0816,5.77837 -0.0939,11.55844 -0.093,17.33803 0,0.61614 0.002,1.2323 0.002,1.84844 0,0 -2.37267,1.93399 -2.37267,1.93399 l 0,0 c 0.002,-0.61811 0.003,-1.2362 0.005,-1.85429 0.0178,-5.78722 0.035,-11.57473 0.10735,-17.36098 0.0718,-4.59885 0.14162,-9.20367 0.42049,-13.78497 0,0 2.39579,-1.9534 2.39579,-1.9534 z"
       inkscape:connector-curvature="0" />
    <path
       style="opacity:1;fill:#000000;fill-opacity:1;stroke:#000000;stroke-width:0.23926355;stroke-linecap:round;stroke-linejoin:round;stroke-miterlimit:4;stroke-dasharray:none;stroke-opacity:1"
       id="path4148"
       d="m 452.77337,242.0137 c 2.39645,-0.31904 4.79308,-0.60407 7.18797,-0.95257 3.11245,-0.44709 6.23666,-0.6093 9.35971,-0.71301 1.83681,-0.0556 3.6739,-0.0686 5.51096,-0.0693 0.98837,0.0765 1.62832,1.06899 2.06451,2.40559 0.36888,3.02453 0.71796,6.07367 1.09701,9.10542 0.64501,4.754 1.3171,9.49881 1.97774,14.24752 0.58177,4.11929 1.02087,8.28244 1.55787,12.41589 0.6584,5.15322 0.25298,4.5062 -2.82465,7.38017 -1.89073,-0.059 -3.78029,-0.31828 -5.67129,-0.44852 -3.19376,-0.17787 -6.3899,-0.19747 -9.58525,-0.21532 -2.97311,-0.012 -5.94623,-0.008 -8.91936,-3.9e-4 -1.72578,-0.13124 -3.47661,0.23241 -5.19393,-0.10947 0,0 2.18654,-2.48467 2.18654,-2.48467 l 0,0 c 1.71202,0.25329 3.44301,-0.0109 5.15962,0.0917 2.96923,0.004 5.93849,0.003 8.90771,0.0162 3.20094,0.0216 6.40262,0.0383 9.60202,0.21648 1.19116,0.0824 2.38054,0.18553 3.57072,0.29767 0.30044,0.0283 1.22283,0.13535 1.58037,0.0916 0.15569,-0.0191 0.30612,-0.0988 0.45917,-0.14822 -0.64284,0.62399 -1.27518,1.2765 -1.92848,1.87196 -0.11093,0.10111 0.21865,-0.22514 0.29768,-0.38557 0.56189,-1.14048 0.10923,-2.93227 0.009,-4.16059 -0.52707,-4.13676 -0.96503,-8.2998 -1.54359,-12.42035 -0.66182,-4.75069 -1.32496,-9.5009 -1.98343,-14.2526 -0.3776,-2.98778 -0.76351,-5.97839 -1.09015,-8.97446 -0.40105,-1.24374 -0.98902,-2.013 -1.89814,-2.01984 -1.82912,-0.004 -3.65833,6.1e-4 -5.48723,0.053 -3.11847,0.1034 -6.23788,0.27101 -9.34495,0.73281 -2.40905,0.35546 -4.82004,0.65852 -7.23207,0.95597 0,0 2.17356,-2.52702 2.17356,-2.52702 z"
       inkscape:connector-curvature="0" />
    <path
       style="opacity:1;fill:#000000;fill-opacity:1;stroke:#000000;stroke-width:0.23926355;stroke-linecap:round;stroke-linejoin:round;stroke-miterlimit:4;stroke-dasharray:none;stroke-opacity:1"
       id="path4150"
       d="m 492.95951,242.36911 c 0.0425,6.01615 -0.12754,12.02374 -0.2705,18.03365 -0.16444,6.95763 -0.23489,13.91956 -0.26849,20.88156 0.10999,1.74586 -0.20105,5.5396 1.2899,6.05285 1.68525,-0.56824 3.32116,-1.46697 4.97455,-2.23313 3.99282,-1.43076 8.05219,-2.40233 12.09526,-3.40876 3.78939,-0.97689 7.63555,-1.37102 11.40277,-2.55503 -0.8564,1.19766 2.61014,-1.77303 2.00343,-1.17836 -0.53779,0.5271 -1.07751,1.07507 -1.66847,1.42745 -0.19214,0.11457 0.30755,-0.43837 0.43685,-0.69305 0.28655,-0.56445 0.31616,-0.85275 0.46992,-1.51429 0.52544,-2.94301 -0.24426,-5.58065 -0.90988,-8.28127 -1.33171,-4.94853 -2.86448,-9.76531 -4.44636,-14.52147 -0.79562,-2.38958 -1.56616,-4.86086 -2.66077,-6.94568 -0.69099,-1.0526 -1.62363,-1.11561 -2.52549,-1.1875 -1.3926,-0.0437 -2.78576,-0.0109 -4.17856,-0.004 -2.58719,0.0131 -5.1744,0.008 -7.76159,0.01 -2.67542,2.4e-4 -5.35081,0.007 -8.02623,0.007 -1.98979,0.002 -3.9796,0.003 -5.96941,0.005 -0.24491,3e-4 -0.48981,9e-4 -0.7347,9.5e-4 0,0 2.16581,-2.51803 2.16581,-2.51803 l 0,0 c 0.24422,3e-4 0.48842,9.1e-4 0.73263,9.6e-4 1.98622,0.004 3.97244,0.004 5.95867,0.007 2.67247,-1.6e-4 5.34494,0.007 8.01742,0.004 2.59258,-0.002 5.18517,-0.01 7.77775,-0.0309 1.3998,-0.0142 2.8007,-0.0576 4.20003,0.0136 0.9715,0.11179 1.93337,0.30045 2.64551,1.48183 1.08791,2.13179 1.86837,4.61889 2.6596,7.04785 1.57626,4.7785 3.10821,9.61026 4.46275,14.55953 0.69792,2.7793 1.49454,5.47462 1.02213,8.52564 -0.74076,3.95811 -3.51264,5.30359 -5.78719,6.34286 -3.7674,1.11776 -7.60197,1.54082 -11.38471,2.51556 -4.04525,1.01823 -8.11196,1.97339 -12.09809,3.48043 -1.66319,0.78154 -3.35878,1.91844 -5.09693,2.0634 -1.54363,-0.99806 -1.34899,-4.37036 -1.42367,-6.55748 0.0537,-6.97115 0.12607,-13.94234 0.28718,-20.9096 0.13749,-5.98977 0.31154,-11.97856 0.21896,-17.97407 0,0 2.38992,-1.94861 2.38992,-1.94861 z"
       inkscape:connector-curvature="0" />
    <path
       style="opacity:1;fill:#000000;fill-opacity:1;stroke:#000000;stroke-width:0.23926355;stroke-linecap:round;stroke-linejoin:round;stroke-miterlimit:4;stroke-dasharray:none;stroke-opacity:1"
       id="path4152"
       d="m 536.73434,242.16064 c -0.0192,4.86454 -0.0211,9.72924 -0.0244,14.59387 -0.002,6.26274 0,12.52545 0.006,18.78818 0.21576,2.84409 -0.47937,6.25301 0.44827,8.87044 0.92638,1.26564 2.34953,0.92312 3.48286,0.93812 3.15011,-0.0396 6.3021,0.0536 9.4497,-0.16836 2.88755,-0.30577 5.77583,-0.56402 8.66874,-0.68899 2.28634,-0.26954 4.56886,-0.60927 6.8577,-0.8241 0.958,-0.15613 3.32506,-1.77798 -0.64652,1.17882 -0.12656,0.0942 0.21114,-0.2973 0.29446,-0.47654 0.20342,-0.43767 0.22886,-0.74715 0.32424,-1.26151 0.24541,-2.97264 -0.49896,-5.95489 -1.02768,-8.76073 -0.97463,-4.92244 -1.98126,-9.82967 -3.04471,-14.70487 -0.83776,-3.28939 -1.20044,-6.94152 -2.25572,-10.08204 -0.56144,-1.19465 -1.49113,-1.67655 -2.36329,-2.06385 -1.36316,-0.75831 -2.76077,-1.36798 -4.16648,-1.89099 -2.19868,-1.0651 -4.48624,-1.35068 -6.74788,-1.85617 -1.6638,-0.33793 -3.29349,-1.00233 -4.89372,-1.78934 -1.07949,-0.55926 -2.20394,-0.7489 -3.33056,-0.84536 -0.76393,-0.26915 -1.5242,-0.5365 -2.30022,-0.70015 0,0 2.19466,-2.47766 2.19466,-2.47766 l 0,0 c 0.76807,0.18193 1.52026,0.47595 2.28613,0.6743 1.1401,0.12039 2.27399,0.35429 3.36373,0.93301 1.58713,0.77905 3.2073,1.41028 4.85611,1.74717 2.27045,0.49156 4.55759,0.84135 6.76568,1.88534 1.41225,0.53713 2.81612,1.14544 4.19098,1.89317 0.9346,0.46675 1.89155,1.01934 2.46941,2.35972 1.0489,3.17559 1.41258,6.8441 2.2473,10.16497 1.06257,4.88068 2.07264,9.79079 3.05807,14.71267 0.55059,2.87527 1.2982,5.8948 1.12184,8.94651 -0.46871,3.3647 -2.55845,4.5814 -4.54815,4.94684 -2.28584,0.21494 -4.56517,0.56021 -6.84991,0.79872 -2.88866,0.13325 -5.77275,0.39622 -8.65694,0.6824 -3.15637,0.19853 -6.31636,0.12323 -9.47473,0.17125 -1.24811,-0.0172 -2.71196,0.27876 -3.65211,-1.29876 -0.94468,-2.72445 -0.31092,-6.12905 -0.47819,-9.09231 0.006,-6.26599 0.008,-12.53196 0.006,-18.79794 -0.003,-4.85134 -0.005,-9.70276 -0.0244,-14.55403 0,0 2.39384,-1.9518 2.39384,-1.9518 z"
       inkscape:connector-curvature="0" />
    <text
       xml:space="preserve"
       style="font-style:normal;font-weight:normal;font-size:14.35581207px;line-height:125%;font-family:Sans;letter-spacing:0px;word-spacing:0px;fill:#000000;fill-opacity:1;stroke:none;stroke-width:1px;stroke-linecap:butt;stroke-linejoin:miter;stroke-opacity:1"
       x="577.64441"
       y="212.82326"
       id="text4154"
       sodipodi:linespacing="125%"
       transform="scale(0.79051783,1.2649936)"><tspan
         sodipodi:role="line"
         id="tspan4156"
         x="577.64441"
         y="212.82326">日</tspan></text>
    <text
       xml:space="preserve"
       style="font-style:normal;font-weight:normal;font-size:14.35581207px;line-height:125%;font-family:Sans;letter-spacing:0px;word-spacing:0px;fill:#000000;fill-opacity:1;stroke:none;stroke-width:1px;stroke-linecap:butt;stroke-linejoin:miter;stroke-opacity:1"
       x="632.33319"
       y="215.55771"
       id="text4158"
       sodipodi:linespacing="125%"
       transform="scale(0.79051783,1.2649936)"><tspan
         sodipodi:role="line"
         id="tspan4160"
         x="632.33319"
         y="215.55771">月</tspan></text>
    <text
       xml:space="preserve"
       style="font-style:normal;font-weight:normal;font-size:14.35581207px;line-height:125%;font-family:Sans;letter-spacing:0px;word-spacing:0px;fill:#000000;fill-opacity:1;stroke:none;stroke-width:1px;stroke-linecap:butt;stroke-linejoin:miter;stroke-opacity:1"
       x="682.23676"
       y="216.24132"
       id="text4162"
       sodipodi:linespacing="125%"
       transform="scale(0.79051783,1.2649936)"><tspan
         sodipodi:role="line"
         id="tspan4164"
         x="682.23676"
         y="216.24132">季度</tspan></text>
    <path
       style="opacity:1;fill:#000000;fill-opacity:1;stroke:#000000;stroke-width:0.23926355;stroke-linecap:round;stroke-linejoin:round;stroke-miterlimit:4;stroke-dasharray:none;stroke-opacity:1"
       id="path4168"
       d="m 237.17861,320.63013 c -1.09745,4.30583 -2.1799,8.62137 -3.21549,12.9665 -0.93092,3.77381 -1.83138,7.56416 -2.6511,11.40374 0,0 -2.40756,1.80577 -2.40756,1.80577 l 0,0 c 0.82239,-3.84885 1.72535,-7.64833 2.6631,-11.42872 1.02843,-4.33593 2.11184,-8.63645 3.17103,-12.95305 0,0 2.44002,-1.79424 2.44002,-1.79424 z"
       inkscape:connector-curvature="0" />
    <path
       style="opacity:1;fill:#000000;fill-opacity:1;stroke:#000000;stroke-width:0.23926355;stroke-linecap:round;stroke-linejoin:round;stroke-miterlimit:4;stroke-dasharray:none;stroke-opacity:1"
       id="path4170"
       d="m 238.53995,319.52146 c 0.34295,2.86445 1.15254,5.40573 2.07943,7.88201 0.48285,1.16524 0.89355,2.39346 1.28303,3.64232 0,0 -2.32473,2.11675 -2.32473,2.11675 l 0,0 c -0.3832,-1.24166 -0.78878,-2.46168 -1.26951,-3.61634 -0.9321,-2.50108 -1.75699,-5.06796 -2.12288,-7.94957 0,0 2.35466,-2.07517 2.35466,-2.07517 z"
       inkscape:connector-curvature="0" />
    <path
       style="opacity:1;fill:#000000;fill-opacity:1;stroke:#000000;stroke-width:0.30732033;stroke-linecap:round;stroke-linejoin:round;stroke-miterlimit:4;stroke-dasharray:none;stroke-opacity:1"
       id="path4172"
       d="m 237.86295,326.64773 c -0.0189,8.26866 -0.0203,16.53756 -0.0248,24.80635 -0.006,13.65727 -0.008,27.31454 -0.007,40.97182 -0.002,14.02223 4e-5,28.04447 0.002,42.06672 0.003,12.37753 0.003,24.75509 0.004,37.13264 -5.1e-4,11.11742 0.002,22.23483 0.006,33.35224 0.005,7.84298 0.006,15.68596 0.009,23.52895 7.9e-4,6.10122 7.9e-4,12.20246 0.004,18.3037 0.002,5.61868 -0.002,11.23736 -0.002,16.85604 -3.3e-4,5.24703 0.002,10.49405 0.005,15.74106 0.002,3.67685 0.002,7.35369 0.002,11.03053 7.6e-4,3.04263 7.9e-4,6.08525 7.9e-4,9.12789 6e-5,1.94393 6e-5,3.88787 6e-5,5.8318 0,0 -2.33748,3.2905 -2.33748,3.2905 l 0,0 c 1e-5,-1.94399 1e-5,-3.88799 7e-5,-5.83199 1.2e-4,-3.04367 3.8e-4,-6.08733 7.9e-4,-9.13099 7.8e-4,-3.67916 0.002,-7.35833 0.002,-11.03749 0.003,-5.25176 0.006,-10.50354 0.005,-15.75531 -5.7e-4,-5.61699 -0.004,-11.23399 -0.002,-16.85099 0.002,-6.10472 0.002,-12.20943 0.004,-18.31415 0.002,-7.85104 0.004,-15.70209 0.009,-23.55312 0.003,-11.12267 0.006,-22.24534 0.006,-33.36801 7.5e-4,-12.38151 7.8e-4,-24.76302 0.004,-37.14452 0.002,-14.02384 0.003,-28.0477 0.002,-42.07152 7.9e-4,-13.65055 -7.8e-4,-27.30111 -0.007,-40.95165 -0.005,-8.24547 -0.006,-16.49105 -0.0248,-24.73639 0,0 2.34003,-3.29411 2.34003,-3.29411 z"
       inkscape:connector-curvature="0" />
    <path
       style="opacity:1;fill:#000000;fill-opacity:1;stroke:#000000;stroke-width:0.23926355;stroke-linecap:round;stroke-linejoin:round;stroke-miterlimit:4;stroke-dasharray:none;stroke-opacity:1"
       id="path4174"
       d="m 239.19522,605.64529 c 2.35021,0.0139 4.70045,0.0163 7.05069,0.0203 4.86092,0.0558 9.71016,-0.59307 14.56085,-1.00773 6.7494,-0.53053 13.50825,-0.59643 20.26425,-0.65996 7.15936,-0.0467 14.31879,-0.0434 21.4782,-0.0454 5.73577,-2.7e-4 11.47153,0 17.20729,-0.003 5.20549,0 10.41097,-3e-4 15.61644,-6e-5 5.45112,0 10.90222,0.004 16.35334,0.004 5.4543,0 10.90861,-0.003 16.3629,-0.003 5.4813,0 10.96258,0.003 16.44387,3e-4 5.21058,2.1e-4 10.42119,-0.003 15.63177,-0.004 4.7911,-0.003 9.58219,0 14.37328,-0.003 4.45311,0 8.9062,-0.003 13.35931,-0.004 3.83163,-0.003 7.66328,-0.005 11.49491,-0.004 4.36157,0.003 8.72313,0.007 13.08469,0.007 4.48793,-10e-5 8.97585,-0.003 13.46377,0 4.83141,0.004 9.66282,0.004 14.49424,0.003 4.10653,-0.003 8.21305,-0.004 12.31957,-0.0109 2.94479,0 5.88956,-0.007 8.83434,-0.007 2.67672,0 5.35343,1.2e-4 8.03013,0.003 2.75681,-3e-5 5.51359,0 8.27038,-0.003 2.58039,0 5.16079,2.4e-4 7.74119,0 2.42249,0 4.84496,0 7.26745,0 2.23267,-1.2e-4 4.46534,-2.1e-4 6.69801,-0.003 1.4697,-0.003 2.93938,-0.004 4.40909,-0.007 1.34246,0.12946 3.00614,-1.78405 -0.57895,1.32445 0,0 2.49391,-1.60904 2.49391,-1.60904 l 0,0 c -1.71353,1.6637 -2.3294,2.92649 -4.08452,2.80702 -1.46593,0 -2.93185,-0.004 -4.39778,-0.007 -2.23109,-0.003 -4.46215,-0.003 -6.69323,-0.003 -2.4217,0 -4.8434,1.2e-4 -7.26511,0 -2.57991,0 -5.15984,3.1e-4 -7.73976,0 -2.75578,0 -5.51154,-0.003 -8.26733,-0.003 -2.67772,0 -5.35544,0.003 -8.03314,0.003 -2.94103,-2.9e-4 -5.88204,-0.005 -8.82306,-0.007 -4.10035,-0.005 -8.20071,-0.01 -12.30108,-0.0109 -4.83282,0 -9.66564,0 -14.49845,0.003 -4.48747,0 -8.97496,0 -13.46244,0 -4.36524,7e-5 -8.73049,0.003 -13.09572,0.007 -3.82958,0.003 -7.65915,0 -11.48871,-0.004 -4.45095,-0.003 -8.90188,-0.003 -13.35282,-0.004 -4.7899,0 -9.57979,0 -14.36968,-0.003 -5.20872,0 -10.41743,-0.003 -15.62615,-0.003 -5.48151,-0.003 -10.96301,0 -16.44453,3.1e-4 -5.45264,-9e-5 -10.9053,0 -16.35794,-0.003 -5.45363,0 -10.90726,0.004 -16.36089,0.004 -5.20482,2.8e-4 -10.40964,0 -15.61447,-0.003 -5.73013,-0.004 -11.46027,-0.01 -17.19039,-0.0178 -7.15492,-0.01 -14.3099,-0.0209 -21.46476,0.0332 -6.76123,0.072 -13.52528,0.15374 -20.27941,0.70229 -4.86454,0.42793 -9.72774,1.07579 -14.60304,1.02884 -2.36195,0.004 -4.72391,0.007 -7.08585,0.0203 0,0 2.17534,-2.52908 2.17534,-2.52908 z"
       inkscape:connector-curvature="0" />
    <path
       style="opacity:1;fill:#000000;fill-opacity:1;stroke:#000000;stroke-width:0.23926355;stroke-linecap:round;stroke-linejoin:round;stroke-miterlimit:4;stroke-dasharray:none;stroke-opacity:1"
       id="path4176"
       d="m 542.30866,584.07705 c 0.76102,2.57079 1.74582,4.9351 2.67685,7.34737 1.11935,2.46602 2.00177,5.17772 2.98952,7.7787 0.76484,2.30642 1.69393,4.44188 2.64768,6.55196 0.57601,1.06713 1.31913,2.12328 0.9857,3.62358 -1.75402,2.82081 -4.43515,3.90131 -6.72256,5.21918 -2.10305,1.28976 -4.28501,2.03979 -6.4748,2.81486 -1.44399,0.48497 -2.86606,1.13249 -4.23746,1.99893 -0.14334,0.0489 -0.28667,0.0977 -0.43,0.14665 0,0 2.13502,-2.61177 2.13502,-2.61177 l 0,0 c 0.13531,-0.062 0.27062,-0.12407 0.40594,-0.18611 1.37616,-0.84502 2.81004,-1.43664 4.25019,-1.93008 2.18735,-0.7536 4.35119,-1.58386 6.45003,-2.8552 0.96402,-0.55873 1.93941,-1.08739 2.89455,-1.68435 1.05024,-0.65638 1.70059,-1.34822 -1.03828,1.19627 -0.1088,0.10111 0.20791,-0.22668 0.31186,-0.34003 0.56989,-1.16775 -0.42746,-2.33634 -0.83537,-3.21213 -0.95426,-2.12294 -1.88695,-4.26867 -2.65118,-6.5879 -0.9863,-2.60113 -1.87149,-5.30886 -2.99035,-7.77412 -0.93314,-2.41618 -1.91117,-4.79068 -2.69263,-7.34972 0,0 2.32529,-2.14609 2.32529,-2.14609 z"
       inkscape:connector-curvature="0" />
    <text
       xml:space="preserve"
       style="font-style:normal;font-weight:normal;font-size:14.35581207px;line-height:125%;font-family:Sans;letter-spacing:0px;word-spacing:0px;fill:#000000;fill-opacity:1;stroke:none;stroke-width:1px;stroke-linecap:butt;stroke-linejoin:miter;stroke-opacity:1"
       x="609.09045"
       y="303.74338"
       id="text4184"
       sodipodi:linespacing="125%"
       transform="scale(0.79051783,1.2649936)"><tspan
         sodipodi:role="line"
         id="tspan4186"
         x="609.09045"
         y="303.74338">添加同期比较</tspan></text>
    <path
       style="opacity:1;fill:#000000;fill-opacity:1;stroke:#000000;stroke-width:0.23926355;stroke-linecap:round;stroke-linejoin:round;stroke-miterlimit:4;stroke-dasharray:none;stroke-opacity:1"
       id="path4231"
       d="m 477.28969,363.22738 c 0.11662,4.07391 -0.17905,8.09343 -0.49698,12.12536 -0.33022,3.90184 -0.47816,7.83125 -0.55551,11.76388 -0.0434,2.60473 -0.042,5.21054 -0.0385,7.81596 0.0598,1.54459 -0.25376,3.35517 0.42858,4.62067 1.05877,0.96812 2.41044,0.72627 3.58573,0.75418 3.25557,0.0277 6.51123,0.004 9.76684,-0.004 3.88572,-0.009 7.77145,-0.0115 11.65718,-0.0125 3.62579,-6e-4 7.25156,-0.004 10.87735,-0.005 2.84085,-0.003 5.68168,-0.007 8.52252,-0.004 3.25885,0.002 6.51769,0.004 9.77651,0.008 3.36057,0.003 6.72113,-0.003 10.08169,-0.008 2.15868,-0.005 4.31735,-0.005 6.47602,-0.005 1.91415,-6.1e-4 3.82831,-3.1e-4 5.74248,-0.003 0.99815,-0.002 0.52293,0.048 1.42655,-0.12372 0,0 -2.15232,2.55479 -2.15232,2.55479 l 0,0 c -0.91616,0.11755 -0.43738,0.0846 -1.43678,0.0832 -1.91253,-0.003 -3.82503,-0.002 -5.73755,-0.003 -2.15559,9e-5 -4.31119,2.9e-4 -6.46678,-0.005 -3.3561,-0.004 -6.71221,-0.011 -10.06829,-0.008 -3.26307,0.003 -6.52613,0.005 -9.78919,0.008 -2.83829,0.003 -5.67658,-0.002 -8.51484,-0.004 -3.62305,-9.6e-4 -7.24611,-0.005 -10.86917,-0.004 -3.88687,0.002 -7.77374,0.004 -11.66058,0.0174 -3.26344,0.0121 -6.52694,0.0388 -9.79038,0.0235 -1.24461,-0.0297 -2.67965,0.21833 -3.73302,-1.04308 -0.70414,-1.4165 -0.49755,-3.17624 -0.50985,-4.88676 8e-5,-2.61294 0.002,-5.22635 0.0468,-7.83848 0.0804,-3.9473 0.22155,-7.8925 0.5558,-11.80883 0.31891,-4.00788 0.63846,-8.00172 0.48192,-12.05304 0,0 2.39385,-1.95181 2.39385,-1.95181 z"
       inkscape:connector-curvature="0" />
    <path
       style="opacity:1;fill:#000000;fill-opacity:1;stroke:#000000;stroke-width:0.23926355;stroke-linecap:round;stroke-linejoin:round;stroke-miterlimit:4;stroke-dasharray:none;stroke-opacity:1"
       id="path4235"
       d="m 475.94706,363.94418 c 1.3696,0.009 2.73922,0.005 4.10883,0.004 2.10606,5e-5 4.2121,0.01 6.31817,0.0158 4.64182,0.01 9.28365,0.014 13.9255,0.016 4.77349,-9.2e-4 9.54701,-0.003 14.3205,-0.01 3.67213,0.13192 7.33489,-0.10002 11.00048,-0.40547 2.96282,-0.45325 5.92416,-0.90933 8.89676,-1.16049 2.09363,-0.16917 4.19028,-0.17994 6.28603,-0.19067 1.60306,0.16198 3.18134,-0.22832 4.76557,-0.54099 1.2586,-0.23622 2.52727,-0.27903 3.79306,-0.31148 1.09316,-0.0432 2.16777,-0.0937 3.24048,0.26506 0.96704,0.52612 1.20655,1.92684 1.35346,3.3884 0.27872,1.37899 0.35595,2.83214 0.57941,4.22775 0.1436,1.51533 0.75866,2.5861 1.28141,3.80314 0.55418,1.38492 0.70226,3.02338 1.00324,4.56695 0.26624,1.34874 0.6247,2.61518 0.80488,4.00906 0.16835,1.62936 0.1759,3.28582 0.1877,4.93282 0.006,1.73041 0.002,3.46086 0,5.19128 -0.002,1.73095 -0.002,3.46189 -0.003,5.19284 0,1.7296 -1.9e-4,3.4592 -1.9e-4,5.18879 -0.0185,0.26218 -0.0371,0.52435 -0.0556,0.78651 0,0 -2.40926,1.89925 -2.40926,1.89925 l 0,0 c 0.0246,-0.24537 0.049,-0.49073 0.0737,-0.7361 -2e-5,-1.72965 -5e-5,-3.45928 1.5e-4,-5.18893 0,-1.73117 0,-3.46232 0.003,-5.19349 0.002,-1.72878 0.006,-3.45756 0.002,-5.18633 -0.01,-1.62186 -0.0134,-3.25227 -0.16658,-4.85934 -0.16901,-1.38517 -0.52722,-2.63397 -0.79153,-3.96988 -0.29284,-1.50327 -0.43177,-3.10076 -0.96182,-4.45572 -0.54111,-1.25235 -1.17579,-2.37171 -1.32906,-3.93052 -0.23827,-1.40476 -0.29572,-2.88117 -0.59202,-4.26915 -0.11722,-1.3091 -0.27979,-2.55954 -1.18253,-2.93883 -1.05989,-0.31355 -2.12966,-0.21163 -3.20351,-0.19541 -1.26036,0.0381 -2.52299,0.094 -3.77506,0.34651 -1.58711,0.31502 -3.17147,0.63263 -4.77591,0.48938 -2.0904,0.01 -4.18155,0.0305 -6.26982,0.1983 -2.96781,0.25743 -5.92403,0.72223 -8.88396,1.14473 -3.66535,0.30542 -7.32859,0.50199 -11.00005,0.37777 -4.76802,-0.007 -9.53607,-0.009 -14.30412,-0.01 -4.65094,0.002 -9.30192,0.007 -13.95287,0.0159 -2.11515,0.005 -4.23027,0.0158 -6.34544,0.0159 -1.37213,-9e-4 -2.74431,-0.004 -4.11642,0.004 0,0 2.17532,-2.52908 2.17532,-2.52908 z"
       inkscape:connector-curvature="0" />
    <path
       style="opacity:1;fill:#000000;fill-opacity:1;stroke:#000000;stroke-width:0.23926355;stroke-linecap:round;stroke-linejoin:round;stroke-miterlimit:4;stroke-dasharray:none;stroke-opacity:1"
       id="path4237"
       d="m 477.05244,373.72042 c 1.32816,0.69564 2.70708,1.06005 4.09289,1.29494 1.1644,0.16956 2.33439,0.17928 3.50259,0.18566 0.70285,-0.004 1.39892,0.0604 2.09246,-0.13353 0,0 -2.15085,2.57389 -2.15085,2.57389 l 0,0 c -0.70306,0.11752 -1.40672,0.0851 -2.11322,0.0819 -1.17303,-0.0119 -2.34797,-0.033 -3.51595,-0.22647 -1.39957,-0.26278 -2.78945,-0.6608 -4.13237,-1.36118 0,0 2.22445,-2.41515 2.22445,-2.41515 z"
       inkscape:connector-curvature="0" />
    <path
       style="opacity:1;fill:#000000;fill-opacity:1;stroke:#000000;stroke-width:0.23926355;stroke-linecap:round;stroke-linejoin:round;stroke-miterlimit:4;stroke-dasharray:none;stroke-opacity:1"
       id="path4241"
       d="m 482.69473,366.58219 c -0.008,2.22954 -0.004,4.45915 -0.006,6.68873 -0.002,2.32883 1.2e-4,4.65767 0.002,6.9865 0.0966,1.69054 -0.12851,3.31868 -0.31259,4.96744 0,0 -2.41404,1.8849 -2.41404,1.8849 l 0,0 c 0.17386,-1.63181 0.44314,-3.23057 0.33844,-4.90512 0.002,-2.32959 0.004,-4.65918 0.002,-6.98875 0,-2.22677 0.003,-4.45356 -0.006,-6.6803 0,0 2.39579,-1.9534 2.39579,-1.9534 z"
       inkscape:connector-curvature="0" />
    <path
       style="opacity:1;fill:#000000;fill-opacity:1;stroke:#000000;stroke-width:0.23926355;stroke-linecap:round;stroke-linejoin:round;stroke-miterlimit:4;stroke-dasharray:none;stroke-opacity:1"
       id="path4243"
       d="m 481.5591,421.09408 c -0.23182,2.17089 -0.34763,4.36642 -0.42563,6.56332 -0.0679,2.44251 -0.0672,4.88826 -0.0691,7.33269 0,2.21997 0.002,4.43993 0.004,6.65989 0.002,1.81874 0.002,3.63749 0.002,5.45624 0.002,1.658 -0.003,3.31603 0.002,4.97402 0.0239,0.19564 0.0246,0.56398 0.17888,0.67711 0.17234,0.1264 1.1232,-0.20591 1.32299,-0.24843 1.05894,-0.22393 2.12685,-0.29 3.19361,-0.32704 1.93545,0.0724 3.85988,-0.21027 5.78837,-0.4252 2.59003,-0.2908 5.18626,-0.37684 7.78166,-0.43242 2.22297,-0.0361 4.44611,-0.0349 6.66918,-0.0347 2.02731,2.1e-4 4.05463,0.004 6.08195,0.007 2.59893,-0.27372 5.19566,-0.55773 7.7988,-0.71035 2.61355,-0.13232 5.22872,-0.14611 7.84334,-0.15588 2.52551,-0.004 5.051,-8e-5 7.57651,0.002 2.34253,9.2e-4 4.68504,2.8e-4 7.02758,-10e-6 2.05686,-0.13144 4.09599,0.0874 6.14071,0.40578 1.59878,0.38019 3.16085,1.06398 4.70666,1.80753 1.05896,0.9228 2.23269,1.34553 3.34997,2.00825 0.84329,0.39197 1.60517,1.07851 2.45283,1.44679 0.87738,0.0177 2.79371,-1.52781 -1.41191,1.60357 -0.0977,0.0727 0.14725,-0.25571 0.20062,-0.40546 0.17114,-0.48014 0.17695,-0.8652 0.24027,-1.4191 0.16128,-2.83714 0.12921,-5.69286 0.12772,-8.5389 0.0143,-2.90308 0.0575,-5.80146 -0.31383,-8.65542 -0.23568,-1.99694 -0.7063,-3.88509 -1.02154,-5.8472 -0.37319,-1.41421 -0.61673,-2.86897 -0.74437,-4.38722 -0.18508,-1.2967 -0.38074,-2.58917 -0.82986,-3.72147 -0.40297,-1.05096 -0.70342,-2.20172 -1.31135,-2.99483 -0.79865,-0.71277 -1.73793,-0.72717 -2.62897,-0.78336 -1.35745,-0.0413 -2.71536,-0.0216 -4.07299,-0.0194 -2.91177,0.004 -5.82355,-2.4e-4 -8.73534,-0.002 -4.09384,-0.002 -8.18767,-0.004 -12.28152,-0.003 -3.52014,9.6e-4 -7.04028,0.005 -10.56043,0.01 -2.38186,0.003 -4.76373,0.005 -7.1456,0.007 -1.84833,0.002 -3.69666,0.002 -5.54502,0.003 -1.64707,-0.002 -3.29415,0.002 -4.94124,0.002 -1.5471,1e-5 -3.09421,2.1e-4 -4.64134,-6e-4 -1.562,1.7e-4 -3.12402,2e-4 -4.68603,9.1e-4 -1.27534,9.2e-4 -2.55067,0.002 -3.82601,0.003 -1.20014,2.9e-4 -2.4003,-9.7e-4 -3.60045,-9.2e-4 -0.59046,2.4e-4 -1.18093,6.1e-4 -1.77139,6.1e-4 0,0 2.17015,-2.52307 2.17015,-2.52307 l 0,0 c 0.59008,2.2e-4 1.18014,6e-4 1.77022,6e-4 1.20057,3.1e-4 2.40117,-9.6e-4 3.60175,-9.1e-4 1.27366,6.1e-4 2.54731,0.002 3.82095,0.003 1.56156,6.1e-4 3.12312,6.1e-4 4.68465,9.1e-4 1.54752,-9.1e-4 3.09506,-6.1e-4 4.64258,-6.1e-4 1.64619,-3e-4 3.29238,0.004 4.93859,0.002 1.84661,0.002 3.6932,6.1e-4 5.53982,0.003 2.37772,9e-4 4.75546,0.004 7.13319,0.008 3.51487,0.003 7.02973,0.009 10.5446,0.01 4.09628,0.002 8.19258,-9.1e-4 12.28887,-0.005 2.91966,-0.004 5.83934,-0.01 8.75897,-0.027 1.36392,-0.009 2.72853,-0.0403 4.09209,0.0233 0.94094,0.0802 1.92304,0.15057 2.73164,1.01527 0.60442,0.86144 0.94785,2.00295 1.35296,3.10611 0.46578,1.19141 0.68542,2.52709 0.88342,3.88695 0.11713,1.50543 0.3519,2.94604 0.72738,4.34368 0.30734,1.9722 0.78417,3.86408 1.02035,5.86737 0.3875,2.88001 0.34942,5.80642 0.33264,8.73986 0.002,2.86227 0.0298,5.73039 -0.0967,8.58731 -0.23342,2.98415 -1.54694,4.93453 -3.65512,4.5404 -0.84,-0.41086 -1.61696,-1.07153 -2.46054,-1.47059 -1.12412,-0.61762 -2.26059,-1.15784 -3.33443,-1.99651 -1.53621,-0.71666 -3.0817,-1.41502 -4.67223,-1.74635 -2.03763,-0.31668 -4.07209,-0.4879 -6.12088,-0.37772 -2.34109,-9.1e-4 -4.6822,-0.003 -7.0233,-0.004 -2.52542,-0.002 -5.05084,-0.005 -7.57626,-2.7e-4 -2.61197,0.0116 -5.22446,0.0241 -7.83524,0.16482 -2.60672,0.15998 -5.20637,0.47126 -7.81044,0.70408 -2.02864,0.002 -4.05729,0.002 -6.08593,-0.002 -2.22019,-0.002 -4.44043,-0.007 -6.66052,0.032 -2.59214,0.0574 -5.18498,0.151 -7.7714,0.45053 -1.93668,0.22341 -3.87041,0.47918 -5.81408,0.43151 -1.06326,0.0506 -2.12705,0.13072 -3.18157,0.36785 -0.71336,0.14376 -1.60325,0.46772 -1.74378,-1.04763 0.005,-1.65908 0,-3.31819 0.002,-4.97731 5e-5,-1.81937 1.7e-4,-3.63874 0,-5.45812 -6e-5,-2.22132 -0.002,-4.44266 0,-6.66399 0.004,-2.45047 0.002,-4.902 0.0597,-7.35108 0.0756,-2.20783 0.19182,-4.41259 0.4043,-6.59882 0,0 2.41546,-1.88969 2.41546,-1.88969 z"
       inkscape:connector-curvature="0" />
    <path
       style="opacity:1;fill:#000000;fill-opacity:1;stroke:#000000;stroke-width:0.23926355;stroke-linecap:round;stroke-linejoin:round;stroke-miterlimit:4;stroke-dasharray:none;stroke-opacity:1"
       id="path4245"
       d="m 545.92222,427.98032 c -0.0168,3.68156 -0.0144,7.36326 -0.0138,11.04489 -0.002,3.76807 0.002,7.53613 0.006,11.30419 0,0 -2.37971,1.94027 -2.37971,1.94027 l 0,0 c 0.005,-3.77122 0.008,-7.54246 0.006,-11.31369 0,-3.67408 0.003,-7.34824 -0.0138,-11.02225 0,0 2.39579,-1.95341 2.39579,-1.95341 z"
       inkscape:connector-curvature="0" />
    <path
       style="opacity:1;fill:#000000;fill-opacity:1;stroke:#000000;stroke-width:0.23926355;stroke-linecap:round;stroke-linejoin:round;stroke-miterlimit:4;stroke-dasharray:none;stroke-opacity:1"
       id="path4247"
       d="m 547.82106,433.98994 c 1.42049,0.008 2.84099,0.005 4.26146,0.005 1.22522,0.13328 2.40655,-0.0632 3.60492,-0.42769 0.92886,-0.37257 1.63426,0.10373 1.87612,1.61798 0.0578,1.66011 -0.35518,3.24405 -0.73772,4.75413 -0.54254,2.26487 -1.00563,4.57508 -1.53629,6.84834 -0.87665,4.39631 -0.32343,3.25208 -3.43217,6.04248 -0.69519,-0.21417 -1.07123,-1.38146 -1.44444,-2.25053 -0.67173,-1.25487 -1.31185,-2.50825 -1.82607,-3.95073 -0.48188,-1.62018 -0.94194,-3.26406 -1.46216,-4.85305 -0.44893,-1.29252 -0.63639,-2.7517 -1.11138,-4.022 0,0 2.32628,-2.15585 2.32628,-2.15585 l 0,0 c 0.4748,1.28208 0.67701,2.73491 1.11508,4.04599 0.51706,1.5857 0.97821,3.22289 1.45733,4.83934 0.51045,1.4318 1.15577,2.66302 1.81748,3.91579 0.29892,0.68817 0.6481,1.91232 1.25709,1.78828 -0.69994,0.6805 -1.39248,1.38087 -2.09983,2.04148 -0.0852,0.0796 0.16932,-0.17286 0.23096,-0.29609 0.46801,-0.93534 0.43382,-2.29049 0.7438,-3.33715 0.5306,-2.27747 1.01448,-4.57864 1.53265,-6.86153 0.37687,-1.44026 0.7677,-2.93386 0.79762,-4.51368 -0.1376,-1.40073 -0.93279,-1.32821 -1.64719,-1.06366 -1.2036,0.35452 -2.40283,0.44115 -3.62733,0.35551 -1.42385,-1.9e-4 -2.8477,-0.002 -4.27154,0.005 0,0 2.17533,-2.52907 2.17533,-2.52907 z"
       inkscape:connector-curvature="0" />
    <text
       xml:space="preserve"
       style="font-style:normal;font-weight:normal;font-size:14.35581207px;line-height:125%;font-family:Sans;letter-spacing:0px;word-spacing:0px;fill:#000000;fill-opacity:1;stroke:none;stroke-width:1px;stroke-linecap:butt;stroke-linejoin:miter;stroke-opacity:1"
       x="615.92657"
       y="349.54526"
       id="text4249"
       sodipodi:linespacing="125%"
       transform="scale(0.79051783,1.2649936)"><tspan
         sodipodi:role="line"
         id="tspan4251"
         x="615.92657"
         y="349.54526">选择年份</tspan></text>
    <text
       xml:space="preserve"
       style="font-style:normal;font-weight:normal;font-size:14.35581207px;line-height:125%;font-family:Sans;letter-spacing:0px;word-spacing:0px;fill:#000000;fill-opacity:1;stroke:none;stroke-width:1px;stroke-linecap:butt;stroke-linejoin:miter;stroke-opacity:1"
       x="731.45667"
       y="336.55667"
       id="text4253"
       sodipodi:linespacing="125%"
       transform="scale(0.79051783,1.2649936)"><tspan
         sodipodi:role="line"
         id="tspan4255"
         x="731.45667"
         y="336.55667">自动生成不同颜色标识同期数据</tspan></text>
    <path
       style="opacity:1;fill:#000000;fill-opacity:1;stroke:#000000;stroke-width:0.23926355;stroke-linecap:round;stroke-linejoin:round;stroke-miterlimit:4;stroke-dasharray:none;stroke-opacity:1"
       id="path4257"
       d="m 665.89234,434.03366 c 0.0965,2.91001 -0.61201,5.59579 -1.39878,8.15374 -1.7071,4.09948 -4.51929,6.35087 -7.23764,8.40496 -2.40817,1.6984 -4.90006,2.83573 -7.49226,3.50963 -2.62834,0.5477 -5.28343,0.56275 -7.92923,0.59074 -3.44439,0.004 -6.88878,-0.0198 -10.33317,-0.0318 -4.94572,-0.0117 -9.89145,-0.0175 -14.8372,-0.0155 -4.36719,2.9e-4 -8.7344,0.004 -13.1016,0.01 -3.16896,0.004 -6.3379,0.004 -9.50686,0.005 -2.82469,9.1e-4 -5.6494,0.002 -8.47409,9.1e-4 -2.56554,0.002 -5.13107,9.6e-4 -7.69662,0.004 -1.94163,0.002 -3.88326,0.003 -5.8249,0.004 -1.32946,0.002 -2.65892,0.004 -3.98838,0.004 -1.05789,0.0281 -2.09562,0.0716 -3.13311,-0.27872 0,0 2.204,-2.4581 2.204,-2.4581 l 0,0 c 1.02555,0.30612 2.05982,0.2086 3.09929,0.21373 1.32698,9.1e-4 2.65395,0.002 3.98091,0.004 1.93858,0.002 3.87719,0.003 5.8158,0.005 2.56334,0.003 5.12671,0.002 7.69008,0.004 2.82414,-9e-4 5.64826,2.5e-4 8.47239,9.1e-4 3.1655,0.002 6.331,9.1e-4 9.49649,0.005 4.3612,0.004 8.7224,0.01 13.0836,0.0109 4.94867,0.004 9.89736,2.8e-4 14.84606,0.005 3.4519,0.002 6.9038,0.0129 10.3557,9.5e-4 2.63831,-0.0325 5.28707,-0.0582 7.90502,-0.64584 2.57796,-0.70802 5.06007,-1.88265 7.44909,-3.60873 0.35466,-0.27893 1.34341,-1.28382 1.06393,-0.83677 -0.36163,0.57848 -0.85494,0.91128 -1.32099,1.24797 -0.32533,0.23504 0.61009,-0.59686 0.89527,-0.94043 0.5008,-0.60333 1.09191,-1.51326 1.5053,-2.27249 0.20661,-0.3795 0.38771,-0.79273 0.58157,-1.1891 0.80035,-2.46827 1.53344,-5.11912 1.43454,-7.95875 0,0 2.39579,-1.9534 2.39579,-1.9534 z"
       inkscape:connector-curvature="0" />
    <path
       style="opacity:1;fill:#000000;fill-opacity:1;stroke:#000000;stroke-width:0.23926355;stroke-linecap:round;stroke-linejoin:round;stroke-miterlimit:4;stroke-dasharray:none;stroke-opacity:1"
       id="path4261"
       d="m 575.69943,448.0228 c -1.32904,1.01927 -2.76303,1.5273 -4.17815,2.12237 -1.3476,0.70404 -2.74888,1.11732 -4.10414,1.76609 -0.35301,0.2393 -0.73882,0.30292 -1.09946,0.49934 -0.15397,0.0839 -0.58809,0.44128 -0.4481,0.30885 3.18672,-3.01498 2.10345,-2.10803 1.39863,-0.80119 -0.90553,1.48624 -2.16185,2.21011 -3.28653,3.20423 -0.11638,0.10285 -0.46605,0.40974 -0.35052,0.30451 2.13356,-1.9432 2.65385,-2.69553 1.95736,-1.71579 0.54981,0.0798 1.16842,0.14014 1.74298,0.16534 1.07268,0.0278 2.14555,0.0172 3.21831,0.0131 1.08637,0.33648 2.1931,0.84094 3.22628,1.49449 0.84992,0.5434 1.74517,0.81472 2.53332,1.58285 0.67093,0.63572 1.27093,1.48071 1.80458,2.38884 0.61044,1.04936 1.05317,2.28962 1.54027,3.47973 0.39067,1.02774 0.84431,2.02577 1.38423,2.86783 0,0 -2.29601,2.24919 -2.29601,2.24919 l 0,0 c -0.53501,-0.89201 -1.01498,-1.88279 -1.40837,-2.94654 -0.47522,-1.17119 -0.91183,-2.38773 -1.51625,-3.41052 -0.52601,-0.86913 -1.10415,-1.68703 -1.76351,-2.28652 -0.79143,-0.69786 -1.67565,-0.97467 -2.50608,-1.52754 -1.0215,-0.59529 -2.08955,-1.16604 -3.16906,-1.367 -1.07512,0.004 -2.15047,0.0153 -3.2254,-0.0233 -0.66329,-0.0395 -1.6747,0.16391 -2.02983,-0.92982 0.0221,-0.10482 0.009,-0.25385 0.0663,-0.31438 0.82351,-0.86176 1.68734,-1.62085 2.53837,-2.41124 0.11587,-0.10766 0.47482,-0.3957 0.36127,-0.28185 -0.63556,0.63729 -1.28782,1.23109 -1.92903,1.85382 -0.22017,0.21382 0.9035,-0.79237 0.63171,-0.71191 0.17827,-0.33769 0.28693,-0.79372 0.51867,-1.03427 1.53504,-1.5933 2.59085,-2.64032 4.2301,-3.26613 1.36849,-0.58494 2.74534,-1.11204 4.10451,-1.75496 1.42028,-0.58453 2.83394,-1.1881 4.17638,-2.15673 0,0 -2.12279,2.63906 -2.12279,2.63906 z"
       inkscape:connector-curvature="0" />
    <path
       style="opacity:1;fill:#000000;fill-opacity:1;stroke:#000000;stroke-width:0.23926355;stroke-linecap:round;stroke-linejoin:round;stroke-miterlimit:4;stroke-dasharray:none;stroke-opacity:1"
       id="path4263"
       d="m 364.62343,435.71946 c 3.84882,0.026 7.69766,0.0365 11.54649,0.0467 9.15035,0.0225 18.30073,0.0264 27.45109,0.0261 8.43744,-9.6e-4 16.87486,-0.008 25.31229,-0.0255 3.63147,-0.01 1.90281,-0.004 5.18594,-0.0163 0,0 -2.12212,2.46723 -2.12212,2.46723 l 0,0 c -3.26425,-0.0118 -1.54491,-0.007 -5.15803,-0.0163 -8.42272,-0.018 -16.84545,-0.0245 -25.26818,-0.0257 -9.16529,-2.9e-4 -18.33058,0.004 -27.49585,0.0261 -3.87566,0.0109 -7.75132,0.0208 -11.62696,0.0467 0,0 2.17533,-2.52908 2.17533,-2.52908 z"
       inkscape:connector-curvature="0" />
    <path
       style="opacity:1;fill:#000000;fill-opacity:1;stroke:#000000;stroke-width:0.23926355;stroke-linecap:round;stroke-linejoin:round;stroke-miterlimit:4;stroke-dasharray:none;stroke-opacity:1"
       id="path4265"
       d="m 438.49015,420.13658 c 0.64825,2.9786 1.52656,5.80917 2.64133,8.40624 1.5311,2.89246 3.50379,5.01737 5.30108,7.44019 0.16895,0.23078 2.25446,2.62599 1.62302,3.26654 -0.86258,0.87503 -1.7959,1.55727 -2.69385,2.33591 -2.48701,0.24671 -4.98411,0.15257 -7.47485,0.14125 -2.48733,-0.0122 -4.97467,-0.0206 -7.46202,-0.0236 0,0 2.15404,-2.50309 2.15404,-2.50309 l 0,0 c 2.48207,0.0157 4.96415,0.0317 7.44623,0.0418 2.48498,0.004 4.99344,0.15753 7.46518,-0.28377 -0.63886,0.65617 -1.29346,1.27469 -1.91661,1.96854 -0.0609,0.0678 0.18067,0.0269 0.21727,-0.0764 0.0375,-0.10548 -0.0257,-0.24588 -0.0668,-0.34785 -0.37994,-0.94391 -1.06535,-1.49557 -1.55269,-2.25943 -1.81483,-2.44509 -3.80043,-4.60518 -5.33481,-7.54173 -1.12791,-2.63139 -2.01866,-5.48854 -2.70125,-8.48947 0,0 2.35466,-2.07516 2.35466,-2.07516 z"
       inkscape:connector-curvature="0" />
    <path
       style="opacity:1;fill:#000000;fill-opacity:1;stroke:#000000;stroke-width:0.23926355;stroke-linecap:round;stroke-linejoin:round;stroke-miterlimit:4;stroke-dasharray:none;stroke-opacity:1"
       id="path4267"
       d="m 355.72794,439.97807 c -2.75401,-0.0172 -5.50807,-0.0208 -8.2621,-0.0263 -5.59886,-0.01 -11.19771,-0.0154 -16.79657,-0.0202 -7.09573,-0.005 -14.19145,-0.008 -21.28717,-9.6e-4 -5.07401,0.004 -10.14803,0.0111 -15.22203,0.025 -2.31882,0.007 -4.63764,0.0117 -6.95646,0.0153 -1.55391,0.002 -3.10781,9e-4 -4.66171,0.002 -0.8819,9.1e-4 -0.44719,6e-4 -1.30413,9.5e-4 0,0 2.16861,-2.52126 2.16861,-2.52126 l 0,0 c 0.85552,9.2e-4 0.42155,3e-4 1.3019,9.6e-4 1.55247,0.002 3.10493,6e-4 4.6574,0.002 2.31006,0.004 4.62012,0.009 6.93017,0.0153 5.05968,0.014 10.11936,0.02 15.17903,0.025 7.09651,0.007 14.19301,0.004 21.28951,-9.5e-4 5.61048,-0.004 11.22093,-0.0109 16.8314,-0.0202 2.76916,-0.005 5.53833,-0.01 8.30749,-0.0263 0,0 -2.17534,2.52909 -2.17534,2.52909 z"
       inkscape:connector-curvature="0" />
    <path
       style="opacity:1;fill:#000000;fill-opacity:1;stroke:#000000;stroke-width:0.23926355;stroke-linecap:round;stroke-linejoin:round;stroke-miterlimit:4;stroke-dasharray:none;stroke-opacity:1"
       id="path4269"
       d="m 283.74631,428.11815 c -2.27219,0.7599 -4.59042,1.06551 -6.89026,1.54233 -1.27167,0.52107 -2.64665,0.5559 -3.88212,1.30989 -0.19668,0.12003 -0.74932,0.61396 -0.56513,0.45089 0.62112,-0.54989 1.25086,-1.07445 1.8763,-1.61167 -0.82771,1.3552 0.0825,2.97765 0.57285,4.23617 1.20686,2.96768 2.46844,5.84607 3.9342,8.50265 1.43836,2.41472 3.09004,4.44748 4.70576,6.53968 1.23259,1.49153 2.48983,2.9558 3.90127,3.98201 0,0 -2.23521,2.36716 -2.23521,2.36716 l 0,0 c -1.41325,-1.08392 -2.68732,-2.5534 -3.92594,-4.0805 -1.62627,-2.10583 -3.28596,-4.15949 -4.72391,-6.60561 -1.4748,-2.67506 -2.74155,-5.57665 -3.96629,-8.5529 -0.56272,-1.42545 -1.47281,-3.13135 -0.75535,-4.79582 0.90511,-0.88296 1.79658,-1.8028 2.71533,-2.64891 1.32498,-1.2202 3.05194,-0.96823 4.47895,-1.63795 2.30177,-0.4766 4.62619,-0.77084 6.8916,-1.60623 0,0 -2.13205,2.60881 -2.13205,2.60881 z"
       inkscape:connector-curvature="0" />
    <path
       style="opacity:1;fill:#000000;fill-opacity:1;stroke:#000000;stroke-width:0.23926355;stroke-linecap:round;stroke-linejoin:round;stroke-miterlimit:4;stroke-dasharray:none;stroke-opacity:1"
       id="path4271"
       d="m 281.1233,469.48892 c -0.007,2.69932 -0.009,5.39867 -0.0104,8.09801 -0.003,4.08563 -0.004,8.17127 -0.004,12.25691 6e-5,4.04148 7.9e-4,8.08295 0.002,12.12444 0.002,3.1948 0.003,6.38959 0.005,9.58439 5.7e-4,2.71868 5.7e-4,5.43736 4e-5,8.15603 -0.0224,2.975 0.054,5.95294 -0.0622,8.92338 -0.19322,3.11399 -0.3374,6.23269 -0.41591,9.3593 -0.0586,2.69974 -0.0611,5.40134 -0.0646,8.10235 -0.002,2.71593 3.8e-4,5.43186 7.8e-4,8.14778 7.6e-4,3.08692 -5.6e-4,6.17385 -0.002,9.26077 7.7e-4,3.31345 5.8e-4,6.6269 5.8e-4,9.94035 0.0392,2.70882 -0.22472,5.39611 -0.38122,8.08712 -0.11753,2.09634 -0.13796,4.202 -0.15131,6.3053 -0.0402,1.77669 0.0641,3.56509 -0.0586,5.33385 -0.20203,1.4901 -0.34249,2.99045 -0.41668,4.51003 -0.0921,1.66087 -0.004,3.33555 -0.12461,4.9905 -0.0265,0.17956 -0.053,0.3591 -0.0795,0.53866 0,0 -2.42969,1.84991 -2.42969,1.84991 l 0,0 c 0.0331,-0.1635 0.0663,-0.327 0.0995,-0.49053 0.16682,-1.63736 0.0338,-3.31477 0.13309,-4.9662 0.066,-1.52669 0.18228,-3.04265 0.40903,-4.53229 0.17139,-1.74397 0.0204,-3.53055 0.0772,-5.28998 0.0131,-2.11437 0.0309,-4.23153 0.14433,-6.33938 0.15588,-2.68271 0.42965,-5.35992 0.40206,-8.05951 -10e-6,-3.3137 -2e-4,-6.62739 3.7e-4,-9.94108 -7.9e-4,-3.08532 -0.003,-6.17062 -0.004,-9.25593 -0.002,-2.7155 -0.003,-5.43099 -0.004,-8.14648 0.002,-2.70703 0.01,-5.41455 0.0641,-8.12041 0.0783,-3.13026 0.21406,-6.25366 0.41402,-9.37051 0.13149,-2.95967 0.0432,-5.92979 0.0671,-8.89533 -5.8e-4,-2.7187 -5.8e-4,-5.43739 2e-5,-8.15608 0.002,-3.19745 0.003,-6.3949 0.005,-9.59234 7.8e-4,-4.04266 0.002,-8.08532 0.002,-12.12797 1.8e-4,-4.08357 -7.6e-4,-8.16715 -0.004,-12.25072 -0.002,-2.69364 -0.003,-5.38732 -0.0104,-8.08094 0,0 2.39579,-1.9534 2.39579,-1.9534 z"
       inkscape:connector-curvature="0" />
    <path
       style="opacity:1;fill:#000000;fill-opacity:1;stroke:#000000;stroke-width:0.23926355;stroke-linecap:round;stroke-linejoin:round;stroke-miterlimit:4;stroke-dasharray:none;stroke-opacity:1"
       id="path4273"
       d="m 286.25131,471.0428 c 1.36395,-0.34171 2.73998,-0.52304 4.11767,-0.64075 1.17087,-0.0865 2.3432,-0.092 3.51507,-0.0956 0.9135,-0.0918 1.7087,0.22013 1.92294,1.75028 0.0302,2.95098 -0.0439,5.90899 -0.0677,8.86196 -0.0387,5.7813 -0.0439,11.56302 -0.0454,17.34462 -0.002,5.08547 0.002,10.17097 0.004,15.25644 0.002,4.35312 0.002,8.70623 0.003,13.05936 1.5e-4,3.96382 0.002,7.92765 7.8e-4,11.89147 -0.002,4.34125 -0.002,8.68249 -0.002,13.02374 -1.9e-4,4.23332 0.002,8.46665 0.003,12.69996 7.9e-4,3.11985 0.006,6.23969 0.006,9.35953 1.9e-4,2.42027 0.002,4.84054 0.003,7.26081 0.0624,1.75266 -0.0171,3.45448 -0.22995,5.17021 -0.2013,1.54742 -0.25387,3.12684 -0.28852,4.70195 -0.0274,1.7137 -0.0242,3.42816 -0.0236,5.14228 -0.002,1.46923 0.005,2.93844 0.006,4.40765 -0.019,1.40943 0.0488,2.82462 -0.0566,4.22606 -0.30277,2.03377 -0.53355,1.0222 -2.66868,2.39049 0,0 2.33338,-2.15504 2.33338,-2.15504 l 0,0 c -3.96405,3.91826 -2.41292,3.26081 -2.07619,1.66063 0.14964,-1.37321 0.0422,-2.77844 0.0715,-4.1677 -5.7e-4,-1.47075 0.003,-2.94147 -2e-4,-4.41223 -7.5e-4,-1.7182 -0.004,-3.43669 0.019,-5.15459 0.0302,-1.59444 0.0736,-3.19464 0.26713,-4.76393 0.2134,-1.69546 0.34114,-3.35989 0.2595,-5.09909 0.002,-2.42183 0.002,-4.84365 0.003,-7.2655 1.9e-4,-3.12285 0.005,-6.24569 0.006,-9.36855 0.002,-4.23489 0.003,-8.46981 0.003,-12.70473 -5.7e-4,-4.3398 -7.5e-4,-8.67961 -0.002,-13.01939 -7.8e-4,-3.96435 8e-4,-7.92869 8e-4,-11.89304 0.002,-4.3544 5.5e-4,-8.70881 0.002,-13.06322 3.7e-4,-5.08852 0.004,-10.17704 0.007,-15.26556 0.006,-5.78018 0.009,-11.56042 0.0345,-17.34048 0.0167,-2.91915 0.052,-5.83897 0.0565,-8.75773 -0.12078,-1.35807 -1.01313,-1.27541 -1.71828,-1.25193 -1.16806,0.005 -2.33663,0.0149 -3.50346,0.11042 -1.37493,0.12819 -2.74867,0.31809 -4.1076,0.68731 0,0 2.14879,-2.58605 2.14879,-2.58605 z"
       inkscape:connector-curvature="0" />
    <path
       style="opacity:1;fill:#000000;fill-opacity:1;stroke:#000000;stroke-width:0.23926355;stroke-linecap:round;stroke-linejoin:round;stroke-miterlimit:4;stroke-dasharray:none;stroke-opacity:1"
       id="path4275"
       d="m 280.32011,516.14237 c 1.63103,0.009 3.26208,0.009 4.89311,0.01 2.05551,0.002 4.11101,0.002 6.16652,-8.9e-4 1.09486,-0.002 0.56093,-9.2e-4 1.60184,-0.003 0,0 -2.16513,2.51723 -2.16513,2.51723 l 0,0 c -1.03788,-0.002 -0.50549,-9.2e-4 -1.59715,-0.003 -2.05495,-0.003 -4.1099,-0.003 -6.16485,-9.2e-4 -1.63655,9.6e-4 -3.27312,0.002 -4.90967,0.01 0,0 2.17533,-2.52908 2.17533,-2.52908 z"
       inkscape:connector-curvature="0" />
    <path
       style="opacity:1;fill:#000000;fill-opacity:1;stroke:#000000;stroke-width:0.23926355;stroke-linecap:round;stroke-linejoin:round;stroke-miterlimit:4;stroke-dasharray:none;stroke-opacity:1"
       id="path4277"
       d="m 278.67262,573.81959 c 1.74402,-0.80902 3.55182,-1.07902 5.35551,-1.27484 2.25757,-0.17679 4.51858,-0.18482 6.77833,-0.19419 1.67513,-0.003 3.35026,9.1e-4 5.02539,0.002 0.21251,1.6e-4 0.42502,3e-4 0.63753,6e-4 0,0 -2.16869,2.52071 -2.16869,2.52071 l 0,0 c -0.2121,-6e-4 -0.4242,-9.6e-4 -0.6363,-0.002 -1.67157,-0.007 -3.34314,-0.0149 -5.01472,-0.0129 -2.25626,0.01 -4.51423,0.0138 -6.76763,0.21796 -1.79836,0.21518 -3.60395,0.50674 -5.33222,1.38127 0,0 2.1228,-2.63906 2.1228,-2.63906 z"
       inkscape:connector-curvature="0" />
    <path
       style="opacity:1;fill:#000000;fill-opacity:1;stroke:#000000;stroke-width:0.23926355;stroke-linecap:round;stroke-linejoin:round;stroke-miterlimit:4;stroke-dasharray:none;stroke-opacity:1"
       id="path4279"
       d="m 324.89619,420.19746 c -0.009,2.9565 -0.0103,5.91303 -0.0127,8.86955 -7.6e-4,4.17651 -7.9e-4,8.35304 -0.002,12.52955 3.8e-4,4.66992 -0.002,9.33984 -0.002,14.00977 -3.7e-4,5.29493 -0.002,10.58986 -0.003,15.88482 -0.004,6.17309 -0.002,12.34618 -0.002,18.51926 7.8e-4,5.73626 0.003,11.47251 0.004,17.20877 -7.5e-4,5.65044 -7.8e-4,11.3009 -0.002,16.95135 1.3e-4,5.59314 0.002,11.18628 0.002,16.77942 0.002,4.98484 7.9e-4,9.96967 0.003,14.9545 0.002,3.80881 0.005,7.61761 0.008,11.42641 0.0179,3.03788 -0.25072,6.05592 -0.38667,9.08232 -0.11624,2.96565 -0.13763,5.9378 -0.14986,8.90832 -0.006,2.06253 -0.002,4.1251 1.9e-4,6.18764 0.002,1.73524 0.002,3.47049 0.002,5.20572 1.9e-4,1.43674 1.7e-4,2.87348 1.7e-4,4.31021 0,0 -2.3912,1.94967 -2.3912,1.94967 l 0,0 c -2e-5,-1.43669 -3e-5,-2.87337 -1.9e-4,-4.31006 -1.9e-4,-1.73537 -7.5e-4,-3.47072 -0.002,-5.20609 -7.5e-4,-2.0658 -0.002,-4.13161 0.006,-6.19739 0.0156,-2.9793 0.0365,-5.96002 0.14577,-8.93507 0.12999,-3.01931 0.40359,-6.0277 0.39658,-9.0567 0.003,-3.81293 0.006,-7.62586 0.008,-11.43877 0.002,-4.98635 5.7e-4,-9.97269 0.003,-14.95903 7.5e-4,-5.59445 0.002,-11.18888 0.002,-16.78331 -7.9e-4,-5.64926 -0.002,-11.29851 -0.002,-16.94776 7.8e-4,-5.73842 0.003,-11.47683 0.004,-17.21526 -3.7e-4,-6.17166 7.8e-4,-12.34333 -0.002,-18.515 -0.002,-5.29307 -0.003,-10.58612 -0.003,-15.87919 -7.9e-4,-4.66857 -0.003,-9.33714 -0.002,-14.00571 -0.002,-4.17523 -0.002,-8.35047 -0.002,-12.5257 -0.002,-2.94961 -0.004,-5.89925 -0.0127,-8.84884 0,0 2.39578,-1.9534 2.39578,-1.9534 z"
       inkscape:connector-curvature="0" />
    <path
       style="opacity:1;fill:#000000;fill-opacity:1;stroke:#000000;stroke-width:0.23926355;stroke-linecap:round;stroke-linejoin:round;stroke-miterlimit:4;stroke-dasharray:none;stroke-opacity:1"
       id="path4281"
       d="m 327.93959,416.69572 c 1.88795,0.0131 3.77592,0.009 5.66388,0.009 1.71786,-0.002 3.43571,-9.7e-4 5.15357,-0.003 1.23238,0.0892 2.48431,-0.17848 3.70653,0.12169 1.03652,0.5939 1.27892,2.40718 1.59859,3.91987 0.90652,4.31245 1.27922,8.80308 1.64683,13.29225 0.64098,5.83122 0.98464,11.71394 1.1691,17.62193 0.15367,6.07162 0.15593,12.14943 0.16454,18.22496 3.8e-4,5.40787 -0.003,10.81573 -0.005,16.22359 -0.002,5.36536 -0.004,10.73072 -0.007,16.09606 -0.049,6.03388 -0.009,12.05904 0.30393,18.07414 0.35385,5.3342 0.58118,10.68398 0.70035,16.04386 0.0636,4.71217 0.0583,9.41847 0.23957,14.12372 0.18693,4.39087 0.29583,8.78851 0.35158,13.18826 0.0369,3.25591 0.0428,6.51247 0.0438,9.76883 7.9e-4,2.43605 -3.8e-4,4.87208 1.9e-4,7.30813 5.7e-4,1.87459 7.8e-4,3.74918 7.8e-4,5.62377 1.5e-4,1.72872 1.5e-4,3.45743 1.6e-4,5.18614 0,1.7272 -1e-5,3.45441 -1e-5,5.18162 0.002,1.6599 -0.003,3.31982 0.002,4.97969 0,0 -2.39509,1.95282 -2.39509,1.95282 l 0,0 c 0.005,-1.66093 3.8e-4,-3.32191 0.002,-4.98285 -1e-5,-1.72721 -2e-5,-3.4544 -3e-5,-5.1816 -2e-5,-1.72879 -6e-5,-3.45761 1.4e-4,-5.18641 3.9e-4,-1.87573 7.9e-4,-3.75146 0.002,-5.62717 0.002,-2.43771 0.004,-4.87541 0.006,-7.3131 3.7e-4,-3.25687 0.002,-6.51392 -0.0303,-9.77047 -0.0534,-4.39577 -0.14869,-8.79031 -0.34077,-13.17686 -0.18607,-4.70975 -0.18395,-9.41934 -0.23965,-14.13677 -0.11444,-5.35593 -0.33016,-10.70298 -0.68531,-16.03301 -0.31884,-6.02501 -0.36393,-12.06054 -0.31469,-18.10508 -0.002,-5.36342 -0.004,-10.72683 -7.5e-4,-16.09025 0.004,-5.40927 0.0116,-10.81855 0.0114,-16.22783 -0.002,-6.07065 -0.006,-12.14353 -0.15423,-18.21046 -0.18313,-5.89564 -0.51844,-11.76893 -1.165,-17.58647 -0.37137,-4.45591 -0.73046,-8.92028 -1.65236,-13.19281 -0.2868,-1.34675 -0.48407,-3.08593 -1.44685,-3.5082 -1.2198,-0.20603 -2.45437,-0.0167 -3.67885,-0.0852 -1.71601,-0.002 -3.43202,-0.002 -5.14802,-0.003 -1.89275,-2.6e-4 -3.7855,-0.004 -5.67823,0.009 0,0 2.17355,-2.52702 2.17355,-2.52702 z"
       inkscape:connector-curvature="0" />
    <path
       style="opacity:1;fill:#000000;fill-opacity:1;stroke:#000000;stroke-width:0.23926355;stroke-linecap:round;stroke-linejoin:round;stroke-miterlimit:4;stroke-dasharray:none;stroke-opacity:1"
       id="path4283"
       d="m 325.71421,473.76902 c 1.63188,0.009 3.26377,0.009 4.89566,0.009 1.73653,-3.2e-4 3.47306,-3.2e-4 5.2096,-0.002 1.32396,-0.002 2.64793,-0.003 3.97189,-0.004 0,0 -2.1701,2.52301 -2.1701,2.52301 l 0,0 c -1.32175,-9.2e-4 -2.6435,-0.002 -3.96524,-0.004 -1.7357,-9.6e-4 -3.4714,-9.2e-4 -5.20711,-0.002 -1.63667,-6e-4 -3.27336,-6e-4 -4.91004,0.009 0,0 2.17534,-2.52907 2.17534,-2.52907 z"
       inkscape:connector-curvature="0" />
    <path
       style="opacity:1;fill:#000000;fill-opacity:1;stroke:#000000;stroke-width:0.23926355;stroke-linecap:round;stroke-linejoin:round;stroke-miterlimit:4;stroke-dasharray:none;stroke-opacity:1"
       id="path4285"
       d="m 329.56082,559.38153 c 3.01054,0.0194 6.02114,0.0225 9.03172,0.0273 3.84651,0.005 7.69302,-9.1e-4 11.53953,-0.0126 0.38282,-9.6e-4 0.76565,-0.003 1.14848,-0.004 0,0 -2.15452,2.50489 -2.15452,2.50489 l 0,0 c -0.38072,-9.6e-4 -0.76144,-0.002 -1.14215,-0.004 -3.8393,-0.0117 -7.6786,-0.018 -11.51791,-0.0126 -3.02625,0.004 -6.0525,0.008 -9.07872,0.0273 0,0 2.17357,-2.52703 2.17357,-2.52703 z"
       inkscape:connector-curvature="0" />
    <path
       style="opacity:1;fill:#000000;fill-opacity:1;stroke:#000000;stroke-width:0.23926355;stroke-linecap:round;stroke-linejoin:round;stroke-miterlimit:4;stroke-dasharray:none;stroke-opacity:1"
       id="path4287"
       d="m 388.12368,481.5956 c -0.0199,4.96693 -0.0236,9.93403 -0.0283,14.90107 -0.007,8.115 -0.006,16.23002 -0.003,24.34502 0.006,6.44605 0.008,12.89212 0.01,19.33818 0.002,5.35826 0.002,10.71652 0.006,16.07478 0.002,3.79129 0.006,7.5826 0.007,11.3739 0.002,2.44838 0.005,4.89675 0.006,7.34514 7.9e-4,1.7746 7.9e-4,3.54919 7.9e-4,5.32379 2e-5,1.72114 0,3.44229 -2e-5,5.16343 -2e-5,1.72829 -2e-5,3.45657 -2e-5,5.18486 0,1.72958 0,3.45916 0,5.18874 0,1.15303 0,2.30608 0,3.45912 0,0 -2.39119,1.94963 -2.39119,1.94963 l 0,0 c 0,-1.15304 0,-2.30607 0,-3.4591 0,-1.72958 0,-3.45916 0,-5.18873 0,-1.72829 0,-3.45657 -2e-5,-5.18484 -1e-5,-1.72114 -5e-5,-3.44227 -2e-5,-5.16341 8e-5,-1.77524 1.8e-4,-3.55049 8e-4,-5.32573 0.002,-2.45173 0.005,-4.90344 0.006,-7.35517 7.9e-4,-3.79516 0.006,-7.59031 0.007,-11.38547 0.004,-5.36119 0.004,-10.72238 0.006,-16.08357 0.002,-6.45115 0.003,-12.90229 0.01,-19.35345 0.002,-8.11332 0.004,-16.22664 -0.003,-24.33996 -0.005,-4.95162 -0.009,-9.90331 -0.0283,-14.85483 0,0 2.3958,-1.9534 2.3958,-1.9534 z"
       inkscape:connector-curvature="0" />
    <path
       style="opacity:1;fill:#000000;fill-opacity:1;stroke:#000000;stroke-width:0.23926355;stroke-linecap:round;stroke-linejoin:round;stroke-miterlimit:4;stroke-dasharray:none;stroke-opacity:1"
       id="path4289"
       d="m 392.18414,480.68711 c 1.44174,0.008 2.88348,0.005 4.32523,0.007 1.83573,0.002 3.67149,0.003 5.50723,0.002 1.41022,-0.002 2.82045,-0.004 4.23067,-0.004 1.06056,-0.0944 1.9662,-0.0858 2.58281,1.43761 0.74144,2.72488 1.21909,5.59751 1.69735,8.46264 0.71846,5.45919 1.64757,10.83996 2.65917,16.17671 0.93271,5.25572 1.76292,10.56821 2.35796,15.94988 0.51612,5.69025 1.14753,11.35329 1.65963,17.04457 0.54274,5.03832 0.87595,10.11804 1.05189,15.22015 0.12022,4.19075 0.12484,8.38684 0.12875,12.58109 -8e-5,3.61051 -0.005,7.22102 -0.006,10.83153 -0.002,3.37763 -0.002,6.75526 -7.8e-4,10.1329 -1.1e-4,2.81221 0.002,5.62443 0.004,8.43664 7.7e-4,2.14502 7.9e-4,4.29005 0.002,6.43506 0.0414,1.58847 -0.1613,3.14324 -0.52015,4.61504 -0.28658,1.21678 -0.65279,2.38808 -1.0385,3.53258 -0.87532,3.44308 -0.71082,2.59201 -3.41653,4.88042 -0.51467,-0.8022 -0.79394,-2.03241 -1.12263,-3.04015 0,0 2.31583,-2.12178 2.31583,-2.12178 l 0,0 c 0.21132,0.62771 0.55765,2.15308 0.96428,2.57743 -4.73805,4.56533 -2.06039,2.42253 -1.64355,1.34646 0.22616,-0.58382 0.24854,-1.27844 0.45033,-1.87899 0.37532,-1.14337 0.76946,-2.27992 1.05127,-3.49037 0.36416,-1.42462 0.61764,-2.91417 0.57083,-4.47287 7.9e-4,-2.14606 7.9e-4,-4.29214 0.002,-6.4382 0.002,-2.81426 0.004,-5.62851 0.004,-8.44277 7.8e-4,-3.37858 0.002,-6.75717 0.004,-10.13575 0.002,-3.6113 0.008,-7.22259 0.0106,-10.83389 -7.6e-4,-4.18945 -0.002,-8.38069 -0.11487,-12.56708 -0.16881,-5.09302 -0.48752,-10.16603 -1.03211,-15.19459 -0.50535,-5.688 -1.14077,-11.34536 -1.65835,-17.03036 -0.58635,-5.36806 -1.41622,-10.66493 -2.33842,-15.90862 -1.01536,-5.33757 -1.94904,-10.72026 -2.67331,-16.17995 -0.47684,-2.81755 -0.96215,-5.63382 -1.68831,-8.31607 -0.55739,-1.35424 -1.52121,-1.1005 -2.43129,-1.08674 -1.40731,-9.6e-4 -2.81463,-0.003 -4.22194,-0.004 -1.83658,-9.5e-4 -3.67316,-3.1e-4 -5.50975,0.002 -1.44568,0.002 -2.89139,-9.6e-4 -4.33706,0.007 0,0 2.17533,-2.52909 2.17533,-2.52909 z"
       inkscape:connector-curvature="0" />
    <path
       style="opacity:1;fill:#000000;fill-opacity:1;stroke:#000000;stroke-width:0.23926355;stroke-linecap:round;stroke-linejoin:round;stroke-miterlimit:4;stroke-dasharray:none;stroke-opacity:1"
       id="path4291"
       d="m 391.64374,529.11381 c 1.98968,0.0123 3.97938,0.0123 5.96907,0.013 1.99324,-3e-4 3.98648,-0.003 5.97972,-0.007 1.26192,-0.002 2.52384,-0.004 3.78576,-0.004 0,0 -2.17064,2.52364 -2.17064,2.52364 l 0,0 c -1.25962,-6e-4 -2.51924,-0.002 -3.77887,-0.004 -1.98967,-0.003 -3.97936,-0.005 -5.96904,-0.005 -1.99711,6.1e-4 -3.99423,6.1e-4 -5.99133,0.0129 0,0 2.17533,-2.52909 2.17533,-2.52909 z"
       inkscape:connector-curvature="0" />
    <path
       style="opacity:1;fill:#000000;fill-opacity:1;stroke:#000000;stroke-width:0.23926355;stroke-linecap:round;stroke-linejoin:round;stroke-miterlimit:4;stroke-dasharray:none;stroke-opacity:1"
       id="path4293"
       d="m 387.38425,549.00438 c 3.21018,0.0231 6.42041,0.0239 9.63063,0.0278 4.41259,0.004 8.82518,9e-4 13.23776,-0.003 2.50649,-0.007 5.013,-0.005 7.51948,-0.021 0,0 -2.16735,2.51981 -2.16735,2.51981 l 0,0 c -2.49444,-0.0157 -4.98891,-0.0146 -7.48336,-0.021 -4.41069,-0.004 -8.82138,-0.008 -13.23207,-0.003 -3.22622,0.004 -6.45245,0.004 -9.67866,0.0278 0,0 2.17357,-2.52701 2.17357,-2.52701 z"
       inkscape:connector-curvature="0" />
    <path
       style="opacity:1;fill:#000000;fill-opacity:1;stroke:#000000;stroke-width:0.23926355;stroke-linecap:round;stroke-linejoin:round;stroke-miterlimit:4;stroke-dasharray:none;stroke-opacity:1"
       id="path4295"
       d="m 448.10776,505.04842 c -0.0167,4.39899 -0.0175,8.79812 -0.0209,13.19717 -0.003,6.45265 -0.003,12.90531 -0.004,19.35797 0.002,6.39099 -0.002,12.782 0.005,19.17301 0.002,4.55288 0.007,9.10576 0.009,13.65864 0.003,3.50376 0.002,7.00755 0.002,10.51131 0,2.84063 0.003,5.68126 0.006,8.52188 0.002,1.84621 0.002,3.69241 0.002,5.53861 1.2e-4,1.71955 6e-5,3.43908 4e-5,5.15862 0.002,0.77635 0,0.43575 0.005,1.02182 0,0 -2.40051,1.95726 -2.40051,1.95726 l 0,0 c 0.005,-0.59152 0.002,-0.24839 0.005,-1.02939 -2e-5,-1.71956 -5e-5,-3.43913 6e-5,-5.1587 1.9e-4,-1.84742 0,-3.69484 0.002,-5.54227 0.002,-2.84393 0.007,-5.68787 0.006,-8.5318 8e-5,-3.50466 -0.002,-7.00931 0.002,-10.51395 0.002,-4.55784 0.006,-9.11568 0.009,-13.67351 0.006,-6.39341 0.003,-12.78681 0.005,-19.18022 0,-6.4505 -0.002,-12.901 -0.004,-19.3515 -0.003,-4.38773 -0.004,-8.77551 -0.0209,-13.16314 0,0 2.39383,-1.95181 2.39383,-1.95181 z"
       inkscape:connector-curvature="0" />
    <path
       style="opacity:1;fill:#000000;fill-opacity:1;stroke:#000000;stroke-width:0.23926355;stroke-linecap:round;stroke-linejoin:round;stroke-miterlimit:4;stroke-dasharray:none;stroke-opacity:1"
       id="path4297"
       d="m 452.23296,506.63101 c 1.6553,0.0116 3.31063,0.007 4.96594,0.004 1.14608,-0.18089 2.2463,0.24849 3.36522,0.54606 0.98189,0.29851 1.99183,0.14053 2.96996,0.43436 0.89047,0.20314 1.72171,0.68334 2.57703,1.0956 0.85126,0.23208 1.53404,1.04088 2.01519,2.16073 0.70632,1.30221 0.87172,3.01623 1.15537,4.62572 0.91657,4.4485 1.72718,8.94486 2.48076,13.47012 1.06066,6.26183 1.70016,12.67998 2.44368,19.0519 0.60743,4.74572 0.68692,9.58762 0.93763,14.39603 0.28708,3.96864 0.32489,7.96626 0.52392,11.94428 0.22211,3.34323 0.38893,6.69234 0.47539,10.05144 0.0635,2.52532 0.11417,5.04156 -0.0794,7.55306 -0.10461,1.79031 -0.30877,3.53025 -0.58927,5.26728 -0.16987,1.44473 -0.54785,2.7982 -1.00179,4.06711 -0.42169,1.21072 -0.89978,2.37432 -1.1966,3.6817 -0.32725,1.23046 -0.53024,2.50332 -1.16602,3.41956 -2.72226,2.38882 -1.64308,2.6365 -2.97809,2.16355 0,0 2.19262,-2.49585 2.19262,-2.49585 l 0,0 c 1.07606,-0.0848 0.37854,-0.10482 -1.7123,1.92571 0.7388,-0.75264 0.88131,-1.97077 1.23114,-3.18653 0.26598,-1.35934 0.74409,-2.53097 1.1723,-3.76953 0.48703,-1.19247 0.85861,-2.55321 1.03574,-3.95097 0.2738,-1.72851 0.52444,-3.43764 0.6103,-5.22522 0.2095,-2.49164 0.17034,-4.98535 0.10716,-7.49496 -0.0812,-3.35596 -0.23821,-6.70304 -0.46187,-10.04273 -0.20653,-3.9774 -0.23259,-7.97691 -0.52094,-11.94592 -0.24986,-4.7985 -0.31265,-9.63242 -0.9101,-14.37135 -0.73089,-6.36534 -1.36608,-12.7761 -2.42977,-19.02621 -0.75959,-4.51577 -1.57792,-9.00186 -2.51271,-13.43381 -0.28419,-1.56072 -0.43929,-3.22661 -1.12456,-4.49211 -0.46375,-1.05774 -1.12377,-1.68326 -1.91831,-1.92064 -0.84196,-0.42606 -1.67721,-0.84099 -2.55487,-1.0479 -0.98503,-0.21548 -1.99027,-0.13014 -2.97076,-0.43732 -1.10592,-0.30858 -2.19951,-0.65213 -3.33141,-0.49575 -1.65808,-0.002 -3.31616,-0.007 -4.97422,0.004 0,0 2.17357,-2.52701 2.17357,-2.52701 z"
       inkscape:connector-curvature="0" />
    <path
       style="opacity:1;fill:#000000;fill-opacity:1;stroke:#000000;stroke-width:0.23926355;stroke-linecap:round;stroke-linejoin:round;stroke-miterlimit:4;stroke-dasharray:none;stroke-opacity:1"
       id="path4299"
       d="m 447.36931,542.95104 c 2.0257,0.0127 4.05145,0.0118 6.07717,0.01 1.96375,-0.002 3.92749,-0.002 5.89123,-0.002 1.82007,-0.002 3.64015,-6.1e-4 5.46022,-0.002 1.38305,-0.003 2.76613,0.005 4.14916,-0.009 0.23819,-0.007 0.10952,-0.0651 0.20678,0.55008 0,0 -2.49723,1.63761 -2.49723,1.63761 l 0,0 c 0.25427,0.3884 0.33148,0.34981 0.11355,0.3432 -1.37803,-0.0149 -2.75611,-0.004 -4.13415,-0.009 -1.81902,-9.5e-4 -3.63805,1.7e-4 -5.45707,-0.002 -1.96294,6e-4 -3.92587,9.1e-4 -5.8888,-0.002 -2.03148,-0.002 -4.06297,-0.003 -6.09443,0.01 0,0 2.17357,-2.52702 2.17357,-2.52702 z"
       inkscape:connector-curvature="0" />
    <path
       style="opacity:1;fill:#000000;fill-opacity:1;stroke:#000000;stroke-width:0.23926355;stroke-linecap:round;stroke-linejoin:round;stroke-miterlimit:4;stroke-dasharray:none;stroke-opacity:1"
       id="path4301"
       d="m 448.9396,568.16056 c 2.30331,0.53011 4.63639,0.57568 6.95863,0.65943 3.8805,0.10253 7.76169,0.1022 11.64261,0.10198 2.53758,0.0226 5.03529,0.79627 7.54137,1.33885 0.24549,0.0451 0.49099,0.0901 0.7365,0.13514 0,0 -2.18408,2.47657 -2.18408,2.47657 l 0,0 c -0.2455,-0.0484 -0.49102,-0.0969 -0.73652,-0.14521 -2.4878,-0.56431 -4.97066,-1.3208 -7.49284,-1.32288 -3.88349,-0.01 -7.76724,-0.009 -11.65036,-0.10417 -2.34175,-0.0814 -4.69407,-0.12757 -7.0163,-0.66862 0,0 2.20099,-2.47109 2.20099,-2.47109 z"
       inkscape:connector-curvature="0" />
    <path
       style="opacity:1;fill:#000000;fill-opacity:1;stroke:#000000;stroke-width:0.23926355;stroke-linecap:round;stroke-linejoin:round;stroke-miterlimit:4;stroke-dasharray:none;stroke-opacity:1"
       id="path4303"
       d="m 492.72924,603.27021 c 0.0183,-4.85623 0.0208,-9.71262 0.0256,-14.56895 0.003,-7.54491 0.003,-15.08981 0.006,-22.63473 0,-7.85554 -0.002,-15.71108 -1.4e-4,-23.56662 0.18364,-7.46059 -0.4249,-14.85347 -0.96101,-22.2417 -0.31533,-5.0425 -0.78227,-10.05382 -1.03943,-15.10586 -0.19576,-3.70043 -0.11779,-7.41734 -0.24976,-11.12095 -0.131,-4.04577 -0.38662,-8.06959 -0.65173,-12.09674 -0.19445,-2.81068 -0.30434,-5.63183 -0.3512,-8.4578 -0.0262,-1.98136 -0.0242,-3.96329 -0.023,-5.94497 0.002,-1.73839 0.003,-3.47678 0.004,-5.21517 0,-1.72613 0,-3.45227 0,-5.17841 0.0711,-1.43856 0.27991,-2.82618 0.71763,-4.0901 0.86596,-2.44803 2.67245,-3.42511 4.26257,-4.32402 1.00863,-0.55804 2.07048,-0.72645 3.12848,-0.83295 1.08558,-0.0816 2.17277,-0.0739 3.25928,-0.0728 1.08178,0.003 2.16356,0.007 3.24534,0.009 1.08079,0.002 2.16157,0.002 3.24237,0.002 1.08079,5e-5 2.16159,0 3.24238,-2e-5 1.01507,-0.005 2.02307,-0.27485 2.83334,0.86202 0.9779,1.61584 1.46389,3.96306 1.99026,6.01537 1.23226,5.30779 2.46293,10.6092 3.4871,16.03072 0.9159,4.75896 1.81735,9.52467 2.66685,14.31515 0.79243,3.63545 1.22915,7.42923 1.78968,11.16511 0.71207,3.3778 1.0299,6.88702 1.37633,10.39058 0.38142,3.26863 0.51994,6.58642 0.59617,9.90349 -0.0163,3.43268 0.10957,6.84287 0.2973,10.25968 0.1961,3.45019 0.24395,6.91425 0.27475,10.37626 0.0256,3.56364 0.0227,7.12762 0.0216,10.69142 0.002,3.27426 -0.002,6.54854 0,9.82279 0,2.81957 0,5.63916 0.002,8.45874 0.002,2.24019 0.002,4.48038 0.002,6.72057 -0.002,2.1317 1.2e-4,4.26342 0,6.39512 0,1.78928 0,3.57859 0.002,5.36787 8e-5,1.72704 6e-5,3.45405 6e-5,5.18106 -2e-5,1.72845 -2e-5,3.45687 -2e-5,5.1853 0,1.7295 0,3.459 0,5.18849 0.0517,1.57693 -0.0592,3.13162 -0.36758,4.631 0,0 -2.43633,1.81619 -2.43633,1.81619 l 0,0 c 0.36542,-1.42212 0.44959,-2.97116 0.41274,-4.49754 0,-1.72951 0,-3.459 0,-5.18849 0,-1.72843 0,-3.45686 -10e-6,-5.18528 0,-1.72705 -3e-5,-3.45409 5e-5,-5.18114 1e-4,-1.78982 0,-3.57963 0.002,-5.36945 0,-2.13221 0.002,-4.26442 0,-6.39664 0,-2.24142 0,-4.48286 0.002,-6.72429 0.002,-2.82092 0.002,-5.64184 0.003,-8.46276 0.002,-3.27545 0.002,-6.5509 0.005,-9.82633 0,-3.5623 0.004,-7.12469 -0.0186,-10.68686 -0.0306,-3.4515 -0.0779,-6.90525 -0.26946,-10.34536 -0.18788,-3.42386 -0.32622,-6.83992 -0.30211,-10.28023 -0.0753,-3.30107 -0.20388,-6.60386 -0.58108,-9.85782 -0.34903,-3.49177 -0.64566,-6.99777 -1.36496,-10.3625 -0.56134,-3.7307 -0.98843,-7.5229 -1.77957,-11.15444 -0.84719,-4.79141 -1.7285,-9.56639 -2.64719,-14.32403 -1.01953,-5.40784 -2.24746,-10.69402 -3.49224,-15.9781 -0.51748,-1.98218 -0.99784,-4.2576 -1.95052,-5.81098 -0.77839,-0.95922 -1.80299,-0.55759 -2.72504,-0.62047 -1.0808,2e-5 -2.16161,6e-5 -3.24241,0 -1.08083,-1.4e-4 -2.16166,-3.1e-4 -3.24252,-0.002 -1.0817,-0.002 -2.16341,-0.005 -3.24515,-0.009 -1.08289,8.9e-4 -2.16677,-0.004 -3.24822,0.0971 -1.048,0.1288 -2.09461,0.34052 -3.08736,0.92569 -1.01669,0.55552 -2.32388,1.81048 1.09152,-1.3684 0.38294,-0.35641 -1.0788,1.09479 -0.77565,1.31303 -0.49699,1.15348 -0.66901,2.50652 -0.78594,3.87875 -10e-6,1.72621 0,3.4524 0,5.17861 0,1.7387 -0.002,3.47738 -0.005,5.21608 -0.002,1.97975 -0.007,3.95968 0.0146,5.93923 0.0408,2.81918 0.13949,5.63488 0.32695,8.43975 0.26164,4.03324 0.5225,8.06169 0.6587,12.11248 0.14254,3.70101 0.0587,7.41614 0.24447,11.11573 0.24464,5.05461 0.70015,10.06907 1.01053,15.11317 0.52733,7.40677 1.14512,14.81685 0.96272,22.29444 0.002,7.85562 0,15.71123 -1.4e-4,23.56685 0.002,7.54205 0.002,15.0841 0.006,22.62614 0.005,4.84242 0.007,9.68491 0.0256,14.52726 0,0 -2.39383,1.9518 -2.39383,1.9518 z"
       inkscape:connector-curvature="0" />
    <path
       style="opacity:1;fill:#000000;fill-opacity:1;stroke:#000000;stroke-width:0.23926355;stroke-linecap:round;stroke-linejoin:round;stroke-miterlimit:4;stroke-dasharray:none;stroke-opacity:1"
       id="path4305"
       d="m 495.95491,503.30337 c 2.42308,0.92135 4.91892,1.15871 7.39749,1.37206 3.17712,0.45313 6.33243,1.18912 9.51327,1.60063 1.96108,0.37385 3.95226,0.12918 5.91043,0.4871 1.02884,0.0856 1.95001,0.80549 2.93153,1.20873 0.6613,0.67142 1.51349,0.63975 2.16728,1.28087 0.17374,0.39874 0.12353,0.17432 0.14159,0.67828 0,0 -2.45042,1.80523 -2.45042,1.80523 l 0,0 c 0.1483,0.003 0.13693,0.0514 0.0533,-0.12881 -0.67445,-0.51271 -1.45865,-0.63281 -2.12619,-1.20067 -0.9627,-0.43259 -1.88481,-1.08345 -2.90003,-1.16078 -1.95473,-0.29439 -3.93169,-0.14267 -5.88583,-0.50397 -3.17646,-0.43022 -6.329,-1.17558 -9.50498,-1.59549 -2.49693,-0.22045 -5.001,-0.49958 -7.44848,-1.37209 0,0 2.201,-2.47109 2.201,-2.47109 z"
       inkscape:connector-curvature="0" />
    <path
       style="opacity:1;fill:#000000;fill-opacity:1;stroke:#000000;stroke-width:0.23926355;stroke-linecap:round;stroke-linejoin:round;stroke-miterlimit:4;stroke-dasharray:none;stroke-opacity:1"
       id="path4307"
       d="m 496.4825,563.7043 c 2.67583,0.02 5.35172,0.0193 8.02759,0.0208 3.29398,0.004 6.58798,9e-5 9.88197,-0.004 1.77523,-0.004 3.55046,-0.009 5.32572,-0.0118 0.57255,-9.2e-4 1.1451,-9.6e-4 1.71765,-0.002 0,0 -2.17086,2.52389 -2.17086,2.52389 l 0,0 c -0.57172,-2.9e-4 -1.14346,-6.1e-4 -1.71518,-0.002 -1.76843,-0.003 -3.53688,-0.009 -5.30532,-0.0119 -3.29117,-0.004 -6.58233,-0.01 -9.87348,-0.004 -2.68783,0.002 -5.37564,9.1e-4 -8.06343,0.0207 0,0 2.17534,-2.52908 2.17534,-2.52908 z"
       inkscape:connector-curvature="0" />
    <path
       style="opacity:1;fill:#000000;fill-opacity:1;stroke:#000000;stroke-width:0.23926355;stroke-linecap:round;stroke-linejoin:round;stroke-miterlimit:4;stroke-dasharray:none;stroke-opacity:1"
       id="path4309"
       d="m 241.67366,248.10974 c -0.008,2.31199 -0.005,4.62404 -0.006,6.93605 -0.002,2.69008 -7.9e-4,5.38015 7.9e-4,8.07022 0.002,1.94975 0.002,3.89952 0.003,5.84928 0.0362,1.68416 -0.0735,3.38382 0.0574,5.05842 0.26475,1.4194 1.1496,1.54089 1.94582,1.67766 1.90246,0.12974 3.80826,0.0847 5.71204,0.0767 2.9646,-0.0117 5.92921,-0.0159 8.8938,-0.0174 3.54816,-8.8e-4 7.09631,-1.7e-4 10.64446,9.5e-4 3.64796,-2.7e-4 7.29593,-2.3e-4 10.94389,-0.002 3.09742,0.002 6.19483,-0.004 9.29225,-0.008 2.43831,4e-4 4.8766,-0.003 7.3149,-0.002 2.52319,9.4e-4 5.04639,3.4e-4 7.56958,0.002 2.68399,-0.002 5.36796,2.9e-4 8.05194,9.5e-4 2.74323,9.7e-4 5.48645,9.7e-4 8.22968,-0.003 2.16034,-0.003 4.32068,-0.003 6.48102,-0.003 2.40343,3e-5 4.80686,0.004 7.21028,0.004 2.67656,0.002 5.35313,0.002 8.0297,-0.002 1.2173,-0.004 2.43459,-0.004 3.65187,-0.005 0,0 -2.16371,2.51558 -2.16371,2.51558 l 0,0 c -1.21389,-0.002 -2.42778,-0.003 -3.64166,-0.005 -2.67528,-0.004 -5.35055,-0.004 -8.02583,-0.002 -2.40585,3.9e-4 -4.8117,0.004 -7.21755,0.004 -2.15894,5e-5 -4.31788,2.5e-4 -6.47683,-0.003 -2.74146,-0.004 -5.48294,-0.004 -8.22441,-0.003 -2.68458,7.7e-4 -5.36916,0.003 -8.05375,9.6e-4 -2.52446,0.002 -5.04892,9.6e-4 -7.57338,0.002 -2.43746,9.5e-4 -4.87491,-0.002 -7.31236,-0.002 -3.09309,-0.004 -6.18618,-0.01 -9.27926,-0.008 -3.64702,-9.6e-4 -7.29403,-0.002 -10.94106,-0.002 -3.55035,9.6e-4 -7.10071,0.002 -10.65107,0.007 -2.9683,0.005 -5.93658,0.0109 -8.90485,0.0314 -1.91682,0.01 -3.83771,0.0804 -5.75202,-0.0984 -0.92374,-0.21297 -1.82222,-0.56397 -2.1298,-2.15696 -0.1553,-1.68892 -0.0343,-3.40953 -0.0719,-5.1121 4.2e-4,-1.95133 0.002,-3.90266 0.003,-5.85398 0.002,-2.69069 0.003,-5.38137 7.9e-4,-8.07204 -0.002,-2.30848 7.9e-4,-4.61697 -0.006,-6.92542 0,0 2.39578,-1.95341 2.39578,-1.95341 z"
       inkscape:connector-curvature="0" />
    <path
       style="opacity:1;fill:#000000;fill-opacity:1;stroke:#000000;stroke-width:0.23926355;stroke-linecap:round;stroke-linejoin:round;stroke-miterlimit:4;stroke-dasharray:none;stroke-opacity:1"
       id="path4311"
       d="m 239.78966,246.33648 c 2.11036,0.01 4.22073,0.0137 6.33109,0.0206 5.10215,0.012 10.20433,0.0174 15.30649,0.0231 6.34802,0.005 12.69605,0.002 19.04408,-0.004 4.93861,-0.0693 9.87991,0.12503 14.8168,-0.11982 3.71661,-0.0745 7.38328,-0.93353 11.03369,-1.96222 2.6393,-0.79085 5.31233,-1.16318 7.99205,-1.33089 2.22091,0.0318 4.42155,-0.19893 6.59929,-0.89579 1.88389,-0.61838 3.80349,-0.75437 5.71955,-0.85013 2.03657,-0.0736 4.07384,-0.0719 6.11081,-0.0734 1.42948,0.003 2.85896,0.004 4.28843,0.004 1.11292,6.1e-4 2.22584,6.1e-4 3.33876,6.1e-4 1.01141,-0.0348 2.01297,-0.10394 2.95414,0.56089 0.68221,0.78871 0.97998,2.06509 1.36407,3.2074 0.5069,1.40461 0.61037,2.98673 0.68003,4.57123 0.099,2.86037 0.32606,5.70511 0.44895,8.56485 0.11249,3.24387 0.13283,6.49318 0.1455,9.74119 0.008,2.3697 0.008,4.73944 0.008,7.10918 0.007,4.15786 0.367,2.88199 -2.57521,5.57625 -0.36364,-0.10318 -0.17227,-0.0537 -0.57438,-0.14581 0,0 2.19582,-2.49036 2.19582,-2.49036 l 0,0 c 0.37674,0.0556 0.20452,0.0635 0.51686,0.008 -4.73137,4.6593 -2.05893,2.91836 -1.95661,1.51532 0.0604,-0.82797 -0.0439,-1.6854 0.004,-2.51513 0.003,-2.37172 0.008,-4.74346 0.004,-7.1152 -0.0105,-3.24013 -0.025,-6.48188 -0.13749,-9.71794 -0.11976,-2.85841 -0.34778,-5.69994 -0.45859,-8.55653 -0.0637,-1.52319 -0.14479,-3.05233 -0.6329,-4.40434 -0.35321,-1.04974 -0.61421,-2.27309 -1.26558,-2.95487 -0.93298,-0.54617 -1.91191,-0.44215 -2.89149,-0.42915 -1.11233,-2.1e-4 -2.22466,-6e-4 -3.33698,-0.003 -1.42728,-0.004 -2.85454,-0.01 -4.28182,-0.0127 -2.0332,-0.004 -4.06678,-0.009 -6.09945,0.078 -1.91058,0.10875 -3.82271,0.28025 -5.69932,0.9101 -2.1848,0.65537 -4.39275,0.83275 -6.61402,0.83353 -2.66917,0.18577 -5.33086,0.57218 -7.95976,1.36263 -3.65211,1.02303 -7.32496,1.8199 -11.04091,1.89485 -4.93233,0.218 -9.86801,0.0297 -14.80171,0.087 -6.3461,-0.005 -12.6922,-0.009 -19.03829,-0.004 -5.11551,0.005 -10.231,0.0112 -15.34649,0.0231 -2.12215,0.007 -4.24431,0.0111 -6.36646,0.0205 0,0 2.17533,-2.52907 2.17533,-2.52907 z"
       inkscape:connector-curvature="0" />
    <path
       style="opacity:1;fill:#000000;fill-opacity:1;stroke:#000000;stroke-width:0.23926355;stroke-linecap:round;stroke-linejoin:round;stroke-miterlimit:4;stroke-dasharray:none;stroke-opacity:1"
       id="path4313"
       d="m 317.38532,250.78124 c 0.27583,3.5299 0.34579,7.089 0.40904,10.64143 0.0569,4.07208 0.0622,8.14533 0.0691,12.21822 0.0426,2.09421 -0.0716,4.20113 0.064,6.28737 0,0 -2.37632,1.99039 -2.37632,1.99039 l 0,0 c -0.15237,-2.10264 -0.0214,-4.22908 -0.0613,-6.3419 7.5e-4,-4.07108 -0.003,-8.14261 -0.0597,-12.21286 -0.0617,-3.53113 -0.12791,-7.07138 -0.42087,-10.57681 0,0 2.37614,-2.00584 2.37614,-2.00584 z"
       inkscape:connector-curvature="0" />
    <path
       style="opacity:1;fill:#000000;fill-opacity:1;stroke:#000000;stroke-width:0.23926355;stroke-linecap:round;stroke-linejoin:round;stroke-miterlimit:4;stroke-dasharray:none;stroke-opacity:1"
       id="path4315"
       d="m 321.87323,258.37699 c 0.80424,2.16777 1.61392,4.33829 2.58657,6.32476 0.83162,1.2795 1.6476,2.59369 2.51413,3.81316 0.10566,0.17565 0.21132,0.35129 0.31696,0.52694 0,0 -2.29309,2.24078 -2.29309,2.24078 l 0,0 c -0.1019,-0.16699 -0.2038,-0.33397 -0.30571,-0.50096 -0.86828,-1.25235 -1.70695,-2.56267 -2.53203,-3.88657 -0.97134,-2.00169 -1.77895,-4.18511 -2.60445,-6.34493 0,0 2.31762,-2.17318 2.31762,-2.17318 z"
       inkscape:connector-curvature="0" />
    <path
       style="opacity:1;fill:#000000;fill-opacity:1;stroke:#000000;stroke-width:0.23926355;stroke-linecap:round;stroke-linejoin:round;stroke-miterlimit:4;stroke-dasharray:none;stroke-opacity:1"
       id="path4317"
       d="m 323.01219,251.52506 c 1.36959,0.009 2.73921,0.005 4.10881,0.004 1.17028,-9.1e-4 2.34056,-0.002 3.51085,-0.002 1.08195,-1.8e-4 2.16392,-1.7e-4 3.24587,-1.7e-4 1.08821,-0.15021 1.75916,0.51364 2.14704,2.10585 0.25758,1.5447 0.27802,3.13307 0.0994,4.69736 -0.36831,1.80668 -1.09181,3.32348 -1.71571,4.91357 -0.5899,1.32106 -1.14772,2.67549 -1.7212,4.01435 -0.40117,1.21651 -0.89948,2.33168 -1.40251,3.44256 -0.42063,1.32983 -1.12021,2.11897 -1.88494,2.88627 0,0 -2.5079,1.54689 -2.5079,1.54689 l 0,0 c 0.76789,-0.69495 1.5284,-1.40311 1.92641,-2.72665 0.50825,-1.10219 1.02988,-2.19338 1.40776,-3.42785 0.55813,-1.3525 1.12921,-2.6926 1.72861,-4.00068 0.59681,-1.58113 1.323,-3.04031 1.75266,-4.77132 0.19573,-1.49254 0.20212,-2.99297 -0.0317,-4.48425 -0.34183,-1.48928 -1.00862,-1.78386 -1.96916,-1.67184 -1.08185,0 -2.16371,0 -3.24556,-2e-4 -1.16923,-2.7e-4 -2.33846,-9e-4 -3.50769,-0.002 -1.37214,-9.1e-4 -2.7443,-0.004 -4.11644,0.004 0,0 2.17533,-2.52909 2.17533,-2.52909 z"
       inkscape:connector-curvature="0" />
    <path
       style="opacity:1;fill:#000000;fill-opacity:1;stroke:#000000;stroke-width:0.23926355;stroke-linecap:round;stroke-linejoin:round;stroke-miterlimit:4;stroke-dasharray:none;stroke-opacity:1"
       id="path4319"
       d="m 242.21408,282.70023 c -0.17651,3.99185 0.18084,7.87623 0.67621,11.77458 0.60331,5.3689 1.45319,10.64497 2.49676,15.8345 0.73398,4.14314 1.68345,8.17013 2.27577,12.37499 0.35196,3.08864 0.66841,6.18543 1.03253,9.27025 0.41169,2.79256 0.75349,5.60957 1.24352,8.3708 0.4449,2.18628 0.66236,4.47131 1.13606,6.64147 0.32494,1.55511 0.68883,3.08432 1.02058,4.6351 0.29694,1.46054 0.63551,2.60024 1.53271,3.25395 1.10222,0.53449 2.27396,0.46062 3.41344,0.47684 2.64071,0.01 5.28145,-0.002 7.92216,-0.008 3.5441,-0.005 7.0882,-0.004 10.63229,-0.004 3.23598,-0.002 6.47194,-0.004 9.70791,-0.009 2.26829,-0.003 4.53658,-0.004 6.80487,-0.004 2.17491,2.3e-4 4.34981,1.2e-4 6.52472,9e-5 1.75594,-9.2e-4 3.51189,-0.004 5.26782,-0.005 1.17063,-0.002 2.34126,-0.003 3.51189,-0.003 0.44448,-0.1629 0.91826,-0.21274 1.35542,-0.42769 0.13153,-0.0648 0.49848,-0.37041 0.37953,-0.2597 -2.51589,2.34168 -2.53498,2.39606 -1.68301,1.39884 0.81962,-0.7988 1.55909,-1.72457 2.13752,-2.95369 1.0522,-2.94264 1.67764,-6.17659 2.12784,-9.46965 0.46713,-4.17532 0.48921,-8.43024 0.52366,-12.65836 0.0189,-4.31187 0.008,-8.6239 5.6e-4,-12.93583 -0.006,-3.26388 -0.0108,-6.52774 -0.0156,-9.79162 0.0601,-1.85167 -0.0143,-3.64911 -0.23804,-5.4618 -0.0866,-1.44041 -0.40334,-2.79197 -0.602,-4.19417 -0.16524,-1.31643 -0.19991,-2.66021 -0.22923,-3.99815 0,0 2.38765,-1.96277 2.38765,-1.96277 l 0,0 c 0.0257,1.31284 0.0544,2.63158 0.20817,3.92552 0.19274,1.40875 0.52315,2.75785 0.60451,4.20374 0.22796,1.84159 0.32895,3.6602 0.25244,5.54397 -0.002,3.26782 -0.003,6.53563 1.6e-4,9.80345 0.005,4.31475 0.0171,8.62962 -0.002,12.94432 -0.0326,4.25052 -0.0459,8.52571 -0.4933,12.72859 -0.43841,3.33589 -1.06586,6.58435 -2.06588,9.61077 -0.52568,1.30599 -1.24852,2.31679 -2.09763,3.07512 -1.44921,1.79137 -2.90901,3.24395 -4.72149,3.40321 -1.16916,-2.7e-4 -2.33833,-9.2e-4 -3.50749,-0.003 -1.75245,-0.003 -3.50491,-0.005 -5.25736,-0.005 -2.17495,-4e-5 -4.34989,-1.4e-4 -6.52484,6e-5 -2.26578,3e-4 -4.53154,-0.002 -6.79731,-0.004 -3.23126,-0.004 -6.46251,-0.008 -9.69378,-0.008 -3.54673,8.9e-4 -7.09347,0.004 -10.64019,0.0147 -2.6486,0.009 -5.29718,0.0274 -7.94577,0.0289 -1.16983,-0.0203 -2.38032,0.0497 -3.49169,-0.62546 -0.91834,-0.78551 -1.32627,-1.98352 -1.64106,-3.54245 -0.32606,-1.55294 -0.69509,-3.07834 -1.01359,-4.63617 -0.47936,-2.17779 -0.69875,-4.47009 -1.13725,-6.66949 -0.49645,-2.77223 -0.83438,-5.60334 -1.25323,-8.40684 -0.36277,-3.08197 -0.68222,-6.17451 -1.02229,-9.26325 -0.57689,-4.19994 -1.52138,-8.21826 -2.25007,-12.35284 -1.04441,-5.20466 -1.89875,-10.49438 -2.50838,-15.87646 -0.50924,-3.91101 -0.88902,-7.8086 -0.7397,-11.81927 0,0 2.39579,-1.9534 2.39579,-1.9534 z"
       inkscape:connector-curvature="0" />
    <path
       style="opacity:1;fill:#000000;fill-opacity:1;stroke:#000000;stroke-width:0.23926355;stroke-linecap:round;stroke-linejoin:round;stroke-miterlimit:4;stroke-dasharray:none;stroke-opacity:1"
       id="path4321"
       d="m 250.05738,306.86985 c 1.65228,0.009 3.30457,0.008 4.95686,0.0109 2.75295,-2.5e-4 5.50589,0.007 8.25882,0.0127 4.60363,0.005 9.20727,0.01 13.8109,0.011 4.92532,0.002 9.85065,3.9e-4 14.77597,-0.004 3.44452,-0.16703 6.8794,0.21076 10.31564,0.51796 2.18723,0.0428 4.35254,0.50925 6.52545,0.85275 0.93249,0.18271 1.81454,0.61108 2.69541,1.10925 0,0 -2.22147,2.40428 -2.22147,2.40428 l 0,0 c -0.86479,-0.47882 -1.73737,-0.86735 -2.65051,-1.03606 -2.16515,-0.35572 -4.32496,-0.79094 -6.50446,-0.85382 -3.42581,-0.31544 -6.85068,-0.67594 -10.285,-0.52385 -4.92245,-0.005 -9.84487,-0.007 -14.7673,-0.004 -4.60998,9.7e-4 -9.21994,0.005 -13.82992,0.011 -2.76018,0.005 -5.52034,0.0129 -8.28052,0.0127 -1.65841,0.003 -3.31681,0.002 -4.9752,0.0109 0,0 2.17533,-2.52909 2.17533,-2.52909 z"
       inkscape:connector-curvature="0" />
    <path
       style="opacity:1;fill:#000000;fill-opacity:1;stroke:#000000;stroke-width:0.23926355;stroke-linecap:round;stroke-linejoin:round;stroke-miterlimit:4;stroke-dasharray:none;stroke-opacity:1"
       id="path4323"
       d="m 244.7057,330.09156 c 2.26372,-0.42532 4.54437,-0.5411 6.82114,-0.6284 3.88986,-0.10537 7.78057,-0.0851 11.67085,-0.0828 5.52239,0.009 11.04477,0.011 16.56716,0.008 4.18313,-0.004 8.36625,-0.007 12.54939,-0.0123 2.74478,-0.002 5.48959,-0.007 8.23438,-0.01 1.54776,-0.003 3.09549,-0.005 4.64324,-0.008 1.10085,-9.6e-4 2.20169,-9.6e-4 3.30253,-9.6e-4 1.07478,0 2.14957,3e-5 3.22434,5e-5 0.71988,1e-5 1.43976,1e-5 2.15963,1e-5 0,0 -2.17114,2.52423 -2.17114,2.52423 l 0,0 c -0.71989,10e-6 -1.43978,10e-6 -2.15967,2e-5 -1.07481,10e-6 -2.14962,6e-5 -3.22443,5e-5 -1.10016,-5e-5 -2.20033,-1e-4 -3.30051,-9.7e-4 -1.54323,-0.002 -3.08648,-0.004 -4.62973,-0.008 -2.73892,-0.003 -5.47784,-0.009 -8.21676,-0.01 -4.17499,-0.005 -8.34998,-0.009 -12.52498,-0.0161 -5.52423,-0.007 -11.04849,-0.0109 -16.57273,-2.9e-4 -3.89811,0.01 -7.7967,6e-4 -11.69422,0.12328 -2.27995,0.10209 -4.56585,0.21852 -6.8293,0.69967 0,0 2.15081,-2.57597 2.15081,-2.57597 z"
       inkscape:connector-curvature="0" />
    <text
       xml:space="preserve"
       style="font-style:normal;font-weight:normal;font-size:14.35581207px;line-height:125%;font-family:Sans;letter-spacing:0px;word-spacing:0px;fill:#000000;fill-opacity:1;stroke:none;stroke-width:1px;stroke-linecap:butt;stroke-linejoin:miter;stroke-opacity:1"
       x="328.12668"
       y="237.43323"
       id="text4325"
       sodipodi:linespacing="125%"
       transform="scale(0.79051783,1.2649936)"><tspan
         sodipodi:role="line"
         id="tspan4327"
         x="328.12668"
         y="237.43323">折线</tspan></text>
    <text
       xml:space="preserve"
       style="font-style:normal;font-weight:normal;font-size:14.35581207px;line-height:125%;font-family:Sans;letter-spacing:0px;word-spacing:0px;fill:#000000;fill-opacity:1;stroke:none;stroke-width:1px;stroke-linecap:butt;stroke-linejoin:miter;stroke-opacity:1"
       x="328.81027"
       y="213.50687"
       id="text4329"
       sodipodi:linespacing="125%"
       transform="scale(0.79051783,1.2649936)"><tspan
         sodipodi:role="line"
         id="tspan4331"
         x="328.81027"
         y="213.50687">柱状图</tspan></text>
    <text
       xml:space="preserve"
       style="font-style:normal;font-weight:normal;font-size:14.35581207px;line-height:125%;font-family:Sans;letter-spacing:0px;word-spacing:0px;fill:#000000;fill-opacity:1;stroke:none;stroke-width:1px;stroke-linecap:butt;stroke-linejoin:miter;stroke-opacity:1"
       x="327.44302"
       y="257.25793"
       id="text4333"
       sodipodi:linespacing="125%"
       transform="scale(0.79051783,1.2649936)"><tspan
         sodipodi:role="line"
         id="tspan4335"
         x="327.44302"
         y="257.25793">面积图</tspan></text>
    <text
       xml:space="preserve"
       style="font-style:normal;font-weight:normal;font-size:14.35581207px;line-height:125%;font-family:Sans;letter-spacing:0px;word-spacing:0px;fill:#000000;fill-opacity:1;stroke:none;stroke-width:1px;stroke-linecap:butt;stroke-linejoin:miter;stroke-opacity:1"
       x="541.41302"
       y="174.54112"
       id="text4337"
       sodipodi:linespacing="125%"
       transform="scale(0.79051783,1.2649936)"><tspan
         sodipodi:role="line"
         id="tspan4339"
         x="541.41302"
         y="174.54112">（最近一个月）</tspan></text>
    <text
       xml:space="preserve"
       style="font-style:normal;font-weight:normal;font-size:14.35581207px;line-height:125%;font-family:Sans;letter-spacing:0px;word-spacing:0px;fill:#000000;fill-opacity:1;stroke:none;stroke-width:1px;stroke-linecap:butt;stroke-linejoin:miter;stroke-opacity:1"
       x="615.92657"
       y="253.83989"
       id="text4341"
       sodipodi:linespacing="125%"
       transform="scale(0.79051783,1.2649936)"><tspan
         sodipodi:role="line"
         id="tspan4343"
         x="615.92657"
         y="253.83989">最近6个月</tspan></text>
    <text
       xml:space="preserve"
       style="font-style:normal;font-weight:normal;font-size:14.35581207px;line-height:125%;font-family:Sans;letter-spacing:0px;word-spacing:0px;fill:#000000;fill-opacity:1;stroke:none;stroke-width:1px;stroke-linecap:butt;stroke-linejoin:miter;stroke-opacity:1"
       x="677.45142"
       y="170.43944"
       id="text4345"
       sodipodi:linespacing="125%"
       transform="scale(0.79051783,1.2649936)"><tspan
         sodipodi:role="line"
         id="tspan4347"
         x="677.45142"
         y="170.43944">最近1年</tspan></text>
    <ellipse
       style="opacity:1;fill:#ffffff;fill-opacity:1;stroke:#000000;stroke-width:0.23926355;stroke-linecap:round;stroke-linejoin:round;stroke-miterlimit:4;stroke-dasharray:none;stroke-opacity:1"
       id="path4357"
       cx="109.9677"
       cy="612.05518"
       rx="35.396591"
       ry="56.641941" />
    <path
       style="opacity:1;fill:#000000;fill-opacity:1;stroke:#000000;stroke-width:0.23926355;stroke-linecap:round;stroke-linejoin:round;stroke-miterlimit:4;stroke-dasharray:none;stroke-opacity:1"
       id="path4359"
       d="m 108.19376,611.67992 c 1.26491,-4.1326 2.79309,-8.03876 4.32088,-11.93114 1.37784,-3.70593 2.87688,-7.26516 4.50474,-10.69876 1.11889,-2.29305 2.64362,-3.88824 3.94489,-5.88769 1.38005,-2.24761 2.45678,-4.89338 3.65806,-7.37308 1.00942,-2.01305 1.96055,-4.07595 2.8469,-6.22908 0.11639,-0.22727 0.23279,-0.45453 0.34911,-0.68179 0,0 2.47201,-1.67131 2.47201,-1.67131 l 0,0 c -0.12158,0.21151 -0.24317,0.42303 -0.36474,0.63456 -0.91179,2.13691 -1.81212,4.27295 -2.85129,6.26688 -1.22219,2.46272 -2.27707,5.14004 -3.64024,7.42317 -1.28682,2.02814 -2.80125,3.60696 -3.96429,5.83249 -1.64215,3.42151 -3.16263,6.96 -4.53459,10.67792 -1.52598,3.8646 -3.0522,7.74806 -4.29754,11.86851 0,0 -2.4439,1.76932 -2.4439,1.76932 z"
       inkscape:connector-curvature="0" />
    <path
       style="opacity:1;fill:#000000;fill-opacity:1;stroke:#000000;stroke-width:0.23926355;stroke-linecap:round;stroke-linejoin:round;stroke-miterlimit:4;stroke-dasharray:none;stroke-opacity:1"
       id="path4361"
       d="m 112.25388,612.95251 c 1.45073,0.008 2.90156,0.007 4.35229,0.005 1.48867,-0.004 2.97727,0 4.46594,0.003 2.45607,0.003 4.91205,0.007 7.36812,0.007 2.61746,0 5.23494,-2.4e-4 7.8524,-0.004 1.79931,-0.003 3.59853,-0.004 5.39776,-0.007 1.01585,0 2.03171,-0.003 3.04764,-0.003 0,0 -2.17065,2.52361 -2.17065,2.52361 l 0,0 c -1.01428,0 -2.02857,0 -3.04284,-0.003 -1.79562,-0.003 -3.59123,-0.004 -5.38685,-0.007 -2.61503,-0.004 -5.22998,-0.004 -7.84493,-0.004 -2.46008,2.4e-4 -4.92007,0.004 -7.38006,0.007 -1.49057,0.004 -2.9812,0.008 -4.47176,0.003 -1.45412,0 -2.9083,-0.003 -4.36242,0.005 0,0 2.17536,-2.52909 2.17536,-2.52909 z"
       inkscape:connector-curvature="0" />
    <path
       style="opacity:1;fill:#000000;fill-opacity:1;stroke:#000000;stroke-width:0.23926355;stroke-linecap:round;stroke-linejoin:round;stroke-miterlimit:4;stroke-dasharray:none;stroke-opacity:1"
       id="path4363"
       d="m 109.81265,619.25806 c 0.0808,5.22667 -0.11333,10.41916 -0.48153,15.60981 -0.47989,6.81475 -1.01153,13.6197 -1.36795,20.4547 -0.3027,4.45532 -0.59622,8.91034 -0.76249,13.38466 -0.0353,1.73116 -0.11639,3.467 -0.0899,5.2004 -2.72812,1.95658 -2.4061,2.55505 -2.39621,0.039 0,0 2.39244,-1.94947 2.39244,-1.94947 l 0,0 c 0,2.66633 0.16063,1.5785 -2.40359,3.86438 0.0652,-1.74381 0.0196,-3.49764 0.11372,-5.24003 0.17421,-4.48479 0.46834,-8.95108 0.78691,-13.41502 0.35963,-6.84048 0.89655,-13.65021 1.37188,-20.47169 0.366,-5.16244 0.57021,-10.32808 0.44485,-15.52656 0,0 2.3919,-1.95021 2.3919,-1.95021 z"
       inkscape:connector-curvature="0" />
    <path
       style="opacity:1;fill:#000000;fill-opacity:1;stroke:#000000;stroke-width:0.23926355;stroke-linecap:round;stroke-linejoin:round;stroke-miterlimit:4;stroke-dasharray:none;stroke-opacity:1"
       id="path4365"
       d="m 106.06042,618.94066 c -1.60224,-0.01 -3.20456,-0.008 -4.80681,-0.008 -1.864096,0 -3.728273,-2.1e-4 -5.592373,-0.003 -2.606865,-0.005 -5.213732,-0.004 -7.820597,-0.004 -2.093834,0.003 -4.187668,0.005 -6.281501,0.01 -1.226266,0.003 -2.452612,0.003 -3.678878,0.004 -1.074916,2.7e-4 -2.149754,2.1e-4 -3.224672,1.7e-4 -0.95844,0.16826 -1.849334,0.73579 -2.76976,1.1486 -1.019074,0.65988 -2.089121,1.0597 -3.140633,1.55969 -0.72148,0.29012 -0.359405,0.15994 -1.086227,0.39087 0,0 2.137817,-2.59497 2.137817,-2.59497 l 0,0 c 0.716926,-0.2527 0.359405,-0.11314 1.072325,-0.41916 1.051354,-0.50463 2.117868,-0.92344 3.143382,-1.55862 0.924432,-0.44247 1.840223,-0.97246 2.814372,-1.0507 1.07476,-4e-5 2.149519,-10e-5 3.22428,1.8e-4 1.224066,0 2.448133,0 3.672122,0.004 2.088414,0.004 4.176829,0.008 6.265243,0.01 2.609772,0 5.219544,2e-4 7.829394,-0.004 1.865755,-0.003 3.731576,-0.004 5.597326,-0.003 1.60688,0 3.21367,0.003 4.82048,-0.008 0,0 -2.17529,2.52909 -2.17529,2.52909 z"
       inkscape:connector-curvature="0" />
    <path
       style="opacity:1;fill:#000000;fill-opacity:1;stroke:#000000;stroke-width:0.23926355;stroke-linecap:round;stroke-linejoin:round;stroke-miterlimit:4;stroke-dasharray:none;stroke-opacity:1"
       id="path4367"
       d="m 160.61281,491.92951 c -0.0133,3.27139 -0.0118,6.54288 -0.0118,9.81432 0,2.9227 0.008,5.8454 0.008,8.7681 -0.0416,1.8464 0.12143,2.05166 1.2112,2.17452 2.09846,0.0822 4.19834,0.0262 6.29729,0.007 2.36393,-0.0225 4.72795,-0.0339 7.09188,-0.0403 1.97375,-0.007 3.94749,-0.003 5.92124,-0.002 2.25798,0.003 4.51589,0.002 6.77388,-9.1e-4 1.55378,-0.0252 3.10442,0.14869 4.63991,-0.28101 0.85083,-0.36067 1.74809,-0.74902 2.55439,-1.33402 0.90582,-0.60068 1.45168,-0.99114 -1.59548,1.5295 -0.10918,0.0904 0.19831,-0.2363 0.28196,-0.38049 0.28785,-0.49653 0.4597,-1.17204 0.6354,-1.77485 0.33882,-1.63733 0.64576,-3.30133 0.84502,-4.99854 0.22432,-2.38576 0.22926,-4.80601 0.24764,-7.21308 -0.0259,-2.0684 0.18874,-4.3763 -0.51145,-6.22477 -0.55356,-0.73478 -1.40834,-0.39345 -2.07798,-0.32976 -1.45183,0.13733 -2.90689,0.13976 -4.36077,0.15086 -3.03287,0.0137 -6.06583,0.009 -9.09878,0.007 -3.35536,-0.004 -6.71081,9.5e-4 -10.06617,0.003 -2.53398,-0.13129 -5.05304,0.0857 -7.57665,0.41071 -1.74149,0.25109 -3.48731,0.38471 -5.23517,0.44022 -1.41139,-0.0939 -2.7905,0.0905 -4.18006,0.45284 -0.52889,0.20678 -1.02598,0.47187 -1.51348,0.85417 0,0 2.10396,-2.66903 2.10396,-2.66903 l 0,0 c 0.50534,-0.32731 1.0168,-0.59992 1.55449,-0.76298 1.39364,-0.34915 2.78476,-0.44683 4.19592,-0.39869 1.7415,-0.0653 3.48087,-0.20512 5.21648,-0.44895 2.52431,-0.32003 5.04565,-0.48867 7.57916,-0.37174 3.35309,0.002 6.70609,0.009 10.05918,0.005 3.03884,-0.003 6.07776,-9.1e-4 9.11653,-0.0311 1.45694,-0.0229 2.9149,-0.0393 4.36957,-0.1874 0.78298,-0.0681 1.65965,-0.3171 2.23811,0.72061 0.71897,1.9398 0.57022,4.26696 0.56896,6.44322 -0.0133,2.42529 -0.0141,4.86202 -0.21952,7.26967 -0.18089,1.73231 -0.50871,3.40542 -0.81307,5.08908 -0.76781,2.92141 -1.66397,3.85425 -3.87546,5.07714 -0.84377,0.49508 -1.7016,1.00535 -2.58785,1.25141 -1.54186,0.36504 -3.09917,0.16929 -4.65296,0.21131 -2.25719,-0.003 -4.51447,-0.004 -6.77167,-0.002 -1.97406,9.6e-4 -3.94819,0.004 -5.92233,0.004 -2.36151,0.004 -4.72301,0.01 -7.08452,0.0343 -2.1115,0.0223 -4.22521,0.10318 -6.33576,-0.021 -1.15048,-0.2566 -1.47368,-0.79515 -1.40826,-2.71763 0,-2.92628 0.008,-5.85256 0.008,-8.77884 -8e-5,-3.26498 0,-6.53001 -0.0118,-9.79494 0,0 2.39582,-1.9534 2.39582,-1.9534 z"
       inkscape:connector-curvature="0" />
    <path
       style="opacity:1;fill:#000000;fill-opacity:1;stroke:#000000;stroke-width:0.23926355;stroke-linecap:round;stroke-linejoin:round;stroke-miterlimit:4;stroke-dasharray:none;stroke-opacity:1"
       id="path4369"
       d="m 159.532,524.79047 c -0.0165,3.76401 -0.0149,7.52816 -0.0149,11.29222 0.011,3.55361 -0.16478,7.10698 0.39301,10.57539 0.34197,1.7143 1.15495,2.11818 2.17215,2.30665 1.57059,0.11916 3.14518,0.0553 4.71711,0.045 3.1898,-0.0208 6.37968,-0.021 9.56948,-0.0247 2.78044,-0.004 5.56088,-0.01 8.34133,-0.0146 1.44704,-0.004 2.89409,-0.005 4.34113,-0.008 1.07233,0.082 3.51252,-1.63396 -0.61168,1.32629 -0.11129,0.0798 0.16368,-0.29282 0.22518,-0.46135 0.0668,-0.18277 0.10399,-0.38915 0.15599,-0.58373 0.27033,-1.68043 0.22604,-3.44164 0.22714,-5.16347 -0.008,-1.88697 -0.0149,-3.77388 -0.0204,-5.66085 -0.008,-1.74352 -0.008,-3.48704 -0.008,-5.23056 -0.0754,-1.5324 -0.36106,-1.9597 -1.27213,-1.90841 -0.94493,0.12312 -1.89089,0.20946 -2.83825,0.2613 -1.36278,0.0604 -2.72633,0.0505 -4.08942,0.0499 -2.55856,-0.004 -5.1172,-0.005 -7.67576,-0.008 -2.34965,-9.6e-4 -4.69929,0.002 -7.04893,0.007 -1.30497,0.003 -2.61001,0.004 -3.91498,0.005 -0.70325,2.5e-4 -0.3667,-0.0491 -1.01082,0.12812 0,0 2.15125,-2.57301 2.15125,-2.57301 l 0,0 c 0.66548,-0.10842 0.32217,-0.0789 1.03022,-0.0787 1.30183,6.1e-4 2.60365,0.003 3.90555,0.005 2.34524,0.004 4.69049,0.009 7.03573,0.009 2.56265,-2.9e-4 5.12523,0.002 7.68787,-0.008 1.36505,-0.007 2.73049,-0.004 4.09498,-0.0751 0.9517,-0.0602 1.90071,-0.1792 2.85192,-0.24735 0.92765,0.10318 1.42451,0.96205 1.48396,2.48219 1.6e-4,1.74319 5.5e-4,3.4864 0.008,5.2296 0.008,1.88806 0.0126,3.77608 0.0188,5.66412 0,1.7652 0.0408,3.55478 -0.17938,5.29382 -0.5483,2.81109 -2.64606,4.14469 -4.37577,4.05876 -1.44265,-0.002 -2.88538,-0.004 -4.32803,-0.008 -2.77377,-0.005 -5.54745,-0.01 -8.32122,-0.009 -3.19538,0.004 -6.39075,0.0124 -9.58605,0.0466 -1.58488,0.0192 -3.17598,0.11311 -4.75772,-0.0739 -1.10359,-0.28271 -1.96157,-0.91929 -2.33244,-2.74376 -0.56401,-3.5077 -0.403,-7.09207 -0.4041,-10.68748 -8e-5,-3.75579 0,-7.51167 -0.0149,-11.26739 0,0 2.39582,-1.9534 2.39582,-1.9534 z"
       inkscape:connector-curvature="0" />
    <path
       style="opacity:1;fill:#000000;fill-opacity:1;stroke:#000000;stroke-width:0.23926355;stroke-linecap:round;stroke-linejoin:round;stroke-miterlimit:4;stroke-dasharray:none;stroke-opacity:1"
       id="path4371"
       d="m 161.15317,569.75812 c -0.008,3.89309 -0.0566,7.78644 0.0455,11.67677 0.22534,3.8601 0.62151,7.68532 0.86286,11.54287 0.18277,2.30929 0.50612,3.08243 1.92152,3.45983 2.54324,0.26952 5.09795,0.16959 7.6456,0.15711 3.78664,-0.0238 7.57335,-0.0366 11.36007,-0.0434 3.06829,-0.007 6.13659,-0.01 9.20489,-0.0177 1.37164,-0.23103 2.90296,0.49451 4.19928,-0.42013 -3.51605,3.14406 -1.93683,2.31941 -1.6035,0.6921 0.1534,-0.7488 0.16361,-1.55327 0.19196,-2.33063 0.13839,-2.83371 -0.0692,-5.60418 -0.38038,-8.38599 -0.36898,-2.74811 -0.97233,-5.38959 -1.77244,-7.88721 -0.44627,-1.44973 -0.90699,-2.9307 -1.82043,-3.72156 -0.91099,-0.54073 -1.89897,-0.51934 -2.85733,-0.54068 -1.36214,-0.002 -2.72429,0.0113 -4.08643,0.014 -2.80425,0.003 -5.60848,-0.002 -8.41272,2.4e-4 -2.50696,-0.002 -5.01384,0.004 -7.52073,0.0113 -1.26734,0.004 -2.5346,0.004 -3.80195,0.004 -1.07028,3e-4 -2.14065,2.2e-4 -3.21101,1.9e-4 0,0 2.17128,-2.52437 2.17128,-2.52437 l 0,0 c 1.07029,-3e-5 2.14049,-1.3e-4 3.21069,2.3e-4 1.26421,6e-4 2.5284,0.002 3.79269,0.005 2.50059,0.007 5.00119,0.0131 7.5018,0.0109 2.80996,-2.1e-4 5.61994,-0.004 8.42983,-0.0216 1.36694,-0.01 2.73395,-0.0342 4.10088,-0.0196 0.99238,0.0361 2.01726,0.0447 2.93714,0.71787 0.92215,0.9126 1.43502,2.39866 1.89268,3.93842 0.80937,2.53679 1.41516,5.22256 1.80009,8.00644 0.31936,2.80661 0.55074,5.59797 0.42248,8.46076 -0.10006,4.04571 -0.37378,3.84258 -3.10191,6.21515 -1.36599,0.63401 -2.83573,0.11633 -4.23644,0.27848 -3.06123,-0.008 -6.12238,-0.01 -9.1836,-0.007 -3.78837,0.008 -7.57665,0.0181 -11.36494,0.0503 -2.5672,0.0194 -5.14697,0.15919 -7.70679,-0.19052 -1.4743,-0.52735 -1.90148,-1.52857 -2.09038,-3.9369 -0.22745,-3.87074 -0.61254,-7.70893 -0.85201,-11.57742 -0.10981,-3.88663 -0.0574,-7.77627 -0.0839,-11.66607 0,0 2.39574,-1.95341 2.39574,-1.95341 z"
       inkscape:connector-curvature="0" />
    <text
       xml:space="preserve"
       style="font-style:normal;font-weight:normal;font-size:14.35581207px;line-height:125%;font-family:Sans;letter-spacing:0px;word-spacing:0px;fill:#000000;fill-opacity:1;stroke:none;stroke-width:1px;stroke-linecap:butt;stroke-linejoin:miter;stroke-opacity:1"
       x="213.28021"
       y="402.8327"
       id="text4373"
       sodipodi:linespacing="125%"
       transform="scale(0.79051783,1.2649936)"><tspan
         sodipodi:role="line"
         id="tspan4375"
         x="213.28021"
         y="402.8327">分类#1</tspan></text>
    <text
       xml:space="preserve"
       style="font-style:normal;font-weight:normal;font-size:14.35581207px;line-height:125%;font-family:Sans;letter-spacing:0px;word-spacing:0px;fill:#000000;fill-opacity:1;stroke:none;stroke-width:1px;stroke-linecap:butt;stroke-linejoin:miter;stroke-opacity:1"
       x="208.49492"
       y="432.91153"
       id="text4377"
       sodipodi:linespacing="125%"
       transform="scale(0.79051783,1.2649936)"><tspan
         sodipodi:role="line"
         id="tspan4379"
         x="208.49492"
         y="432.91153">分类#2</tspan></text>
    <text
       xml:space="preserve"
       style="font-style:normal;font-weight:normal;font-size:14.35581207px;line-height:125%;font-family:Sans;letter-spacing:0px;word-spacing:0px;fill:#000000;fill-opacity:1;stroke:none;stroke-width:1px;stroke-linecap:butt;stroke-linejoin:miter;stroke-opacity:1"
       x="210.54579"
       y="469.82651"
       id="text4381"
       sodipodi:linespacing="125%"
       transform="scale(0.79051783,1.2649936)"><tspan
         sodipodi:role="line"
         id="tspan4383"
         x="210.54579"
         y="469.82651">分类#3</tspan></text>
    <text
       xml:space="preserve"
       style="font-style:normal;font-weight:normal;font-size:60px;line-height:125%;font-family:Sans;letter-spacing:0px;word-spacing:0px;fill:#000000;fill-opacity:1;stroke:none;stroke-width:1px;stroke-linecap:butt;stroke-linejoin:miter;stroke-opacity:1"
       x="-491.42856"
       y="23.790775"
       id="text4389"
       sodipodi:linespacing="125%"><tspan
         sodipodi:role="line"
         id="tspan4391"
         x="-491.42856"
         y="23.790775" /></text>
  </g>
</svg>
