<?xml version="1.0" encoding="UTF-8" standalone="no"?>
<!-- Created with Inkscape (http://www.inkscape.org/) -->

<svg
   xmlns:dc="http://purl.org/dc/elements/1.1/"
   xmlns:cc="http://creativecommons.org/ns#"
   xmlns:rdf="http://www.w3.org/1999/02/22-rdf-syntax-ns#"
   xmlns:svg="http://www.w3.org/2000/svg"
   xmlns="http://www.w3.org/2000/svg"
   xmlns:sodipodi="http://sodipodi.sourceforge.net/DTD/sodipodi-0.dtd"
   xmlns:inkscape="http://www.inkscape.org/namespaces/inkscape"
   width="210mm"
   height="297mm"
   viewBox="0 0 744.09448819 1052.3622047"
   id="svg2"
   version="1.1"
   inkscape:version="0.91 r"
   sodipodi:docname="report-idea.svg">
  <defs
     id="defs4" />
  <sodipodi:namedview
     id="base"
     pagecolor="#ffffff"
     bordercolor="#666666"
     borderopacity="1.0"
     inkscape:pageopacity="0.0"
     inkscape:pageshadow="2"
     inkscape:zoom="0.35"
     inkscape:cx="363.9792"
     inkscape:cy="520"
     inkscape:document-units="px"
     inkscape:current-layer="layer1"
     showgrid="false"
     inkscape:window-width="1366"
     inkscape:window-height="718"
     inkscape:window-x="0"
     inkscape:window-y="0"
     inkscape:window-maximized="1" />
  <metadata
     id="metadata7">
    <rdf:RDF>
      <cc:Work
         rdf:about="">
        <dc:format>image/svg+xml</dc:format>
        <dc:type
           rdf:resource="http://purl.org/dc/dcmitype/StillImage" />
        <dc:title></dc:title>
      </cc:Work>
    </rdf:RDF>
  </metadata>
  <g
     inkscape:label="Layer 1"
     inkscape:groupmode="layer"
     id="layer1">
    <text
       xml:space="preserve"
       style="font-style:normal;font-weight:normal;font-size:60px;line-height:125%;font-family:Sans;letter-spacing:0px;word-spacing:0px;fill:#000000;fill-opacity:1;stroke:none;stroke-width:1px;stroke-linecap:butt;stroke-linejoin:miter;stroke-opacity:1"
       x="-1248.5714"
       y="26.647921"
       id="text4136"
       sodipodi:linespacing="125%"><tspan
         sodipodi:role="line"
         id="tspan4138"
         x="-1248.5714"
         y="26.647921">销售额汇总：日、月、季度，可以年</tspan><tspan
         sodipodi:role="line"
         x="-1248.5714"
         y="101.64792"
         id="tspan4142">同期相比</tspan><tspan
         sodipodi:role="line"
         x="-1248.5714"
         y="176.64792"
         id="tspan4182" /><tspan
         sodipodi:role="line"
         x="-1248.5714"
         y="257.94345"
         id="tspan4180">最畅销的宝贝前20（最近一星期）</tspan><tspan
         sodipodi:role="line"
         x="-1248.5714"
         y="339.23901"
         id="tspan4349">销售额最大的宝贝前20（最近一星期）</tspan><tspan
         sodipodi:role="line"
         x="-1248.5714"
         y="414.23901"
         id="tspan4351">基于分类的销售额统计（最近一星期，</tspan><tspan
         sodipodi:role="line"
         x="-1248.5714"
         y="495.53455"
         id="tspan4385">只列出占比大于5%的，未列出的归入</tspan><tspan
         sodipodi:role="line"
         x="-1248.5714"
         y="576.83008"
         id="tspan4387">“其它”）</tspan><tspan
         sodipodi:role="line"
         x="-1248.5714"
         y="658.12561"
         id="tspan4353" /><tspan
         sodipodi:role="line"
         x="-1248.5714"
         y="739.4212"
         id="tspan4178" /><tspan
         sodipodi:role="line"
         x="-1248.5714"
         y="820.71674"
         id="tspan4144" /><tspan
         sodipodi:role="line"
         x="-1248.5714"
         y="902.01227"
         id="tspan4140" /></text>
    <path
       style="opacity:1;fill:#000000;fill-opacity:1;stroke:#000000;stroke-width:1;stroke-linecap:round;stroke-linejoin:round;stroke-miterlimit:4;stroke-dasharray:none;stroke-opacity:1"
       id="path4146"
       d="m 1026.3333,-180.24277 c -1.5649,15.18803 -2.0383,30.45098 -2.4555,45.70435 -0.4316,19.09149 -0.4962,38.188634 -0.4918,57.284194 0,2.035725 0.01,4.07145 0.01,6.107175 0,0 -12.5444,6.389831 -12.5444,6.389831 l 0,0 c 0.01,-2.042179 0.016,-4.084358 0.024,-6.126538 0.094,-19.120701 0.1851,-38.242462 0.5676,-57.360042 0.3795,-15.19439 0.7487,-30.40856 2.2231,-45.545 0,0 12.6666,-6.45397 12.6666,-6.45397 z"
       inkscape:connector-curvature="0" />
    <path
       style="opacity:1;fill:#000000;fill-opacity:1;stroke:#000000;stroke-width:1;stroke-linecap:round;stroke-linejoin:round;stroke-miterlimit:4;stroke-dasharray:none;stroke-opacity:1"
       id="path4148"
       d="m 1039.5668,-191.81239 c 12.6701,-1.0541 25.3411,-1.99583 38.003,-3.14727 16.4556,-1.47716 32.9734,-2.01307 49.4851,-2.35576 9.7112,-0.18371 19.424,-0.22641 29.1366,-0.22913 5.2255,0.25307 8.6089,3.53192 10.9151,7.94796 1.9503,9.99295 3.7959,20.06721 5.7999,30.08397 3.4102,15.70706 6.9636,31.3837 10.4564,47.07327 3.0758,13.610009 5.3974,27.364891 8.2365,41.02164 3.481,17.02604 1.3375,14.888339 -14.934,24.383822 -9.9963,-0.19476 -19.9865,-1.051586 -29.9843,-1.481888 -16.8855,-0.58772 -33.7836,-0.652454 -50.6775,-0.711413 -15.7189,-0.03959 -31.4379,-0.026 -47.1569,-0.0013 -9.1243,-0.433619 -18.381,0.767848 -27.4605,-0.36167 0,0 11.5603,-8.20925 11.5603,-8.20925 l 0,0 c 9.0515,0.836852 18.2033,-0.03447 27.2791,0.303021 15.6984,0.01301 31.3969,0.0089 47.0953,0.05335 16.9235,0.0713 33.8509,0.126819 50.7662,0.715225 6.2977,0.272477 12.586,0.613001 18.8785,0.983479 1.5884,0.09352 6.4651,0.447228 8.3555,0.30287 0.8231,-0.06285 1.6184,-0.326473 2.4276,-0.48971 -3.3987,2.061632 -6.7419,4.217514 -10.1959,6.184894 -0.5865,0.334046 1.156,-0.743873 1.5738,-1.273895 2.9708,-3.768159 0.5775,-9.688129 0.049,-13.746472 -2.7866,-13.667706 -5.1021,-27.422231 -8.161,-41.036373 -3.499,-15.69613 -7.0051,-31.39061 -10.4864,-47.09008 -1.9964,-9.8715 -4.0367,-19.75236 -5.7637,-29.65126 -2.1204,-4.10926 -5.229,-6.65089 -10.0355,-6.67345 -9.6706,-0.013 -19.3417,0.002 -29.0112,0.17489 -16.4874,0.34147 -32.9798,0.89542 -49.407,2.42123 -12.7367,1.17439 -25.4837,2.17571 -38.2362,3.15847 0,0 11.4917,-8.34919 11.4917,-8.34919 z"
       inkscape:connector-curvature="0" />
    <path
       style="opacity:1;fill:#000000;fill-opacity:1;stroke:#000000;stroke-width:1;stroke-linecap:round;stroke-linejoin:round;stroke-miterlimit:4;stroke-dasharray:none;stroke-opacity:1"
       id="path4150"
       d="m 1252.0321,-190.63815 c 0.2248,19.87714 -0.6743,39.72602 -1.4301,59.58252 -0.8694,22.98773 -1.2419,45.989675 -1.4195,68.991877 0.5815,5.76827 -1.063,18.302633 6.8197,19.998409 8.91,-1.877429 17.5591,-4.846808 26.3006,-7.378163 21.1102,-4.727194 42.5722,-7.93721 63.948,-11.262447 20.0346,-3.227583 40.3694,-4.52978 60.2868,-8.44171 -4.5278,3.95702 13.7999,-5.85803 10.5922,-3.893248 -2.8433,1.741543 -5.6968,3.551963 -8.8212,4.716219 -1.0159,0.378544 1.626,-1.448355 2.3096,-2.289785 1.515,-1.86494 1.6715,-2.817472 2.4845,-5.003185 2.778,-9.723564 -1.2914,-18.43825 -4.8106,-27.360997 -7.0408,-16.34977 -15.1446,-32.2642 -23.508,-47.97839 -4.2065,-7.89509 -8.2804,-16.06012 -14.0676,-22.94829 -3.6533,-3.47771 -8.5842,-3.68592 -13.3523,-3.92345 -7.3628,-0.14437 -14.7285,-0.0362 -22.0922,-0.0123 -13.6786,0.0433 -27.3572,0.0262 -41.0358,0.0324 -14.145,7.4e-4 -28.2899,0.0222 -42.4349,0.0211 -10.5201,0.005 -21.0403,0.009 -31.5605,0.0199 -1.2948,0.001 -2.5896,0.003 -3.8844,0.004 0,0 11.4508,-8.3195 11.4508,-8.3195 l 0,0 c 1.2912,0.001 2.5823,0.003 3.8734,0.004 10.5012,0.0115 21.0024,0.0161 31.5036,0.0214 14.1295,-5.6e-4 28.259,0.0217 42.3884,0.0117 13.7071,-0.007 27.4142,-0.0301 41.1212,-0.10183 7.4008,-0.0468 14.8074,-0.19061 22.2057,0.0449 5.1364,0.36935 10.2218,0.99264 13.9869,4.89593 5.7518,7.04333 9.8781,15.26057 14.0614,23.28579 8.3337,15.78802 16.4332,31.75195 23.5947,48.10416 3.6899,9.18268 7.9017,18.087923 5.404,28.168395 -3.9164,13.077439 -18.5714,17.522855 -30.597,20.956557 -19.9184,3.693022 -40.1919,5.090793 -60.1913,8.311334 -21.3874,3.364156 -42.8882,6.52001 -63.963,11.499191 -8.7934,2.582182 -17.758,6.338449 -26.9477,6.817369 -8.1612,-3.297499 -7.1321,-14.439437 -7.5269,-21.665642 0.2835,-23.032384 0.6665,-46.064984 1.5183,-69.084564 0.7269,-19.78997 1.6471,-39.57666 1.1576,-59.38562 0,0 12.6356,-6.43816 12.6356,-6.43816 z"
       inkscape:connector-curvature="0" />
    <path
       style="opacity:1;fill:#000000;fill-opacity:1;stroke:#000000;stroke-width:1;stroke-linecap:round;stroke-linejoin:round;stroke-miterlimit:4;stroke-dasharray:none;stroke-opacity:1"
       id="path4152"
       d="m 1483.471,-191.32694 c -0.1017,16.07229 -0.1119,32.14508 -0.1292,48.21764 -0.011,20.69183 0,41.38364 0.032,62.075435 1.1407,9.39678 -2.5345,20.659739 2.37,29.307632 4.8978,4.181593 12.422,3.049946 18.414,3.099502 16.6547,-0.131122 33.3194,0.176869 49.9608,-0.556256 15.2666,-1.010257 30.537,-1.863513 45.8319,-2.276433 12.088,-0.890536 24.1557,-2.01299 36.2569,-2.722788 5.065,-0.515845 17.5797,-5.874373 -3.4182,3.894792 -0.6691,0.311328 1.1163,-0.982278 1.5568,-1.574484 1.0755,-1.446026 1.21,-2.468561 1.7143,-4.167978 1.2975,-9.821498 -2.638,-19.674712 -5.4334,-28.945126 -5.1529,-16.263556 -10.475,-32.476846 -16.0975,-48.584336 -4.4292,-10.86804 -6.3467,-22.93451 -11.926,-33.31069 -2.9684,-3.94708 -7.8837,-5.53925 -12.4948,-6.81886 -7.2071,-2.50547 -14.5963,-4.51976 -22.0283,-6.24776 -11.6245,-3.51909 -23.7189,-4.46261 -35.6763,-6.13275 -8.7965,-1.11651 -17.4128,-3.31167 -25.8732,-5.91189 -5.7073,-1.84778 -11.6523,-2.47433 -17.6088,-2.79308 -4.0389,-0.88924 -8.0585,-1.77254 -12.1613,-2.31325 0,0 11.6032,-8.18608 11.6032,-8.18608 l 0,0 c 4.0608,0.60109 8.0377,1.57252 12.0869,2.22788 6.0277,0.39777 12.0226,1.17052 17.7841,3.08261 8.3912,2.57394 16.9571,4.65951 25.6744,5.77256 12.004,1.6241 24.0961,2.77981 35.7704,6.2291 7.4666,1.77468 14.8889,3.7845 22.1578,6.25496 4.9413,1.54212 10.0007,3.36787 13.0558,7.79643 5.5456,10.49203 7.4684,22.61269 11.8816,33.5847 5.6178,16.12559 10.9581,32.34843 16.1681,48.610123 2.911,9.499799 6.8636,19.476198 5.9312,29.558922 -2.4781,11.116845 -13.5266,15.136774 -24.0462,16.344167 -12.0853,0.710178 -24.1362,1.850938 -36.2157,2.638937 -15.2724,0.440254 -30.5207,1.309122 -45.7695,2.254645 -16.6878,0.655919 -33.3948,0.40714 -50.0932,0.565793 -6.5988,-0.05687 -14.3382,0.921019 -19.3088,-4.291041 -4.9945,-9.001455 -1.6438,-20.250139 -2.5282,-30.040677 0.031,-20.702552 0.043,-41.405119 0.032,-62.107689 -0.017,-16.02868 -0.027,-32.05757 -0.1293,-48.08596 0,0 12.6563,-6.4487 12.6563,-6.4487 z"
       inkscape:connector-curvature="0" />
    <text
       xml:space="preserve"
       style="font-style:normal;font-weight:normal;font-size:60px;line-height:125%;font-family:Sans;letter-spacing:0px;word-spacing:0px;fill:#000000;fill-opacity:1;stroke:none;stroke-width:1px;stroke-linecap:butt;stroke-linejoin:miter;stroke-opacity:1"
       x="1060"
       y="-101.92351"
       id="text4154"
       sodipodi:linespacing="125%"><tspan
         sodipodi:role="line"
         id="tspan4156"
         x="1060"
         y="-101.92351">日</tspan></text>
    <text
       xml:space="preserve"
       style="font-style:normal;font-weight:normal;font-size:60px;line-height:125%;font-family:Sans;letter-spacing:0px;word-spacing:0px;fill:#000000;fill-opacity:1;stroke:none;stroke-width:1px;stroke-linecap:butt;stroke-linejoin:miter;stroke-opacity:1"
       x="1288.5715"
       y="-90.494942"
       id="text4158"
       sodipodi:linespacing="125%"><tspan
         sodipodi:role="line"
         id="tspan4160"
         x="1288.5715"
         y="-90.494942">月</tspan></text>
    <text
       xml:space="preserve"
       style="font-style:normal;font-weight:normal;font-size:60px;line-height:125%;font-family:Sans;letter-spacing:0px;word-spacing:0px;fill:#000000;fill-opacity:1;stroke:none;stroke-width:1px;stroke-linecap:butt;stroke-linejoin:miter;stroke-opacity:1"
       x="1497.1429"
       y="-87.637794"
       id="text4162"
       sodipodi:linespacing="125%"><tspan
         sodipodi:role="line"
         id="tspan4164"
         x="1497.1429"
         y="-87.637794">季度</tspan></text>
    <path
       style="opacity:1;fill:#000000;fill-opacity:1;stroke:#000000;stroke-width:1;stroke-linecap:round;stroke-linejoin:round;stroke-miterlimit:4;stroke-dasharray:none;stroke-opacity:1"
       id="path4168"
       d="m -100.28935,67.933339 c -5.80222,14.2263 -11.52519,28.484666 -17.00037,42.840861 -4.92179,12.46854 -9.68259,24.99166 -14.01642,37.67753 0,0 -12.72888,5.96619 -12.72888,5.96619 l 0,0 c 4.34796,-12.71648 9.12199,-25.26977 14.07991,-37.76007 5.43731,-14.32575 11.16538,-28.534525 16.76531,-42.796381 0,0 12.90045,-5.92813 12.90045,-5.92813 z"
       inkscape:connector-curvature="0" />
    <path
       style="opacity:1;fill:#000000;fill-opacity:1;stroke:#000000;stroke-width:1;stroke-linecap:round;stroke-linejoin:round;stroke-miterlimit:4;stroke-dasharray:none;stroke-opacity:1"
       id="path4170"
       d="m -93.091899,64.270359 c 1.813173,9.46398 6.093527,17.86031 10.994023,26.041849 2.552854,3.849917 4.724233,7.907904 6.783398,12.034102 0,0 -12.290875,6.99364 -12.290875,6.99364 l 0,0 c -2.02602,-4.10237 -4.170304,-8.1333 -6.711956,-11.948232 -4.928022,-8.263455 -9.289261,-16.744389 -11.223731,-26.265069 0,0 12.449141,-6.85629 12.449141,-6.85629 z"
       inkscape:connector-curvature="0" />
    <path
       style="opacity:1;fill:#000000;fill-opacity:1;stroke:#000000;stroke-width:1.28444278;stroke-linecap:round;stroke-linejoin:round;stroke-miterlimit:4;stroke-dasharray:none;stroke-opacity:1"
       id="path4172"
       d="m -96.671222,87.815278 c -0.100154,27.319332 -0.10761,54.639482 -0.131375,81.959252 -0.03206,45.1231 -0.04334,90.24625 -0.0379,135.36938 -0.0066,46.32893 1.9e-4,92.65788 0.0091,138.98682 0.0178,40.89495 0.01822,81.78993 0.02226,122.6849 -0.0027,36.73152 0.01107,73.46303 0.02964,110.19454 0.02285,25.9129 0.03298,51.82584 0.04541,77.73876 0.006,20.15824 0.006,40.3165 0.0196,60.47474 0.0094,18.56391 -0.0069,37.12783 -0.0095,55.69175 -0.0017,17.33596 0.01075,34.67193 0.02674,52.00788 0.0066,12.14814 0.0082,24.29628 0.01306,36.44444 0.004,10.05272 0.0052,20.10545 0.0059,30.15817 3.22e-4,6.42269 3.28e-4,12.84539 3.44e-4,19.26809 0,0 -12.358297,10.8717 -12.358297,10.8717 l 0,0 c 1e-5,-6.4229 2e-5,-12.8458 3.5e-4,-19.2687 6.5e-4,-10.05616 0.002,-20.11232 0.006,-30.16848 0.005,-12.1558 0.007,-24.31161 0.0131,-36.46741 0.0159,-17.35163 0.0284,-34.70329 0.0268,-52.05493 -0.003,-18.55837 -0.0189,-37.11672 -0.01,-55.67508 0.0137,-20.16975 0.0137,-40.3395 0.0195,-60.50924 0.0124,-25.93955 0.0226,-51.87912 0.0455,-77.81865 0.0186,-36.7489 0.0325,-73.49777 0.0296,-110.24668 0.004,-40.90803 0.005,-81.81607 0.0223,-122.72409 0.009,-46.33424 0.0156,-92.66849 0.009,-139.00273 0.006,-45.10091 -0.006,-90.20183 -0.0379,-135.30271 -0.0237,-27.24273 -0.031,-54.48583 -0.13137,-81.728107 0,0 12.371842,-10.883615 12.371842,-10.883615 z"
       inkscape:connector-curvature="0" />
    <path
       style="opacity:1;fill:#000000;fill-opacity:1;stroke:#000000;stroke-width:1;stroke-linecap:round;stroke-linejoin:round;stroke-miterlimit:4;stroke-dasharray:none;stroke-opacity:1"
       id="path4174"
       d="m -89.627463,1009.6128 c 12.425658,0.046 24.851441,0.054 37.277171,0.067 25.699876,0.1843 51.3379829,-1.9595 76.983724,-3.3295 35.684306,-1.7529 71.418515,-1.9706 107.137738,-2.1805 37.85174,-0.1544 75.70388,-0.143 113.55585,-0.1502 30.32517,-9e-4 60.65034,-0 90.9755,-0.01 27.52154,0 55.04307,-10e-4 82.56461,-2e-4 28.82019,0 57.64038,0.012 86.46058,0.014 28.83706,-0 57.67413,-0.01 86.51119,-0.01 28.97974,0 57.95947,0.01 86.9392,10e-4 27.54856,7e-4 55.09712,-0.01 82.64568,-0.011 25.33065,-0.01 50.66131,-0 75.99196,-0.01 23.5437,-0 47.0874,-0.01 70.6311,-0.013 20.25796,-0.01 40.51593,-0.02 60.77389,-0.012 23.05973,0.011 46.11947,0.021 69.17917,0.021 23.7278,-3e-4 47.4556,-0.01 71.1834,-0 25.5438,0.011 51.0876,0.013 76.6315,0.01 21.7113,-0.01 43.4226,-0.017 65.1339,-0.035 15.5692,-0 31.1383,-0.021 46.7074,-0.022 14.1519,-0 28.3038,4e-4 42.4556,0.01 14.5753,-10e-5 29.1505,-0 43.7257,-0.01 13.6426,-0 27.2853,8e-4 40.9279,-0 12.8078,-0 25.6155,-0 38.4233,-0 11.8042,-4e-4 23.6083,-7e-4 35.4125,-0.01 7.7704,-0.01 15.5407,-0.017 23.3111,-0.022 7.0976,0.4277 15.8935,-5.89444 -3.061,4.3759 0,0 13.1854,-5.3162 13.1854,-5.3162 l 0,0 c -9.0595,5.4968 -12.3156,9.669 -21.595,9.2743 -7.7504,-0 -15.5008,-0.014 -23.2512,-0.022 -11.7958,-0.01 -23.5915,-0.01 -35.3873,-0.01 -12.8036,-0 -25.6072,4e-4 -38.4108,-0 -13.6401,-0 -27.2803,10e-4 -40.9204,-0 -14.5699,-0 -29.1397,-0.01 -43.7096,-0.01 -14.1572,0 -28.3144,0.01 -42.4715,0.01 -15.5493,-10e-4 -31.0985,-0.019 -46.6478,-0.022 -21.6787,-0.019 -43.3574,-0.03 -65.0362,-0.035 -25.5512,-0 -51.1025,-0 -76.6537,0.01 -23.7254,0 -47.4509,-0 -71.1763,-0 -23.0792,2e-4 -46.15837,0.01 -69.23756,0.021 -20.24705,0.01 -40.4941,-0 -60.74115,-0.012 -23.53226,-0.01 -47.06452,-0.01 -70.59678,-0.012 -25.32429,-0 -50.64859,-0 -75.97288,-0.01 -27.53866,-0 -55.07731,-0.011 -82.61597,-0.011 -28.98089,-0.01 -57.96179,-0 -86.94269,10e-4 -28.82832,-3e-4 -57.65665,-0 -86.48498,-0.01 -28.8335,0 -57.66699,0.015 -86.50049,0.015 -27.51806,9e-4 -55.03611,-0 -82.55417,-0.01 -30.2954,-0.012 -60.59079,-0.033 -90.88618,-0.059 -37.82825,-0.03 -75.65681,-0.069 -113.48479,0.1096 -35.74687,0.2378 -71.508609,0.5079 -107.217912,2.3203 -25.718923,1.4139 -51.4308,3.5544 -77.206673,3.3993 -12.487704,0.013 -24.975459,0.022 -37.463095,0.067 0,0 11.501057,-8.356 11.501057,-8.356 z"
       inkscape:connector-curvature="0" />
    <path
       style="opacity:1;fill:#000000;fill-opacity:1;stroke:#000000;stroke-width:1;stroke-linecap:round;stroke-linejoin:round;stroke-miterlimit:4;stroke-dasharray:none;stroke-opacity:1"
       id="path4176"
       d="m 1512.9426,938.35211 c 4.0235,8.49385 9.2302,16.30541 14.1526,24.27543 5.918,8.14767 10.5834,17.107 15.8057,25.70058 4.0437,7.6203 8.9558,14.67578 13.9983,21.64738 3.0454,3.5258 6.9743,7.0153 5.2115,11.9722 -9.2736,9.3199 -23.4488,12.8898 -35.5424,17.244 -11.1189,4.2613 -22.655,6.7394 -34.2325,9.3002 -7.6344,1.6023 -15.1529,3.7417 -22.4036,6.6044 -0.7578,0.1615 -1.5156,0.323 -2.2734,0.4845 0,0 11.2879,-8.6292 11.2879,-8.6292 l 0,0 c 0.7154,-0.205 1.4308,-0.4099 2.1462,-0.6149 7.2758,-2.7919 14.8568,-4.7466 22.4709,-6.3769 11.5646,-2.4899 23.0049,-5.233 34.1015,-9.4335 5.0968,-1.846 10.2538,-3.5927 15.3036,-5.565 5.5527,-2.1687 8.9911,-4.4545 -5.4894,3.9524 -0.5752,0.334 1.0992,-0.7489 1.6488,-1.1234 3.013,-3.8582 -2.26,-7.7192 -4.4166,-10.6128 -5.0452,-7.0141 -9.9764,-14.1035 -14.0169,-21.76617 -5.2146,-8.59404 -9.8946,-17.54027 -15.8101,-25.68543 -4.9335,-7.98294 -10.1044,-15.8282 -14.236,-24.28319 0,0 12.2939,-7.0906 12.2939,-7.0906 z"
       inkscape:connector-curvature="0" />
    <text
       xml:space="preserve"
       style="font-style:normal;font-weight:normal;font-size:60px;line-height:125%;font-family:Sans;letter-spacing:0px;word-spacing:0px;fill:#000000;fill-opacity:1;stroke:none;stroke-width:1px;stroke-linecap:butt;stroke-linejoin:miter;stroke-opacity:1"
       x="1191.4286"
       y="278.07645"
       id="text4184"
       sodipodi:linespacing="125%"><tspan
         sodipodi:role="line"
         id="tspan4186"
         x="1191.4286"
         y="278.07645">添加同期比较</tspan></text>
    <path
       style="opacity:1;fill:#000000;fill-opacity:1;stroke:#000000;stroke-width:1;stroke-linecap:round;stroke-linejoin:round;stroke-miterlimit:4;stroke-dasharray:none;stroke-opacity:1"
       id="path4231"
       d="m 1169.1853,208.67306 c 0.6166,13.46006 -0.9466,26.74039 -2.6275,40.06178 -1.7459,12.89149 -2.5281,25.87412 -2.937,38.8674 -0.2296,8.60593 -0.2219,17.21544 -0.204,25.82363 0.3163,5.10324 -1.3416,11.08535 2.2659,15.26652 5.5978,3.19863 12.7441,2.39957 18.9579,2.49179 17.2123,0.0915 34.4251,0.0117 51.6376,-0.0164 20.5439,-0.0297 41.0879,-0.0379 61.6319,-0.0413 19.1696,-0.002 38.3392,-0.0142 57.5088,-0.0179 15.0197,-0.009 30.0393,-0.0228 45.0589,-0.0142 17.2296,0.005 34.4592,0.0149 51.6887,0.0244 17.7674,0.0108 35.5348,-0.009 53.3022,-0.0257 11.413,-0.0189 22.826,-0.0181 34.2389,-0.0177 10.1202,-0.002 20.2404,-10e-4 30.3606,-0.009 5.2773,-0.005 2.7648,0.15865 7.5423,-0.40878 0,0 -11.3794,8.44093 -11.3794,8.44093 l 0,0 c -4.8438,0.3884 -2.3124,0.27965 -7.5963,0.27474 -10.1116,-0.008 -20.2231,-0.007 -30.3346,-0.009 -11.3967,3.4e-4 -22.7934,0.001 -34.1901,-0.0178 -17.7438,-0.0164 -35.4876,-0.0365 -53.2314,-0.0257 -17.2519,0.01 -34.5038,0.0196 -51.7557,0.0243 -15.0061,0.008 -30.0122,-0.006 -45.0182,-0.0154 -19.1552,-0.004 -38.3104,-0.0175 -57.4656,-0.0131 -20.55,0.007 -41.1,0.0125 -61.6499,0.0574 -17.2539,0.04 -34.5081,0.12804 -51.762,0.0775 -6.5803,-0.0981 -14.1674,0.72132 -19.7366,-3.44628 -3.7228,-4.68006 -2.6306,-10.49419 -2.6956,-16.14571 4e-4,-8.63303 0.01,-17.26764 0.2474,-25.89801 0.4255,-13.04177 1.1713,-26.07654 2.9385,-39.01594 1.6861,-13.24191 3.3756,-26.4374 2.548,-39.82282 0,0 12.6563,-6.4487 12.6563,-6.4487 z"
       inkscape:connector-curvature="0" />
    <path
       style="opacity:1;fill:#000000;fill-opacity:1;stroke:#000000;stroke-width:1;stroke-linecap:round;stroke-linejoin:round;stroke-miterlimit:4;stroke-dasharray:none;stroke-opacity:1"
       id="path4235"
       d="m 1162.0868,211.04135 c 7.2411,0.0274 14.4823,0.018 21.7235,0.0146 11.1348,1.3e-4 22.2695,0.0333 33.4043,0.0524 24.5415,0.0316 49.083,0.0461 73.6246,0.0526 25.2376,-0.003 50.4753,-0.009 75.7129,-0.0315 19.4147,0.43586 38.7798,-0.33027 58.1599,-1.33964 15.6645,-1.49754 31.3212,-3.0044 47.0374,-3.83428 11.0691,-0.55888 22.1542,-0.59446 33.2345,-0.62989 8.4754,0.53515 16.8198,-0.75437 25.1957,-1.78745 6.6542,-0.78042 13.3617,-0.92188 20.054,-1.02912 5.7796,-0.14294 11.4611,-0.30956 17.1325,0.87576 5.1128,1.7383 6.3791,6.3662 7.1558,11.19514 1.4736,4.55614 1.8819,9.35731 3.0634,13.96834 0.7592,5.00659 4.011,8.54437 6.7748,12.56544 2.93,4.57572 3.7129,9.98912 5.3042,15.08902 1.4076,4.45622 3.3028,8.64047 4.2554,13.24577 0.8901,5.38335 0.93,10.85622 0.9924,16.29789 0.033,5.7172 0.01,11.43455 0,17.15179 -0.011,5.71897 -0.014,11.43794 -0.015,17.15692 0,5.71453 -10e-4,11.42907 -10e-4,17.1436 -0.098,0.8662 -0.1959,1.7324 -0.2939,2.5986 0,0 -12.7378,6.27503 -12.7378,6.27503 l 0,0 c 0.1299,-0.81069 0.2597,-1.62138 0.3895,-2.43208 -10e-5,-5.71466 -3e-4,-11.42933 8e-4,-17.14399 0,-5.71971 0,-11.43941 0.015,-17.1591 0.011,-5.71181 0.035,-11.42369 0.01,-17.13549 -0.051,-5.3585 -0.071,-10.7453 -0.8807,-16.05503 -0.8936,-4.57658 -2.7874,-8.70254 -4.1849,-13.11632 -1.5482,-4.96678 -2.2827,-10.24484 -5.0851,-14.72156 -2.8609,-4.13771 -6.2165,-7.83603 -7.0268,-12.98628 -1.2598,-4.64126 -1.5635,-9.51929 -3.1301,-14.10512 -0.6197,-4.32523 -1.4792,-8.45663 -6.252,-9.70978 -5.6037,-1.03596 -11.2596,-0.6992 -16.9371,-0.64563 -6.6635,0.12588 -13.3391,0.31074 -19.9588,1.14486 -8.3911,1.04079 -16.7677,2.09021 -25.2504,1.61687 -11.052,0.0303 -22.108,0.10076 -33.1487,0.65521 -15.6909,0.85052 -31.3205,2.38617 -46.9698,3.78217 -19.3788,1.00906 -38.7465,1.6585 -58.1576,1.24808 -25.2087,-0.0227 -50.4175,-0.0288 -75.6263,-0.0315 -24.5897,0.006 -49.1795,0.021 -73.7693,0.0526 -11.1828,0.0191 -22.3656,0.0522 -33.5485,0.0524 -7.2545,-0.003 -14.5092,-0.0127 -21.7637,0.0146 0,0 11.501,-8.356 11.501,-8.356 z"
       inkscape:connector-curvature="0" />
    <path
       style="opacity:1;fill:#000000;fill-opacity:1;stroke:#000000;stroke-width:1;stroke-linecap:round;stroke-linejoin:round;stroke-miterlimit:4;stroke-dasharray:none;stroke-opacity:1"
       id="path4237"
       d="m 1167.931,243.34165 c 7.022,2.29839 14.3124,3.50239 21.6392,4.27848 6.1562,0.56024 12.342,0.59235 18.5183,0.6134 3.716,-0.0112 7.3961,0.19943 11.0629,-0.44117 0,0 -11.3716,8.50403 -11.3716,8.50403 l 0,0 c -3.7171,0.38825 -7.4374,0.28092 -11.1727,0.27038 -6.2018,-0.0392 -12.4138,-0.10889 -18.5889,-0.74828 -7.3996,-0.86819 -14.7479,-2.18323 -21.848,-4.49725 0,0 11.7608,-7.97959 11.7608,-7.97959 z"
       inkscape:connector-curvature="0" />
    <path
       style="opacity:1;fill:#000000;fill-opacity:1;stroke:#000000;stroke-width:1;stroke-linecap:round;stroke-linejoin:round;stroke-miterlimit:4;stroke-dasharray:none;stroke-opacity:1"
       id="path4241"
       d="m 1197.7619,219.75723 c -0.044,7.36635 -0.022,14.73289 -0.027,22.09932 -0.012,7.69438 6e-4,15.38877 0.01,23.08315 0.511,5.58547 -0.6795,10.96478 -1.6527,16.41222 0,0 -12.7631,6.22766 -12.7631,6.22766 l 0,0 c 0.9192,-5.39147 2.3429,-10.67367 1.7893,-16.20635 0.01,-7.69686 0.019,-15.39373 0.01,-23.09059 0,-7.35714 0.016,-14.71438 -0.027,-22.07144 0,0 12.6666,-6.45397 12.6666,-6.45397 z"
       inkscape:connector-curvature="0" />
    <path
       style="opacity:1;fill:#000000;fill-opacity:1;stroke:#000000;stroke-width:1;stroke-linecap:round;stroke-linejoin:round;stroke-miterlimit:4;stroke-dasharray:none;stroke-opacity:1"
       id="path4243"
       d="m 1191.7578,399.86247 c -1.2256,7.17256 -1.8379,14.42651 -2.2503,21.68497 -0.3587,8.06999 -0.3552,16.15064 -0.3651,24.22693 0,7.33469 0.011,14.66936 0.022,22.00403 0.01,6.00907 0.012,12.01814 0.013,18.02722 0.01,5.47797 -0.015,10.95604 0.011,16.43397 0.1265,0.64636 0.1301,1.86335 0.9457,2.23713 0.9112,0.41764 5.9384,-0.68032 6.9947,-0.82079 5.5987,-0.73984 11.2447,-0.95815 16.8847,-1.08052 10.2328,0.23905 20.4073,-0.69473 30.6033,-1.40482 13.6936,-0.96083 27.4199,-1.2451 41.1419,-1.42871 11.7529,-0.11952 23.5067,-0.11561 35.2601,-0.11481 10.7185,6.7e-4 21.437,0.0132 32.1555,0.0233 13.7406,-0.90436 27.4696,-1.84274 41.2325,-2.34699 13.8179,-0.43714 27.6444,-0.48271 41.468,-0.51501 13.3524,-0.0161 26.7048,-2.5e-4 40.0572,0.005 12.385,0.003 24.77,9e-4 37.155,-5e-5 10.8747,-0.43427 21.6557,0.28857 32.4662,1.3407 8.4528,1.2561 16.7115,3.51536 24.8842,5.97196 5.5988,3.04893 11.8043,4.44562 17.7114,6.63519 4.4585,1.29506 8.4866,3.56336 12.9682,4.78018 4.6387,0.0582 14.7704,-5.04782 -7.4648,5.29811 -0.5164,0.24028 0.7785,-0.84488 1.0607,-1.33962 0.9048,-1.58636 0.9355,-2.85855 1.2703,-4.68865 0.8527,-9.37385 0.6831,-18.80901 0.6752,-28.21221 0.076,-9.59167 0.304,-19.16782 -1.6592,-28.59719 -1.246,-6.59781 -3.7342,-12.8362 -5.4009,-19.31891 -1.9731,-4.67253 -3.2607,-9.47898 -3.9355,-14.49523 -0.9785,-4.28423 -2.013,-8.55451 -4.3875,-12.29558 -2.1305,-3.47234 -3.719,-7.27443 -6.9331,-9.8948 -4.2225,-2.35498 -9.1885,-2.40259 -13.8995,-2.5882 -7.1769,-0.13603 -14.3562,-0.0714 -21.534,-0.0644 -15.3946,0.0122 -30.7893,-8e-4 -46.184,-0.005 -21.6443,-0.007 -43.2885,-0.0175 -64.9328,-0.0106 -18.6111,0.004 -37.2222,0.0197 -55.8333,0.03 -12.593,0.01 -25.186,0.0206 -37.779,0.0237 -9.7722,0.008 -19.5444,0.005 -29.3167,0.01 -8.7081,-0.007 -17.4163,0.006 -26.1245,0.005 -8.1796,10e-6 -16.3592,6.6e-4 -24.5389,-0.002 -8.2584,5.4e-4 -16.5168,6.4e-4 -24.7752,0.003 -6.7428,0.003 -13.4855,0.008 -20.2282,0.01 -6.3452,10e-4 -12.6905,-0.004 -19.0357,-0.003 -3.1218,7.7e-4 -6.2436,0.002 -9.3654,0.002 0,0 11.4737,-8.33613 11.4737,-8.33613 l 0,0 c 3.1197,7.3e-4 6.2394,0.002 9.3591,0.002 6.3475,0.001 12.6951,-0.004 19.0426,-0.003 6.7339,0.002 13.4677,0.006 20.2015,0.01 8.256,0.002 16.512,0.002 24.7679,0.003 8.1818,-0.003 16.3636,-0.002 24.5454,-0.002 8.7035,-0.001 17.407,0.0119 26.1105,0.005 9.7631,0.005 19.5261,0.002 29.2892,0.01 12.5711,0.003 25.1423,0.0138 37.7134,0.0239 18.5832,0.0105 37.1664,0.027 55.7496,0.0308 21.6572,0.007 43.3145,-0.003 64.9717,-0.0182 15.4363,-0.0135 30.8727,-0.0302 46.3089,-0.0893 7.2111,-0.0297 14.4259,-0.13317 21.635,0.0768 4.9748,0.26516 10.1672,0.49751 14.4423,3.35442 3.1956,2.84616 5.0113,6.61766 7.1531,10.26248 2.4626,3.93634 3.6239,8.3494 4.6707,12.84231 0.6193,4.9739 1.8605,9.73362 3.8457,14.35138 1.6249,6.51608 4.1459,12.76677 5.3946,19.38558 2.0487,9.51542 1.8474,19.1842 1.7587,28.87616 0.014,9.45684 0.1577,18.93301 -0.5112,28.37215 -1.2341,9.85955 -8.1787,16.3035 -19.3247,15.0013 -4.4411,-1.35743 -8.5489,-3.54031 -13.009,-4.85874 -5.9432,-2.04064 -11.9518,-3.8255 -17.6292,-6.5964 -8.122,-2.36786 -16.293,-4.67521 -24.7022,-5.76986 -10.773,-1.04632 -21.5293,-1.612 -32.3613,-1.248 -12.3774,-0.003 -24.7549,-0.008 -37.1324,-0.017 -13.352,-0.007 -26.704,-0.0188 -40.0559,-8.4e-4 -13.8096,0.0382 -27.6219,0.0799 -41.4252,0.54453 -13.7818,0.52856 -27.5262,1.55703 -41.294,2.32624 -10.7255,0.005 -21.451,0.008 -32.1765,-0.008 -11.7382,-0.007 -23.4767,-0.0222 -35.2144,0.10581 -13.7047,0.18953 -27.4131,0.49891 -41.0876,1.48854 -10.2393,0.73815 -20.463,1.58321 -30.7392,1.42568 -5.6215,0.16696 -11.2458,0.43192 -16.8211,1.21535 -3.7715,0.475 -8.4764,1.54535 -9.2194,-3.46129 0.026,-5.48155 0,-10.96323 0.011,-16.44483 3e-4,-6.01114 9e-4,-12.02228 0,-18.03342 -3e-4,-7.3392 -0.01,-14.6784 0,-22.01759 0.019,-8.09629 0.01,-16.19606 0.3158,-24.28768 0.4,-7.29463 1.0141,-14.57906 2.1375,-21.80226 0,0 12.7706,-6.24349 12.7706,-6.24349 z"
       inkscape:connector-curvature="0" />
    <path
       style="opacity:1;fill:#000000;fill-opacity:1;stroke:#000000;stroke-width:1;stroke-linecap:round;stroke-linejoin:round;stroke-miterlimit:4;stroke-dasharray:none;stroke-opacity:1"
       id="path4245"
       d="m 1532.0476,422.61437 c -0.089,12.16373 -0.076,24.32794 -0.073,36.49191 -0.011,12.44954 0.01,24.89907 0.031,37.34859 0,0 -12.5816,6.41063 -12.5816,6.41063 l 0,0 c 0.026,-12.46 0.042,-24.92002 0.031,-37.38005 0,-12.13904 0.015,-24.27831 -0.073,-36.41711 0,0 12.6666,-6.45397 12.6666,-6.45397 z"
       inkscape:connector-curvature="0" />
    <path
       style="opacity:1;fill:#000000;fill-opacity:1;stroke:#000000;stroke-width:1;stroke-linecap:round;stroke-linejoin:round;stroke-miterlimit:4;stroke-dasharray:none;stroke-opacity:1"
       id="path4247"
       d="m 1542.0868,442.46992 c 7.5102,0.0253 15.0204,0.02 22.5305,0.0193 6.4778,0.44037 12.7235,-0.20894 19.0593,-1.41308 4.9109,-1.23096 8.6404,0.34269 9.9191,5.34576 0.3051,5.48494 -1.8778,10.71824 -3.9003,15.70747 -2.8684,7.48304 -5.3168,15.1159 -8.1224,22.62667 -4.6349,14.52524 -1.71,10.74474 -18.146,19.96413 -3.6755,-0.70761 -5.6637,-4.56429 -7.6368,-7.43566 -3.5515,-4.14603 -6.9358,-8.28719 -9.6545,-13.05306 -2.5477,-5.35306 -4.9801,-10.78436 -7.7305,-16.03431 -2.3735,-4.27044 -3.3646,-9.0915 -5.8759,-13.28851 0,0 12.2991,-7.1229 12.2991,-7.1229 l 0,0 c 2.5103,4.23598 3.5794,9.03609 5.8955,13.36784 2.7337,5.23906 5.1718,10.6483 7.7049,15.98897 2.6988,4.73065 6.1106,8.79853 9.6091,12.93762 1.5804,2.27369 3.4265,6.31824 6.6463,5.90844 -3.7006,2.24832 -7.3621,4.56233 -11.1019,6.74496 -0.4504,0.26289 0.8952,-0.57113 1.2211,-0.97826 2.4744,-3.09039 2.2936,-7.5677 3.9325,-11.02586 2.8053,-7.52462 5.3636,-15.12764 8.1032,-22.67025 1.9925,-4.75856 4.0588,-9.69334 4.217,-14.91299 -0.7275,-4.62797 -4.9317,-4.38835 -8.7088,-3.51431 -6.3634,1.17134 -12.7038,1.45754 -19.1778,1.17464 -7.5279,-6.7e-4 -15.0558,-0.006 -22.5837,0.0193 0,0 11.501,-8.356 11.501,-8.356 z"
       inkscape:connector-curvature="0" />
    <text
       xml:space="preserve"
       style="font-style:normal;font-weight:normal;font-size:60px;line-height:125%;font-family:Sans;letter-spacing:0px;word-spacing:0px;fill:#000000;fill-opacity:1;stroke:none;stroke-width:1px;stroke-linecap:butt;stroke-linejoin:miter;stroke-opacity:1"
       x="1220"
       y="469.50507"
       id="text4249"
       sodipodi:linespacing="125%"><tspan
         sodipodi:role="line"
         id="tspan4251"
         x="1220"
         y="469.50507">选择年份</tspan></text>
    <text
       xml:space="preserve"
       style="font-style:normal;font-weight:normal;font-size:60px;line-height:125%;font-family:Sans;letter-spacing:0px;word-spacing:0px;fill:#000000;fill-opacity:1;stroke:none;stroke-width:1px;stroke-linecap:butt;stroke-linejoin:miter;stroke-opacity:1"
       x="1702.8571"
       y="415.21936"
       id="text4253"
       sodipodi:linespacing="125%"><tspan
         sodipodi:role="line"
         id="tspan4255"
         x="1702.8571"
         y="415.21936">自动生成不同颜色标识同期数据</tspan></text>
    <path
       style="opacity:1;fill:#000000;fill-opacity:1;stroke:#000000;stroke-width:1;stroke-linecap:round;stroke-linejoin:round;stroke-miterlimit:4;stroke-dasharray:none;stroke-opacity:1"
       id="path4257"
       d="m 2166.3333,442.61437 c 0.5102,9.61455 -3.2357,18.48826 -7.3954,26.93965 -9.0255,13.54452 -23.8936,20.98304 -38.2656,27.76969 -12.7321,5.61142 -25.9068,9.36912 -39.6118,11.59567 -13.8961,1.8096 -27.9337,1.8593 -41.9221,1.95179 -18.2106,0.0172 -36.4212,-0.0654 -54.6318,-0.10512 -26.1482,-0.0387 -52.2964,-0.0576 -78.4447,-0.0514 -23.0895,9.8e-4 -46.1791,0.016 -69.2686,0.0334 -16.7544,0.0168 -33.5087,0.014 -50.263,0.0203 -14.9343,0.003 -29.8686,0.007 -44.8028,0.003 -13.5641,0.007 -27.1282,0.004 -40.6923,0.0125 -10.2654,0.007 -20.5309,0.0112 -30.7964,0.0175 -7.0289,0.006 -14.0578,0.0116 -21.0867,0.0143 -5.5931,0.0929 -11.0796,0.2365 -16.5648,-0.9209 0,0 11.6526,-8.12146 11.6526,-8.12146 l 0,0 c 5.4221,1.01141 10.8903,0.68925 16.386,0.70616 7.0158,0.003 14.0315,0.008 21.0472,0.0143 10.2494,0.006 20.4988,0.0101 30.7483,0.0175 13.5525,0.009 27.1051,0.006 40.6577,0.0125 14.9313,-0.003 29.8625,8.1e-4 44.7938,0.003 16.7361,0.006 33.4722,0.003 50.2082,0.0194 23.0578,0.0168 46.1156,0.0309 69.1734,0.0361 26.1638,0.0129 52.3277,9.2e-4 78.4916,0.0193 18.2503,0.006 36.5006,0.0426 54.7509,0.004 13.9488,-0.10772 27.9529,-0.19217 41.7941,-2.13385 13.6297,-2.33925 26.7527,-6.22019 39.3836,-11.92311 1.875,-0.92156 7.1026,-4.24171 5.625,-2.76467 -1.912,1.91128 -4.5201,3.01087 -6.9841,4.12324 -1.7201,0.77657 3.2255,-1.97197 4.7333,-3.10712 2.6477,-1.99336 5.7729,-4.99977 7.9585,-7.50824 1.0924,-1.25386 2.0499,-2.61917 3.0748,-3.92875 4.2315,-8.15506 8.1074,-16.91337 7.5845,-26.29538 0,0 12.6666,-6.45397 12.6666,-6.45397 z"
       inkscape:connector-curvature="0" />
    <path
       style="opacity:1;fill:#000000;fill-opacity:1;stroke:#000000;stroke-width:1;stroke-linecap:round;stroke-linejoin:round;stroke-miterlimit:4;stroke-dasharray:none;stroke-opacity:1"
       id="path4261"
       d="m 1689.4806,488.83398 c -7.0267,3.3676 -14.6082,5.04613 -22.09,7.01219 -7.1248,2.32616 -14.5334,3.69163 -21.6987,5.83512 -1.8664,0.79065 -3.9062,1.00082 -5.8129,1.6498 -0.814,0.27704 -3.1092,1.458 -2.3691,1.02041 16.8483,-9.96136 11.121,-6.96482 7.3946,-2.64707 -4.7876,4.9105 -11.4298,7.30212 -17.376,10.58665 -0.6153,0.33986 -2.464,1.35378 -1.8532,1.00609 11.2802,-6.42026 14.031,-8.90592 10.3486,-5.6689 2.9069,0.26393 6.1775,0.46301 9.2152,0.54627 5.6713,0.0919 11.3436,0.057 17.0153,0.0434 5.7437,1.11171 11.595,2.77842 17.0575,4.93775 4.4935,1.7954 9.2267,2.69179 13.3937,5.22965 3.5472,2.10042 6.7194,4.89222 9.5409,7.89268 3.2274,3.46704 5.5681,7.56482 8.1434,11.49691 2.0655,3.39557 4.4639,6.69306 7.3185,9.47519 0,0 -12.1391,7.43121 -12.1391,7.43121 l 0,0 c -2.8286,-2.94716 -5.3662,-6.22064 -7.4461,-9.73527 -2.5125,-3.86955 -4.8209,-7.88896 -8.0164,-11.2682 -2.7811,-2.8716 -5.8377,-5.57388 -9.3238,-7.55456 -4.1843,-2.30572 -8.8592,-3.22031 -13.2497,-5.04695 -5.4007,-1.96684 -11.0475,-3.85256 -16.7549,-4.51653 -5.6842,0.0126 -11.3696,0.0502 -17.0528,-0.0769 -3.5068,-0.13057 -8.8542,0.54157 -10.7318,-3.07208 0.1168,-0.34623 0.045,-0.83871 0.3504,-1.0387 4.3539,-2.84726 8.921,-5.35524 13.4204,-7.96668 0.6126,-0.35558 2.5104,-1.30735 1.9101,-0.93123 -3.3603,2.10562 -6.8088,4.06753 -10.1989,6.12495 -1.164,0.70646 4.7768,-2.61793 3.3399,-2.35209 0.9425,-1.11572 1.517,-2.62242 2.7422,-3.41719 8.1158,-5.26422 13.6979,-8.72352 22.3647,-10.79116 7.2352,-1.93263 14.5147,-3.67414 21.7006,-5.79835 7.5091,-1.93127 14.9832,-3.92544 22.0807,-7.12574 0,0 -11.2233,8.71935 -11.2233,8.71935 z"
       inkscape:connector-curvature="0" />
    <path
       style="opacity:1;fill:#000000;fill-opacity:1;stroke:#000000;stroke-width:1;stroke-linecap:round;stroke-linejoin:round;stroke-miterlimit:4;stroke-dasharray:none;stroke-opacity:1"
       id="path4263"
       d="m 573.51539,448.1842 c 20.34876,0.0858 40.69771,0.12026 61.04661,0.15455 48.37821,0.0744 96.75649,0.0873 145.13475,0.086 44.60894,-0.004 89.21789,-0.0252 133.8268,-0.0847 19.19973,-0.0332 10.06031,-0.0148 27.41828,-0.0537 0,0 -11.21977,8.15165 -11.21977,8.15165 l 0,0 c -17.25811,-0.0389 -8.16792,-0.0205 -27.2706,-0.0537 -44.5312,-0.0596 -89.06245,-0.0807 -133.5937,-0.0847 -48.45714,-10e-4 -96.9143,0.0117 -145.37139,0.086 -20.49071,0.0344 -40.98146,0.069 -61.47203,0.15455 0,0 11.50105,-8.35601 11.50105,-8.35601 z"
       inkscape:connector-curvature="0" />
    <path
       style="opacity:1;fill:#000000;fill-opacity:1;stroke:#000000;stroke-width:1;stroke-linecap:round;stroke-linejoin:round;stroke-miterlimit:4;stroke-dasharray:none;stroke-opacity:1"
       id="path4265"
       d="m 964.05096,396.69893 c 3.42731,9.84117 8.07096,19.19329 13.96477,27.77389 8.09498,9.55657 18.52464,16.57723 28.02697,24.58216 0.8932,0.76243 11.9194,8.67614 8.581,10.79247 -4.5605,2.89109 -9.495,5.14518 -14.2425,7.71777 -13.14891,0.81514 -26.35112,0.50406 -39.51973,0.46671 -13.15063,-0.0405 -26.30128,-0.0682 -39.45196,-0.078 0,0 11.38849,-8.27015 11.38849,-8.27015 l 0,0 c 13.12278,0.0518 26.24556,0.10448 39.36839,0.13805 13.13823,0.0149 26.40052,0.52048 39.46871,-0.93756 -3.3777,2.168 -6.8386,4.21154 -10.1332,6.50399 -0.3217,0.22391 0.9552,0.0886 1.1487,-0.25226 0.1979,-0.34847 -0.1358,-0.81235 -0.3528,-1.14925 -2.0087,-3.11865 -5.63251,-4.94132 -8.20913,-7.46509 -9.59504,-8.07848 -20.09297,-15.21537 -28.20528,-24.91761 -5.96329,-8.69402 -10.67273,-18.13394 -14.28158,-28.04885 0,0 12.44915,-6.85629 12.44915,-6.85629 z"
       inkscape:connector-curvature="0" />
    <path
       style="opacity:1;fill:#000000;fill-opacity:1;stroke:#000000;stroke-width:1;stroke-linecap:round;stroke-linejoin:round;stroke-miterlimit:4;stroke-dasharray:none;stroke-opacity:1"
       id="path4267"
       d="m 526.48461,462.25449 c -14.56058,-0.057 -29.12134,-0.0692 -43.68202,-0.0871 -29.60132,-0.031 -59.20264,-0.051 -88.80397,-0.0669 -37.5153,-0.0188 -75.03061,-0.0262 -112.54591,-0.004 -26.82645,0.0165 -53.65291,0.0366 -80.47933,0.0826 -12.25967,0.0233 -24.51935,0.0386 -36.77904,0.0505 -8.21551,0.006 -16.43103,0.003 -24.64654,0.008 -4.66266,0.003 -2.36432,0.002 -6.89501,0.004 0,0 11.46547,-8.33016 11.46547,-8.33016 l 0,0 c 4.52315,0.003 2.22874,10e-4 6.88325,0.004 8.20792,0.005 16.41584,0.002 24.62376,0.008 12.21337,0.0119 24.42674,0.0271 36.64009,0.0505 26.75064,0.0461 53.50132,0.0661 80.25199,0.0826 37.51943,0.0217 75.03886,0.0143 112.55829,-0.004 29.6627,-0.0159 59.3254,-0.0359 88.9881,-0.0669 14.64064,-0.018 29.28137,-0.0303 43.92192,-0.0872 0,0 -11.50105,8.356 -11.50105,8.356 z"
       inkscape:connector-curvature="0" />
    <path
       style="opacity:1;fill:#000000;fill-opacity:1;stroke:#000000;stroke-width:1;stroke-linecap:round;stroke-linejoin:round;stroke-miterlimit:4;stroke-dasharray:none;stroke-opacity:1"
       id="path4269"
       d="m 145.9155,423.06971 c -12.01309,2.51073 -24.26969,3.52046 -36.42898,5.09585 -6.72335,1.7216 -13.992911,1.83665 -20.524909,4.32782 -1.039836,0.39657 -3.961689,2.02846 -2.987893,1.48972 3.283899,-1.81681 6.613391,-3.54995 9.920086,-5.32492 -4.376162,4.47754 0.436047,9.83808 3.028671,13.99618 6.380695,9.80508 13.050715,19.31517 20.800245,28.09243 7.60467,7.97816 16.33712,14.69428 24.87952,21.60685 6.5167,4.92797 13.16379,9.76585 20.62612,13.15642 0,0 -11.8176,7.82102 -11.8176,7.82102 l 0,0 c -7.47191,-3.58126 -14.20797,-8.43635 -20.75657,-13.48185 -8.59818,-6.95758 -17.37305,-13.74276 -24.97548,-21.82468 -7.797314,-8.8383 -14.49467,-18.42502 -20.969916,-28.25842 -2.975131,-4.70969 -7.786764,-10.34587 -3.993582,-15.84523 4.785365,-2.9173 9.498577,-5.95638 14.356094,-8.75189 7.005204,-4.0315 16.135674,-3.19901 23.680324,-5.41175 12.16954,-1.57463 24.45884,-2.54684 36.43608,-5.30694 0,0 -11.27221,8.61939 -11.27221,8.61939 z"
       inkscape:connector-curvature="0" />
    <path
       style="opacity:1;fill:#000000;fill-opacity:1;stroke:#000000;stroke-width:1;stroke-linecap:round;stroke-linejoin:round;stroke-miterlimit:4;stroke-dasharray:none;stroke-opacity:1"
       id="path4271"
       d="m 132.0476,559.75723 c -0.0381,8.91843 -0.0461,17.83702 -0.0554,26.75553 -0.0159,13.49878 -0.0215,26.99757 -0.02,40.49636 3.1e-4,13.35289 0.006,26.70579 0.0114,40.05868 0.008,10.5555 0.0151,21.111 0.0258,31.66649 0.003,8.98241 0.003,17.96482 1.5e-4,26.94722 -0.11822,9.82928 0.28554,19.66831 -0.32899,29.48253 -1.02154,10.28847 -1.78381,20.59255 -2.19894,30.92276 -0.30943,8.91983 -0.32326,17.84585 -0.34157,26.76987 -0.009,8.97332 0.002,17.94665 0.005,26.91997 0.004,10.19907 -0.003,20.39815 -0.009,30.59722 0.004,10.94751 0.003,21.89503 0.003,32.84255 0.20737,8.94983 -1.18811,17.82855 -2.01552,26.71954 -0.62134,6.9262 -0.72937,13.88325 -0.79996,20.8325 -0.21271,5.87009 0.33915,11.77893 -0.30942,17.62279 -1.06816,4.92327 -1.81078,9.88039 -2.20303,14.90101 -0.48713,5.48744 -0.0207,11.0205 -0.65879,16.48842 -0.14004,0.59323 -0.28008,1.18643 -0.42012,1.77973 0,0 -12.84584,6.112 -12.84584,6.112 l 0,0 c 0.17533,-0.5402 0.35066,-1.0804 0.52599,-1.6207 0.88198,-5.4098 0.17898,-10.9519 0.70363,-16.40809 0.34929,-5.04414 0.96373,-10.05285 2.16258,-14.97456 0.90618,-5.76198 0.10789,-11.66483 0.40826,-17.4779 0.0699,-6.98577 0.16325,-13.98078 0.76311,-20.94507 0.8242,-8.86359 2.27158,-17.70898 2.12566,-26.62828 -10e-6,-10.94834 -10e-4,-21.89667 0.002,-32.84501 -0.006,-10.19375 -0.0147,-20.38749 -0.021,-30.58123 -0.008,-8.97189 -0.0173,-17.94378 -0.0205,-26.91567 0.012,-8.94393 0.0502,-17.88947 0.33926,-26.82952 0.41397,-10.34228 1.13171,-20.66186 2.18893,-30.95981 0.69518,-9.77866 0.22827,-19.59184 0.35453,-29.38987 -0.003,-8.98246 -0.003,-17.96491 1.5e-4,-26.94737 0.0106,-10.56425 0.0182,-21.12851 0.0258,-31.69276 0.006,-13.35677 0.0111,-26.71354 0.0114,-40.07031 0.001,-13.49198 -0.004,-26.98397 -0.02,-40.47594 -0.009,-8.8997 -0.0172,-17.79949 -0.0554,-26.69911 0,0 12.66663,-6.45397 12.66663,-6.45397 z"
       inkscape:connector-curvature="0" />
    <path
       style="opacity:1;fill:#000000;fill-opacity:1;stroke:#000000;stroke-width:1;stroke-linecap:round;stroke-linejoin:round;stroke-miterlimit:4;stroke-dasharray:none;stroke-opacity:1"
       id="path4273"
       d="m 159.15952,564.89119 c 7.21122,-1.12902 14.48637,-1.72809 21.77025,-2.11702 6.19045,-0.28561 12.3886,-0.30413 18.58429,-0.31603 4.82971,-0.30328 9.03393,0.72728 10.16666,5.78284 0.15992,9.74993 -0.23198,19.52308 -0.35806,29.27957 -0.20515,19.10122 -0.23187,38.20384 -0.24014,57.30598 -0.008,16.80225 0.0141,33.60449 0.0196,50.40673 0.0102,14.38254 0.007,28.76508 0.0154,43.14762 7.9e-4,13.09631 0.011,26.19264 0.005,39.28896 -0.01,14.34333 -0.0107,28.68666 -0.0141,43.02999 -0.001,13.98673 0.007,27.97345 0.0155,41.96018 0.005,10.30786 0.028,20.6157 0.0292,30.92356 9.3e-4,7.99648 0.007,15.99295 0.0152,23.98942 0.3299,5.79074 -0.0902,11.4135 -1.21573,17.08219 -1.06432,5.11261 -1.34224,10.33092 -1.52546,15.53506 -0.1445,5.662 -0.12781,11.32651 -0.12506,16.98988 -0.008,4.8543 0.0255,9.7085 0.0303,14.56276 -0.10068,4.65667 0.25812,9.33242 -0.29953,13.96272 -1.60077,6.7195 -2.8209,3.3773 -14.10942,7.8981 0,0 12.33661,-7.1202 12.33661,-7.1202 l 0,0 c -20.95801,12.9458 -12.75713,10.7736 -10.97685,5.4867 0.79117,-4.5371 0.2232,-9.1799 0.37847,-13.76998 -0.003,-4.85927 0.016,-9.71851 -0.001,-14.57779 -0.004,-5.67691 -0.0222,-11.35469 0.10064,-17.03063 0.16,-5.26794 0.38904,-10.55493 1.41232,-15.73982 1.12826,-5.60171 1.80366,-11.10094 1.37198,-16.8472 0.008,-8.00164 0.0143,-16.00327 0.0152,-24.00491 0.001,-10.31779 0.0247,-20.63555 0.0292,-30.95333 0.008,-13.992 0.0169,-27.98399 0.0155,-41.97599 -0.003,-14.33853 -0.004,-28.67707 -0.0141,-43.0156 -0.006,-13.09804 0.005,-26.19609 0.005,-39.29413 0.007,-14.38679 0.003,-28.77359 0.01,-43.16039 0.002,-16.81229 0.0187,-33.62458 0.036,-50.43687 0.0323,-19.0975 0.048,-38.19517 0.18252,-57.29231 0.088,-9.64476 0.27495,-19.29172 0.29867,-28.93519 -0.63858,-4.48701 -5.35647,-4.21386 -9.08464,-4.13631 -6.17557,0.0182 -12.35384,0.0491 -18.52291,0.36482 -7.26923,0.42352 -14.53231,1.05096 -21.71698,2.27084 0,0 11.36073,-8.54422 11.36073,-8.54422 z"
       inkscape:connector-curvature="0" />
    <path
       style="opacity:1;fill:#000000;fill-opacity:1;stroke:#000000;stroke-width:1;stroke-linecap:round;stroke-linejoin:round;stroke-miterlimit:4;stroke-dasharray:none;stroke-opacity:1"
       id="path4275"
       d="m 127.80111,713.89849 c 8.6233,0.027 17.24667,0.0275 25.87001,0.0318 10.86752,0.005 21.73505,0.007 32.60258,-0.003 5.78855,-0.006 2.96567,-0.003 8.46898,-0.009 0,0 -11.4471,8.3168 -11.4471,8.3168 l 0,0 c -5.48727,-0.006 -2.67254,-0.003 -8.44419,-0.009 -10.86458,-0.0101 -21.72917,-0.008 -32.59375,-0.003 -8.65253,0.004 -17.3051,0.005 -25.95759,0.0318 0,0 11.50106,-8.356 11.50106,-8.356 z"
       inkscape:connector-curvature="0" />
    <path
       style="opacity:1;fill:#000000;fill-opacity:1;stroke:#000000;stroke-width:1;stroke-linecap:round;stroke-linejoin:round;stroke-miterlimit:4;stroke-dasharray:none;stroke-opacity:1"
       id="path4277"
       d="m 119.09081,904.46186 c 9.2206,-2.67297 18.77854,-3.56502 28.31469,-4.21205 11.93584,-0.58407 23.88988,-0.61063 35.83723,-0.64157 8.85647,-0.0105 17.71295,0.003 26.56943,0.008 1.12352,5.2e-4 2.24704,0.001 3.37056,0.002 0,0 -11.4659,8.32832 -11.4659,8.32832 l 0,0 c -1.12136,-0.002 -2.24272,-0.004 -3.36408,-0.007 -8.83764,-0.0205 -17.67528,-0.049 -26.51296,-0.0425 -11.92895,0.03 -23.86694,0.0452 -35.78071,0.72011 -9.50803,0.71098 -19.0542,1.67428 -28.19158,4.56368 0,0 11.22332,-8.71935 11.22332,-8.71935 z"
       inkscape:connector-curvature="0" />
    <path
       style="opacity:1;fill:#000000;fill-opacity:1;stroke:#000000;stroke-width:1;stroke-linecap:round;stroke-linejoin:round;stroke-miterlimit:4;stroke-dasharray:none;stroke-opacity:1"
       id="path4279"
       d="m 363.47617,396.90009 c -0.0457,9.76813 -0.0544,19.53642 -0.0671,29.30464 -0.004,13.79907 -0.005,27.59813 -0.0125,41.39719 0.002,15.42925 -0.008,30.85849 -0.0132,46.28773 -0.002,17.49428 -0.008,34.98856 -0.0182,52.48284 -0.0196,20.39566 -0.0117,40.79133 -0.0138,61.18699 0.005,18.95237 0.0155,37.90474 0.021,56.85712 -0.004,18.66887 -0.006,37.33775 -0.0117,56.00662 6.5e-4,18.47953 0.009,36.95907 0.0126,55.4386 0.0116,16.4697 0.006,32.9394 0.0147,49.40909 0.0123,12.58415 0.0233,25.16829 0.0401,37.75243 0.0949,10.03703 -1.32557,20.00856 -2.04433,30.00768 -0.6146,9.79836 -0.72771,19.61827 -0.79236,29.43272 -0.0293,6.81456 -0.01,13.62919 10e-4,20.44376 0.009,5.73316 0.0121,11.46633 0.0137,17.1995 9.7e-4,4.74693 9e-4,9.49387 8.9e-4,14.2408 0,0 -12.64235,6.4416 -12.64235,6.4416 l 0,0 c -8e-5,-4.74676 -1.4e-4,-9.49353 -0.001,-14.24031 -10e-4,-5.73356 -0.004,-11.46712 -0.009,-17.20068 -0.004,-6.82533 -0.0107,-13.65074 0.0352,-20.47596 0.0827,-9.84349 0.19328,-19.69169 0.77071,-29.52113 0.68727,-9.97573 2.13381,-19.91528 2.09668,-29.92302 0.0168,-12.59776 0.0278,-25.19553 0.0401,-37.79329 0.009,-16.47469 0.003,-32.94938 0.0147,-49.42406 0.004,-18.48381 0.012,-36.96763 0.0126,-55.45144 -0.006,-18.66492 -0.008,-37.32983 -0.0117,-55.99474 0.006,-18.95952 0.0161,-37.91904 0.021,-56.87856 -0.002,-20.39096 0.006,-40.78192 -0.0138,-61.17288 -0.0104,-17.48809 -0.0159,-34.97618 -0.0182,-52.46428 -0.005,-15.42477 -0.0148,-30.84954 -0.0132,-46.27431 -0.008,-13.79481 -0.008,-27.58963 -0.0125,-41.38444 -0.0127,-9.74543 -0.0214,-19.49091 -0.0671,-29.23624 0,0 12.66663,-6.45397 12.66663,-6.45397 z"
       inkscape:connector-curvature="0" />
    <path
       style="opacity:1;fill:#000000;fill-opacity:1;stroke:#000000;stroke-width:1;stroke-linecap:round;stroke-linejoin:round;stroke-miterlimit:4;stroke-dasharray:none;stroke-opacity:1"
       id="path4281"
       d="m 379.56675,385.33047 c 9.98162,0.0433 19.96339,0.0285 29.94508,0.0276 9.08237,-0.006 18.16474,-0.004 27.24711,-0.0107 6.51565,0.29495 13.13459,-0.58969 19.59658,0.40206 5.48004,1.96219 6.76163,7.95323 8.45176,12.95109 4.79282,14.24817 6.76325,29.08507 8.70684,43.91711 3.38892,19.26614 5.20583,38.70239 6.18106,58.22217 0.81245,20.06042 0.82437,40.14129 0.86995,60.21462 0.002,17.86738 -0.0163,35.73474 -0.0258,53.60211 -0.009,17.72695 -0.0222,35.45388 -0.036,53.18082 -0.25973,19.93568 -0.0492,39.84257 1.60683,59.71623 1.87088,17.62403 3.0728,35.2995 3.70282,53.00834 0.33624,15.56883 0.30812,31.11826 1.2666,46.66425 0.98827,14.50725 1.56406,29.03692 1.85881,43.5735 0.19503,10.75745 0.22598,21.51695 0.2319,32.27589 0.006,8.04858 -0.002,16.09716 10e-4,24.14574 0.003,6.19358 0.005,12.38716 0.006,18.58074 7.9e-4,5.71161 7.9e-4,11.42322 8.1e-4,17.13483 0,5.70662 -3e-5,11.41325 -4e-5,17.11988 0.008,5.48423 -0.0158,10.96855 0.0103,16.45273 0,0 -12.6629,6.45202 -12.6629,6.45202 l 0,0 c 0.026,-5.48764 0.002,-10.97546 0.0103,-16.46319 -3e-5,-5.70659 -8e-5,-11.41318 -1.7e-4,-17.11977 -7e-5,-5.71191 -2.7e-4,-11.42383 8.2e-4,-17.13574 0.002,-6.19732 0.005,-12.39463 0.0143,-18.59194 0.0118,-8.05408 0.0203,-16.10817 0.0336,-24.16225 0.002,-10.76056 0.0104,-21.52169 -0.16044,-32.28125 -0.28285,-14.52342 -0.78614,-29.04285 -1.80165,-43.53582 -0.98378,-15.56084 -0.97258,-31.12116 -1.26704,-46.70736 -0.60509,-17.6958 -1.74558,-35.36224 -3.62327,-52.97246 -1.68568,-19.90642 -1.92408,-39.8476 -1.66376,-59.81857 -0.0114,-17.7205 -0.0223,-35.44102 -0.004,-53.16153 0.0208,-17.87205 0.061,-35.74409 0.0604,-53.61616 -0.0111,-20.0572 -0.0283,-40.12176 -0.81548,-60.16671 -0.9682,-19.47893 -2.741,-38.88408 -6.15935,-58.105 -1.96348,-14.72218 -3.862,-29.47228 -8.73612,-43.58858 -1.5163,-4.4496 -2.55925,-10.19578 -7.64954,-11.59092 -6.44907,-0.68076 -12.97632,-0.055 -19.45021,-0.28148 -9.07258,-0.006 -18.14516,-0.005 -27.21774,-0.0107 -10.00698,-9e-4 -20.01404,-0.0156 -30.02096,0.0276 0,0 11.49167,-8.34918 11.49167,-8.34918 z"
       inkscape:connector-curvature="0" />
    <path
       style="opacity:1;fill:#000000;fill-opacity:1;stroke:#000000;stroke-width:1;stroke-linecap:round;stroke-linejoin:round;stroke-miterlimit:4;stroke-dasharray:none;stroke-opacity:1"
       id="path4283"
       d="m 367.80111,573.89849 c 8.62778,0.0296 17.25566,0.0295 25.88348,0.0276 9.1811,-0.001 18.3622,-0.001 27.5433,-0.005 6.99984,-0.005 13.99968,-0.0101 20.99952,-0.0128 0,0 -11.47342,8.33592 -11.47342,8.33592 l 0,0 c -6.9881,-0.003 -13.9762,-0.008 -20.96429,-0.0128 -9.1767,-0.004 -18.35341,-0.003 -27.53011,-0.005 -8.65318,-0.002 -17.3064,-0.002 -25.95954,0.0276 0,0 11.50106,-8.356 11.50106,-8.356 z"
       inkscape:connector-curvature="0" />
    <path
       style="opacity:1;fill:#000000;fill-opacity:1;stroke:#000000;stroke-width:1;stroke-linecap:round;stroke-linejoin:round;stroke-miterlimit:4;stroke-dasharray:none;stroke-opacity:1"
       id="path4285"
       d="m 388.13818,856.75904 c 15.91692,0.0643 31.83401,0.0743 47.75105,0.0902 20.33661,0.018 40.67323,-0.003 61.0098,-0.0415 2.02403,-0.004 4.04806,-0.008 6.07209,-0.0122 0,0 -11.39104,8.27607 -11.39104,8.27607 l 0,0 c -2.01285,-0.004 -4.0257,-0.008 -6.03855,-0.0122 -20.2985,-0.0386 -40.59703,-0.0595 -60.89556,-0.0415 -15.99984,0.016 -31.99973,0.0262 -47.99946,0.0902 0,0 11.49167,-8.34919 11.49167,-8.34919 z"
       inkscape:connector-curvature="0" />
    <path
       style="opacity:1;fill:#000000;fill-opacity:1;stroke:#000000;stroke-width:1;stroke-linecap:round;stroke-linejoin:round;stroke-miterlimit:4;stroke-dasharray:none;stroke-opacity:1"
       id="path4287"
       d="m 697.76188,599.75723 c -0.10517,16.41058 -0.12487,32.8217 -0.1499,49.23258 -0.0379,26.81167 -0.029,53.62336 -0.0164,80.43505 0.0317,21.29753 0.0423,42.59508 0.0495,63.89263 0.007,17.70349 0.01,35.40698 0.0285,53.11046 0.01,12.52632 0.0324,25.05262 0.0375,37.57894 0.009,8.08936 0.0241,16.17871 0.0325,24.26808 0.005,5.8632 0.006,11.7264 0.006,17.5896 1.5e-4,5.68659 -3e-5,11.37319 -1.1e-4,17.05978 -8e-5,5.71021 -9e-5,11.42041 -10e-5,17.13062 -10e-6,5.71446 -10e-6,11.42892 -10e-6,17.14338 0,3.80959 0,7.61918 0,11.42877 0,0 -12.64222,6.44154 -12.64222,6.44154 l 0,0 c 0,-3.80959 0,-7.61918 0,-11.42877 0,-5.71446 0,-11.42892 0,-17.14338 -10e-6,-5.71017 -3e-5,-11.42034 -1.1e-4,-17.13051 -8e-5,-5.68656 -2.6e-4,-11.37312 -1.1e-4,-17.05968 3.7e-4,-5.86535 9.1e-4,-11.7307 0.006,-17.59605 0.008,-8.1004 0.0238,-16.20078 0.0325,-24.30117 0.005,-12.53907 0.0275,-25.07812 0.0375,-37.61719 0.019,-17.71316 0.0213,-35.42633 0.0285,-53.13949 0.007,-21.31437 0.0178,-42.62873 0.0495,-63.94308 0.0126,-26.80611 0.0215,-53.61223 -0.0164,-80.41833 -0.025,-16.35996 -0.0445,-32.72016 -0.14991,-49.07981 0,0 12.66662,-6.45397 12.66662,-6.45397 z"
       inkscape:connector-curvature="0" />
    <path
       style="opacity:1;fill:#000000;fill-opacity:1;stroke:#000000;stroke-width:1;stroke-linecap:round;stroke-linejoin:round;stroke-miterlimit:4;stroke-dasharray:none;stroke-opacity:1"
       id="path4289"
       d="m 719.22968,596.75563 c 7.62249,0.0263 15.24506,0.0174 22.86759,0.0228 9.70563,0.006 19.41127,0.009 29.11691,0.005 7.45588,-0.006 14.91177,-0.0129 22.36765,-0.0168 5.60724,-0.31205 10.39537,-0.28335 13.65541,4.74981 3.92004,9.0029 6.44542,18.49398 8.97397,27.96024 3.79847,18.03697 8.71073,35.81483 14.05912,53.44729 4.93126,17.36465 9.32059,34.91695 12.46655,52.69778 2.72878,18.80041 6.06709,37.51084 8.77454,56.3146 2.86947,16.64646 4.63118,33.42961 5.56141,50.28681 0.63557,13.84611 0.65999,27.70983 0.68063,41.56746 -4e-4,11.929 -0.0232,23.85798 -0.0347,35.78697 -0.0137,11.15957 -0.008,22.31915 -0.005,33.47872 -5.7e-4,9.29145 0.007,18.5829 0.0195,27.87435 0.004,7.08708 0.006,14.17417 0.0103,21.26124 0.21861,5.2482 -0.8528,10.3851 -2.75008,15.2479 -1.51516,4.0202 -3.45134,7.8901 -5.4906,11.6715 -4.62786,11.3758 -3.75813,8.5639 -18.0633,16.1247 -2.72106,-2.6504 -4.19759,-6.715 -5.93536,-10.0445 0,0 12.24381,-7.0103 12.24381,-7.0103 l 0,0 c 1.11727,2.0739 2.94838,7.1137 5.09824,8.5157 -25.05022,15.0837 -10.89333,8.004 -8.68948,4.4487 1.19564,-1.9289 1.31395,-4.2239 2.38087,-6.2081 1.98432,-3.7777 4.06811,-7.5328 5.55813,-11.5321 1.92527,-4.7069 3.26543,-9.6283 3.01795,-14.7782 0.005,-7.0905 0.006,-14.18107 0.01,-21.27157 0.0121,-9.29818 0.0193,-18.59637 0.0198,-27.89456 0.005,-11.16273 0.0135,-22.32545 0.0207,-33.48818 0.014,-11.9316 0.0412,-23.86316 0.056,-35.79475 -0.004,-13.84179 -0.01,-27.68946 -0.60732,-41.52117 -0.89249,-16.82715 -2.57752,-33.58816 -5.45683,-50.20237 -2.67173,-18.79288 -6.03123,-37.48464 -8.76772,-56.26764 -3.10001,-17.73591 -7.48758,-35.23652 -12.36333,-52.56151 -5.36819,-17.63515 -10.30459,-35.41932 -14.13383,-53.45795 -2.52106,-9.30907 -5.08695,-18.61391 -8.92615,-27.47598 -2.94695,-4.47434 -8.04267,-3.63599 -12.85429,-3.59054 -7.44051,-0.004 -14.88101,-0.0111 -22.32152,-0.0168 -9.71006,-0.004 -19.42014,-10e-4 -29.1302,0.005 -7.64341,0.005 -15.28686,-0.004 -22.93023,0.0228 0,0 11.50105,-8.35601 11.50105,-8.35601 z"
       inkscape:connector-curvature="0" />
    <path
       style="opacity:1;fill:#000000;fill-opacity:1;stroke:#000000;stroke-width:1;stroke-linecap:round;stroke-linejoin:round;stroke-miterlimit:4;stroke-dasharray:none;stroke-opacity:1"
       id="path4291"
       d="m 716.37254,756.75563 c 10.51947,0.0408 21.03908,0.0409 31.55862,0.0428 10.53833,-0.001 21.07666,-0.0104 31.61499,-0.0205 6.67183,-0.007 13.34365,-0.0113 20.01548,-0.0133 0,0 -11.47627,8.338 -11.47627,8.338 l 0,0 c -6.65967,-0.002 -13.31933,-0.006 -19.979,-0.0132 -10.51949,-0.0101 -21.039,-0.0192 -31.5585,-0.0205 -10.55879,0.002 -21.11765,0.002 -31.67638,0.0428 0,0 11.50106,-8.35601 11.50106,-8.35601 z"
       inkscape:connector-curvature="0" />
    <path
       style="opacity:1;fill:#000000;fill-opacity:1;stroke:#000000;stroke-width:1;stroke-linecap:round;stroke-linejoin:round;stroke-miterlimit:4;stroke-dasharray:none;stroke-opacity:1"
       id="path4293"
       d="m 693.85246,822.47333 c 16.97236,0.0765 33.94496,0.0788 50.91746,0.0922 23.3295,0.0144 46.65899,0.003 69.98849,-0.0109 13.25186,-0.0212 26.50386,-0.0176 39.75566,-0.0694 0,0 -11.45886,8.32535 -11.45886,8.32535 l 0,0 c -13.18815,-0.0521 -26.3765,-0.048 -39.56472,-0.0694 -23.31945,-0.0139 -46.63889,-0.0254 -69.95834,-0.0109 -17.05713,0.0135 -34.11436,0.016 -51.17135,0.0922 0,0 11.49166,-8.34918 11.49166,-8.34918 z"
       inkscape:connector-curvature="0" />
    <path
       style="opacity:1;fill:#000000;fill-opacity:1;stroke:#000000;stroke-width:1;stroke-linecap:round;stroke-linejoin:round;stroke-miterlimit:4;stroke-dasharray:none;stroke-opacity:1"
       id="path4295"
       d="m 1014.8996,677.24449 c -0.088,14.5341 -0.093,29.06864 -0.1104,43.60296 -0.015,21.31932 -0.017,42.63866 -0.021,63.95799 0.01,21.11564 -0.01,42.23127 0.023,63.3469 0.013,15.04256 0.036,30.08511 0.048,45.12768 0.015,11.5763 0.01,23.15264 0.01,34.72896 0,9.38534 0.018,18.77067 0.032,28.15599 0.01,6.09977 0.011,12.19955 0.012,18.29933 6e-4,5.6813 3e-4,11.36261 2e-4,17.04392 0.012,2.565 0,1.43968 0.024,3.37602 0,0 -12.6916,6.46676 -12.6916,6.46676 l 0,0 c 0.023,-1.95439 0.012,-0.8207 0.024,-3.40106 -1e-4,-5.6814 -3e-4,-11.36279 3e-4,-17.04418 10e-4,-6.10382 0,-12.20764 0.012,-18.31145 0.014,-9.39626 0.036,-18.79251 0.032,-28.18878 4e-4,-11.57923 -0.01,-23.15847 0.01,-34.73769 0.012,-15.05893 0.035,-30.11785 0.048,-45.17678 0.028,-21.12356 0.017,-42.24712 0.023,-63.3707 0,-21.31221 -0.01,-42.62444 -0.021,-63.93665 -0.018,-14.49685 -0.022,-28.99391 -0.1103,-43.49053 0,0 12.6563,-6.44869 12.6563,-6.44869 z"
       inkscape:connector-curvature="0" />
    <path
       style="opacity:1;fill:#000000;fill-opacity:1;stroke:#000000;stroke-width:1;stroke-linecap:round;stroke-linejoin:round;stroke-miterlimit:4;stroke-dasharray:none;stroke-opacity:1"
       id="path4297"
       d="m 1036.7096,682.47333 c 8.7516,0.0382 17.5034,0.0229 26.2551,0.0159 6.0593,-0.59765 11.8762,0.82098 17.792,1.80414 5.1913,0.98628 10.5309,0.46428 15.7023,1.43511 4.7079,0.67116 9.1027,2.25775 13.6248,3.61981 4.5006,0.76682 8.1105,3.43906 10.6544,7.13899 3.7343,4.30245 4.6088,9.96551 6.1085,15.2832 4.8459,14.69769 9.1316,29.5535 13.1158,44.50477 5.6078,20.68887 8.9888,41.89419 12.9198,62.94675 3.2115,15.6797 3.6318,31.67716 4.9573,47.56397 1.5178,13.11226 1.7177,26.32025 2.77,39.46347 1.1743,11.04588 2.0563,22.11121 2.5134,33.20958 0.3354,8.34353 0.6036,16.6571 -0.4194,24.95503 -0.5531,5.91508 -1.6325,11.66381 -3.1155,17.40289 -0.8981,4.77333 -2.8965,9.24516 -5.2965,13.43756 -2.2295,4.0002 -4.7572,7.8447 -6.3265,12.1642 -1.7302,4.0654 -2.8034,8.2709 -6.1648,11.2981 -14.3926,7.8926 -8.687,8.7109 -15.7452,7.1483 0,0 11.5924,-8.2462 11.5924,-8.2462 l 0,0 c 5.6892,-0.2804 2.0014,-0.3464 -9.053,6.3625 3.9061,-2.4867 4.6596,-6.5114 6.5091,-10.5282 1.4063,-4.4912 3.934,-8.3622 6.198,-12.4544 2.5749,-3.93988 4.5395,-8.43569 5.476,-13.05383 1.4476,-5.71095 2.7727,-11.35783 3.2267,-17.26396 1.1076,-8.23224 0.9006,-16.47137 0.5665,-24.76307 -0.4292,-11.08795 -1.2594,-22.14659 -2.4419,-33.18077 -1.0919,-13.14122 -1.2297,-26.35544 -2.7542,-39.46889 -1.321,-15.85408 -1.653,-31.82517 -4.8117,-47.4824 -3.8643,-21.03084 -7.2225,-42.21176 -12.8463,-62.8619 -4.016,-14.91992 -8.3425,-29.7418 -13.2848,-44.38483 -1.5025,-5.15652 -2.3225,-10.66056 -5.9456,-14.84176 -2.4518,-3.4947 -5.9414,-5.5614 -10.1421,-6.34567 -4.4515,-1.40772 -8.8675,-2.77864 -13.5077,-3.46228 -5.2079,-0.71191 -10.5226,-0.42997 -15.7065,-1.44486 -5.8471,-1.01952 -11.6289,-2.15462 -17.6133,-1.63791 -8.7663,-0.007 -17.5326,-0.0222 -26.2988,0.0159 0,0 11.4917,-8.34918 11.4917,-8.34918 z"
       inkscape:connector-curvature="0" />
    <path
       style="opacity:1;fill:#000000;fill-opacity:1;stroke:#000000;stroke-width:1;stroke-linecap:round;stroke-linejoin:round;stroke-miterlimit:4;stroke-dasharray:none;stroke-opacity:1"
       id="path4299"
       d="m 1010.9953,802.47333 c 10.71,0.0419 21.4202,0.0389 32.1302,0.0331 10.3824,-0.008 20.7648,-0.007 31.1472,-0.005 9.6227,-0.007 19.2455,-0.002 28.8683,-0.006 7.3122,-0.0112 14.6246,0.0195 21.9367,-0.0288 1.2593,-0.0226 0.5791,-0.21517 1.0933,1.81747 0,0 -13.203,5.41057 -13.203,5.41057 l 0,0 c 1.3444,1.28327 1.7526,1.15574 0.6004,1.13393 -7.2857,-0.049 -14.5716,-0.017 -21.8574,-0.0288 -9.6172,-0.004 -19.2345,5.5e-4 -28.8517,-0.006 -10.3781,0.002 -20.7562,0.003 -31.1342,-0.005 -10.7405,-0.006 -21.4811,-0.009 -32.22145,0.0331 0,0 11.49165,-8.34918 11.49165,-8.34918 z"
       inkscape:connector-curvature="0" />
    <path
       style="opacity:1;fill:#000000;fill-opacity:1;stroke:#000000;stroke-width:1;stroke-linecap:round;stroke-linejoin:round;stroke-miterlimit:4;stroke-dasharray:none;stroke-opacity:1"
       id="path4301"
       d="m 1019.2975,885.76463 c 12.1777,1.75148 24.5127,1.90202 36.7905,2.17875 20.5163,0.33864 41.0363,0.3377 61.5548,0.33681 13.4163,0.0746 26.6218,2.63083 39.8715,4.42348 1.2979,0.14882 2.5959,0.29764 3.8939,0.44647 0,0 -11.5473,8.18254 -11.5473,8.18254 l 0,0 c -1.298,-0.15993 -2.596,-0.31987 -3.894,-0.4798 -13.1531,-1.86442 -26.2801,-4.36383 -39.6149,-4.37072 -20.5321,-0.0308 -41.0656,-0.0275 -61.5958,-0.34402 -12.3809,-0.26902 -24.8177,-0.42151 -37.0954,-2.20912 0,0 11.6367,-8.16439 11.6367,-8.16439 z"
       inkscape:connector-curvature="0" />
    <path
       style="opacity:1;fill:#000000;fill-opacity:1;stroke:#000000;stroke-width:1;stroke-linecap:round;stroke-linejoin:round;stroke-miterlimit:4;stroke-dasharray:none;stroke-opacity:1"
       id="path4303"
       d="m 1250.8147,1001.7656 c 0.097,-16.04482 0.1099,-32.09014 0.1352,-48.13525 0.015,-24.9281 0.018,-49.8562 0.028,-74.7843 0,-25.95441 -0.01,-51.90882 -7e-4,-77.86323 0.9709,-24.64955 -2.2465,-49.07532 -5.0809,-73.48575 -1.6672,-16.66024 -4.1359,-33.21745 -5.4955,-49.90921 -1.035,-12.22604 -0.6228,-24.50663 -1.3205,-36.74319 -0.6926,-13.36708 -2.0441,-26.66161 -3.4457,-39.96717 -1.0281,-9.28635 -1.6091,-18.60736 -1.8568,-27.94427 -0.1387,-6.54634 -0.1283,-13.09452 -0.1219,-19.64195 0.01,-5.74358 0.016,-11.48715 0.02,-17.23073 0,-5.70309 0,-11.40618 0,-17.10927 0.3756,-4.75298 1.4799,-9.33761 3.7942,-13.51354 4.5783,-8.08821 14.1293,-11.31643 22.5363,-14.28639 5.3327,-1.84376 10.9467,-2.40015 16.5404,-2.75204 5.7395,-0.26944 11.4875,-0.24423 17.2319,-0.24056 5.7194,0.0112 11.4388,0.0223 17.1582,0.0281 5.7142,0.005 11.4283,0.005 17.1425,0.006 5.7142,1.3e-4 11.4284,-2e-5 17.1426,-9e-5 5.3667,-0.0194 10.696,-0.90811 14.9799,2.84806 5.1702,5.33871 7.7397,13.09382 10.5226,19.87456 6.515,17.53675 13.0216,35.05241 18.4364,52.96493 4.8424,15.72343 9.6084,31.46916 14.0997,47.2967 4.1896,12.01142 6.4986,24.54589 9.4621,36.88911 3.7648,11.16014 5.4451,22.75446 7.2767,34.3301 2.0166,10.79942 2.749,21.76131 3.152,32.72074 -0.086,11.34146 0.5793,22.6086 1.5718,33.89763 1.0368,11.39928 1.2898,22.84443 1.4526,34.28277 0.1353,11.7741 0.1198,23.54936 0.1141,35.32405 0.01,10.81805 -0.01,21.63609 0,32.45414 0,9.31578 0,18.63157 0.01,27.94736 0.013,7.4015 0.01,14.803 0.012,22.2045 -0.01,7.04308 6e-4,14.08616 0,21.12924 0,5.91175 0,11.82351 0.01,17.73526 4e-4,5.70602 3e-4,11.41203 3e-4,17.11804 -10e-5,5.71068 -10e-5,11.42135 -10e-5,17.13203 0,5.71419 0,11.42838 0,17.14256 0.2731,5.21008 -0.3132,10.34676 -1.9434,15.30066 0,0 -12.881,6.0006 -12.881,6.0006 l 0,0 c 1.932,-4.6986 2.377,-9.8166 2.1822,-14.85972 0,-5.71419 0,-11.42837 0,-17.14256 0,-5.71065 0,-11.42131 -1e-4,-17.13196 0,-5.7061 -10e-5,-11.41219 3e-4,-17.11829 5e-4,-5.91349 0,-11.82698 0.01,-17.74046 0,-7.04475 0.013,-14.0895 0,-21.13424 0,-7.40562 0,-14.81124 0.012,-22.21685 0.01,-9.32021 0.01,-18.64042 0.015,-27.96062 0.012,-10.82195 0.01,-21.64391 0.027,-32.46584 0,-11.7697 0.02,-23.53972 -0.099,-35.30899 -0.1619,-11.4036 -0.4117,-22.81466 -1.4247,-34.1807 -0.9933,-11.31227 -1.7247,-22.59879 -1.5972,-33.96548 -0.3981,-10.90661 -1.0779,-21.8189 -3.0722,-32.56983 -1.8453,-11.53672 -3.4136,-23.12042 -7.2166,-34.23734 -2.9678,-12.3261 -5.2258,-24.8554 -9.4086,-36.85385 -4.4791,-15.83062 -9.1387,-31.607 -13.9958,-47.32605 -5.3903,-17.86731 -11.8824,-35.33262 -18.4636,-52.79104 -2.7359,-6.54906 -5.2756,-14.06697 -10.3124,-19.19926 -4.1154,-3.16928 -9.5325,-1.8423 -14.4074,-2.05004 -5.7142,7e-5 -11.4285,2.4e-4 -17.1427,0 -5.7144,-4.6e-4 -11.4288,-0.001 -17.1433,-0.007 -5.719,-0.007 -11.4381,-0.0195 -17.1572,-0.0272 -5.7253,0.003 -11.4558,-0.0154 -17.1735,0.32057 -5.5408,0.42561 -11.0742,1.12506 -16.3229,3.05847 -5.3753,1.8354 -12.2865,5.98174 5.7709,-4.52112 2.0246,-1.17757 -5.7037,3.6171 -4.1009,4.33818 -2.6276,3.81103 -3.5371,8.28148 -4.1553,12.81524 -10e-5,5.70331 0,11.40663 0,17.10994 0,5.74458 -0.01,11.48916 -0.023,17.23372 -0.013,6.54103 -0.036,13.08266 0.077,19.62303 0.2154,9.31442 0.7375,18.61739 1.7286,27.88457 1.3833,13.32569 2.7625,26.63556 3.4826,40.01921 0.7536,12.22798 0.3101,24.50265 1.2925,36.72596 1.2934,16.70024 3.7017,33.26786 5.3427,49.93337 2.788,24.47167 6.0543,48.95429 5.0899,73.66 0.01,25.95466 0,51.9093 -7e-4,77.86396 0.01,24.91864 0.012,49.83729 0.028,74.75593 0.025,15.99919 0.038,31.99859 0.1352,47.99752 0,0 -12.6563,6.44867 -12.6563,6.44867 z"
       inkscape:connector-curvature="0" />
    <path
       style="opacity:1;fill:#000000;fill-opacity:1;stroke:#000000;stroke-width:1;stroke-linecap:round;stroke-linejoin:round;stroke-miterlimit:4;stroke-dasharray:none;stroke-opacity:1"
       id="path4305"
       d="m 1267.8689,671.47892 c 12.8109,3.04406 26.0065,3.82829 39.1107,4.5332 16.7976,1.49717 33.4798,3.92882 50.297,5.28846 10.3683,1.23516 20.8957,0.42677 31.2486,1.60934 5.4395,0.28286 10.3098,2.66133 15.4991,3.99358 3.4963,2.21837 8.0019,2.11374 11.4585,4.23196 0.9185,1.31746 0.6531,0.57595 0.7486,2.24101 0,0 -12.9555,5.9644 -12.9555,5.9644 l 0,0 c 0.7841,0.0108 0.724,0.17 0.2821,-0.42555 -3.5659,-1.69398 -7.712,-2.0908 -11.2412,-3.96698 -5.0899,-1.42924 -9.9651,-3.57969 -15.3326,-3.8352 -10.3347,-0.97266 -20.787,-0.47133 -31.1186,-1.66503 -16.794,-1.42148 -33.4616,-3.88412 -50.2531,-5.27147 -13.2013,-0.72837 -26.4404,-1.65059 -39.3803,-4.53334 0,0 11.6367,-8.16438 11.6367,-8.16438 z"
       inkscape:connector-curvature="0" />
    <path
       style="opacity:1;fill:#000000;fill-opacity:1;stroke:#000000;stroke-width:1;stroke-linecap:round;stroke-linejoin:round;stroke-miterlimit:4;stroke-dasharray:none;stroke-opacity:1"
       id="path4307"
       d="m 1270.6583,871.04135 c 14.1472,0.0658 28.2947,0.0641 42.4421,0.0688 17.4154,0.0142 34.8309,3.2e-4 52.2463,-0.0163 9.3857,-0.0123 18.7714,-0.0299 28.1572,-0.0391 3.0271,-0.003 6.0542,-0.004 9.0813,-0.005 0,0 -11.4774,8.33882 -11.4774,8.33882 l 0,0 c -3.0227,-9.8e-4 -6.0455,-0.002 -9.0682,-0.005 -9.3498,-0.009 -18.6996,-0.0269 -28.0494,-0.0392 -17.4005,-0.0166 -34.801,-0.0304 -52.2014,-0.0163 -14.2106,0.005 -28.4212,0.003 -42.6316,0.0688 0,0 11.5011,-8.356 11.5011,-8.356 z"
       inkscape:connector-curvature="0" />
    <path
       style="opacity:1;fill:#000000;fill-opacity:1;stroke:#000000;stroke-width:1;stroke-linecap:round;stroke-linejoin:round;stroke-miterlimit:4;stroke-dasharray:none;stroke-opacity:1"
       id="path4309"
       d="m -76.523831,-171.67134 c -0.03982,7.63874 -0.02634,15.27766 -0.0345,22.91649 -0.01071,8.88789 -0.0046,17.77579 0.0059,26.66368 0.0087,6.44193 0.01308,12.88388 0.01525,19.32582 0.1915,5.564383 -0.388832,11.180008 0.303582,16.712855 1.399767,4.689633 6.077997,5.090977 10.2876,5.542912 10.058424,0.428636 20.134441,0.279834 30.199768,0.253377 15.673895,-0.03855 31.3478558,-0.05261 47.021795,-0.0575 18.759185,-0.0029 37.518372,-5.46e-4 56.277557,0.0037 19.286915,-9.41e-4 38.573839,-8.03e-4 57.860749,-0.0048 16.37613,0.0061 32.75226,-0.01336 49.12839,-0.02476 12.89136,0.0013 25.78272,-0.0092 38.67408,-0.0049 13.3402,0.0031 26.68041,0.0011 40.02061,0.0073 14.19028,-0.0053 28.38055,9.42e-4 42.57082,0.0035 14.50352,0.0043 29.00707,0.0037 43.51058,-0.01013 11.42179,-0.0089 22.84358,-0.0082 34.26538,-0.0081 12.70699,1.09e-4 25.41397,0.01268 38.12096,0.01397 14.1511,0.0072 28.30219,0.0067 42.45329,-0.0074 6.43585,-0.01136 12.87171,-0.0147 19.30757,-0.01962 0,0 -11.43967,8.311402 -11.43967,8.311402 l 0,0 c -6.41785,-0.0049 -12.83571,-0.0082 -19.25355,-0.01962 -14.14426,-0.01423 -28.28853,-0.01459 -42.4328,-0.0074 -12.7198,0.0013 -25.43961,0.01386 -38.15942,0.01397 -11.41439,1.52e-4 -22.82878,8.18e-4 -34.24317,-0.0081 -14.49423,-0.0139 -28.98847,-0.01441 -43.48271,-0.01013 -14.19347,0.0025 -28.38694,0.0088 -42.58041,0.0035 -13.34691,0.0062 -26.69382,0.0042 -40.04073,0.0073 -12.8869,0.0043 -25.77379,-0.0061 -38.66068,-0.0049 -16.35324,-0.01144 -32.70649,-0.03103 -49.05974,-0.02514 -19.281879,-0.0044 -38.563763,-0.005 -57.845649,-0.0061 -18.77086,0.0046 -37.541721,0.0056 -56.31257558,0.02296 -15.69345742,0.01774 -31.38691642,0.03546 -47.08025942,0.103879 -10.134275,0.03339 -20.290061,0.265441 -30.411067,-0.32499 -4.883853,-0.703648 -9.634098,-1.863369 -11.260309,-7.126486 -0.82108,-5.580165 -0.181518,-11.264941 -0.379945,-16.890191 0.0022,-6.447128 0.0065,-12.894248 0.01525,-19.341368 0.01053,-8.8899 0.01662,-17.7798 0.0059,-26.6697 -0.0081,-7.62711 0.0054,-15.25431 -0.0345,-22.88133 0,0 12.666624,-6.45397 12.666624,-6.45397 z"
       inkscape:connector-curvature="0" />
    <path
       style="opacity:1;fill:#000000;fill-opacity:1;stroke:#000000;stroke-width:1;stroke-linecap:round;stroke-linejoin:round;stroke-miterlimit:4;stroke-dasharray:none;stroke-opacity:1"
       id="path4311"
       d="m -86.484606,-177.53008 c 11.157513,0.0312 22.315077,0.0449 33.472613,0.0679 26.975284,0.0396 53.95059626,0.0574 80.925901,0.0768 33.562206,0.0181 67.12442,0.007 100.686622,-0.0111 26.1106,-0.22888 52.23541,0.41308 78.33688,-0.3959 19.64985,-0.24595 39.03568,-3.08438 58.33546,-6.48311 13.95403,-2.61293 28.08644,-3.8431 42.2542,-4.39722 11.74204,0.10505 23.37689,-0.65726 34.89064,-2.95963 9.9602,-2.04311 20.10915,-2.49239 30.23946,-2.80881 10.7674,-0.2433 21.53848,-0.23743 32.30805,-0.24251 7.55768,0.009 15.11536,0.0146 22.67304,0.0173 5.88405,0.002 11.76811,0.002 17.65217,0.002 5.34731,-0.11506 10.64263,-0.34358 15.61859,1.85316 3.60692,2.60587 5.18119,6.823 7.21187,10.59711 2.68006,4.64081 3.22707,9.86807 3.59539,15.10321 0.52351,9.45057 1.7239,18.84947 2.37362,28.29797 0.59468,10.71759 0.70222,21.45319 0.76924,32.18446 0.0404,7.829437 0.0414,15.658993 0.04,23.488508 0.0376,13.737423 1.94036,9.521973 -13.61523,18.423693 -1.92252,-0.340962 -0.91078,-0.17718 -3.03677,-0.481737 0,0 11.60942,-8.228038 11.60942,-8.228038 l 0,0 c 1.99182,0.183542 1.08129,0.210076 2.73264,0.02387 -25.0149,15.394104 -10.88564,9.64213 -10.34463,5.006539 0.31927,-2.735584 -0.23272,-5.568506 0.0228,-8.309888 0.0161,-7.836104 0.043,-15.672244 0.0203,-23.508367 -0.0558,-10.70529 -0.13252,-21.41588 -0.72692,-32.10772 -0.63318,-9.44408 -1.83871,-18.83239 -2.42455,-28.27043 -0.33652,-5.03261 -0.76558,-10.08481 -3.34619,-14.55177 -1.8674,-3.46834 -3.24731,-7.51024 -6.69112,-9.7628 -4.93276,-1.80454 -10.10835,-1.46086 -15.28743,-1.41789 -5.88091,-6.9e-4 -11.76183,-0.002 -17.64274,-0.01 -7.54603,-0.0116 -15.09204,-0.0327 -22.63808,-0.0419 -10.74961,-0.0148 -21.50123,-0.028 -32.24796,0.25782 -10.1013,0.35945 -20.21079,0.92591 -30.13245,3.00695 -11.55115,2.16533 -23.2247,2.75136 -34.96859,2.75395 -14.11198,0.61376 -28.18441,1.89045 -42.08352,4.50204 -19.30877,3.38009 -38.72728,6.01291 -58.37359,6.26054 -26.0774,0.7203 -52.17251,0.098 -78.25711,0.28763 -33.552013,-0.0185 -67.104041,-0.0292 -100.65606,-0.0111 -27.04578,0.0194 -54.091569,0.0372 -81.137328,0.0768 -11.219883,0.023 -22.439793,0.0367 -33.659652,0.0679 0,0 11.501054,-8.356 11.501054,-8.356 z"
       inkscape:connector-curvature="0" />
    <path
       style="opacity:1;fill:#000000;fill-opacity:1;stroke:#000000;stroke-width:1;stroke-linecap:round;stroke-linejoin:round;stroke-miterlimit:4;stroke-dasharray:none;stroke-opacity:1"
       id="path4313"
       d="m 323.76601,-162.84479 c 1.45827,11.66267 1.8282,23.42176 2.16264,35.15891 0.30055,13.45401 0.32871,26.91185 0.3649,40.368534 0.22513,6.919189 -0.37877,13.88037 0.33891,20.773233 0,0 -12.56371,6.576186 -12.56371,6.576186 l 0,0 c -0.80562,-6.947047 -0.11293,-13.972738 -0.32436,-20.95341 0.004,-13.450688 -0.0155,-26.902883 -0.31593,-40.350863 -0.32659,-11.66667 -0.67627,-23.36353 -2.22523,-34.94534 0,0 12.56278,-6.62725 12.56278,-6.62725 z"
       inkscape:connector-curvature="0" />
    <path
       style="opacity:1;fill:#000000;fill-opacity:1;stroke:#000000;stroke-width:1;stroke-linecap:round;stroke-linejoin:round;stroke-miterlimit:4;stroke-dasharray:none;stroke-opacity:1"
       id="path4315"
       d="m 347.49372,-137.74868 c 4.25199,7.16221 8.53281,14.33354 13.67528,20.89675 4.39682,4.22742 8.71091,8.56947 13.2923,12.59858 0.5586,0.58031 1.11719,1.16062 1.67578,1.74093 0,0 -12.12363,7.403467 -12.12363,7.403467 l 0,0 c -0.53876,-0.551712 -1.07752,-1.103423 -1.61629,-1.655135 -4.59066,-4.137742 -9.02477,-8.466982 -13.38695,-12.841092 -5.13547,-6.61352 -9.40536,-13.82744 -13.76982,-20.96342 0,0 12.25333,-7.18008 12.25333,-7.18008 z"
       inkscape:connector-curvature="0" />
    <path
       style="opacity:1;fill:#000000;fill-opacity:1;stroke:#000000;stroke-width:1;stroke-linecap:round;stroke-linejoin:round;stroke-miterlimit:4;stroke-dasharray:none;stroke-opacity:1"
       id="path4317"
       d="m 353.51539,-160.38723 c 7.24112,0.0274 14.48232,0.018 21.72347,0.0146 6.18731,-0.003 12.37462,-0.005 18.56192,-0.006 5.72035,-6.5e-4 11.4407,-6.1e-4 17.16104,-6.2e-4 5.75337,-0.49628 9.30071,1.6971 11.35144,6.95764 1.36189,5.10368 1.46992,10.35157 0.52546,15.51993 -1.94724,5.96918 -5.77239,10.98065 -9.07097,16.23426 -3.11881,4.36471 -6.06803,8.83974 -9.10003,13.26326 -2.12099,4.01931 -4.75558,7.70376 -7.41512,11.374093 -2.22391,4.393694 -5.92256,7.001033 -9.96573,9.536124 0,0 -13.25934,5.110881 -13.25934,5.110881 l 0,0 c 4.05988,-2.296113 8.08069,-4.635842 10.18498,-9.008767 2.68715,-3.6416 5.44502,-7.246864 7.44289,-11.325491 2.95081,-4.4686 5.9701,-8.89622 9.13917,-13.2181 3.15538,-5.22399 6.99474,-10.04508 9.26642,-15.76426 1.03485,-4.9313 1.06859,-9.88865 -0.16724,-14.81579 -1.80723,-4.92053 -5.33254,-5.89378 -10.41102,-5.52373 -5.71978,0 -11.43957,3e-5 -17.15935,-6.1e-4 -6.18176,-9e-4 -12.36352,-0.003 -18.54527,-0.006 -7.25459,-0.003 -14.50922,-0.0127 -21.76377,0.0146 0,0 11.50105,-8.35601 11.50105,-8.35601 z"
       inkscape:connector-curvature="0" />
    <path
       style="opacity:1;fill:#000000;fill-opacity:1;stroke:#000000;stroke-width:1;stroke-linecap:round;stroke-linejoin:round;stroke-miterlimit:4;stroke-dasharray:none;stroke-opacity:1"
       id="path4319"
       d="m -73.666688,-57.385627 c -0.93318,13.188898 0.956138,26.022776 3.575186,38.902763 3.189668,17.7386459 7.68301,35.170583 13.20045,52.316618 3.880583,13.688778 8.900444,26.993805 12.032042,40.886498 1.860775,10.204726 3.533882,20.436427 5.459077,30.628578 2.176597,9.22648 3.983647,18.53376 6.574485,27.6568 2.352216,7.22339 3.501899,14.77305 6.006393,21.94318 1.717915,5.13803 3.641883,10.19046 5.395793,15.31416 1.569943,4.8256 3.359982,8.59111 8.10352,10.75095 5.8274751,1.76596 12.0224775,1.52186 18.0469268,1.57548 13.9615562,0.0334 27.9231902,-0.007 41.8847522,-0.025 18.737746,-0.02 37.475509,-0.0129 56.213263,-0.0158 17.10866,-0.005 34.21731,-0.013 51.32597,-0.0281 11.99252,-0.01 23.98504,-0.0154 35.97757,-0.0141 11.4988,7.6e-4 22.9976,4.2e-4 34.4964,2.7e-4 9.2837,-0.003 18.5674,-0.0114 27.8511,-0.0201 6.18916,-0.006 12.37833,-0.008 18.5675,-0.008 2.34995,-0.53822 4.85487,-0.70289 7.16616,-1.41309 0.69537,-0.21367 2.63544,-1.2238 2.00662,-0.85805 -13.30167,7.73686 -13.40261,7.91653 -8.89823,4.62173 4.3334,-2.63919 8.24297,-5.69788 11.30119,-9.75889 5.56302,-9.72235 8.8697,-20.40722 11.24996,-31.28734 2.46969,-13.79514 2.58649,-27.85322 2.76854,-41.82276 0.1002,-14.246265 0.0403,-28.493069 0.003,-42.739473 -0.0292,-10.783728 -0.0571,-21.567459 -0.0822,-32.351199 0.3175,-6.117823 -0.0756,-12.056537 -1.25851,-18.0455304 -0.45768,-4.7590663 -2.13247,-9.22457284 -3.18281,-13.857399 -0.87363,-4.3494756 -1.05691,-8.7892576 -1.21198,-13.2097736 0,0 12.6236,-6.484895 12.6236,-6.484895 l 0,0 c 0.13572,4.337599 0.28762,8.694609 1.10061,12.969778 1.01903,4.6544326 2.76594,9.1118173 3.19605,13.889011 1.20526,6.0845552 1.73918,12.09316 1.3347,18.317036 -0.0128,10.796745 -0.0168,21.593504 8.1e-4,32.390247 0.0231,14.25579 0.0907,28.511945 -0.0122,42.767549 -0.17247,14.043579 -0.24259,28.168629 -2.60807,42.054789 -2.31799,11.02165 -5.63527,21.75447 -10.92242,31.75362 -2.77927,4.31492 -6.60093,7.65461 -11.09022,10.16009 -7.66206,5.91861 -15.38003,10.7179 -24.96268,11.24405 -6.1814,-8.8e-4 -12.3628,-0.003 -18.5442,-0.008 -9.26527,-0.009 -18.53054,-0.0175 -27.79582,-0.0201 -11.49901,-1.4e-4 -22.99802,-4.8e-4 -34.49703,1.9e-4 -11.97921,0.001 -23.95841,-0.005 -35.93761,-0.015 -17.08376,-0.0157 -34.16752,-0.0244 -51.251288,-0.0259 -18.751688,0.003 -37.503373,0.0149 -56.255034,0.0487 -14.00319,0.0279 -28.0063496,0.0907 -42.0095368,0.0955 -6.1848762,-0.067 -12.5848592,0.16402 -18.4606462,-2.06651 -4.855316,-2.59527 -7.012056,-6.55345 -8.676355,-11.70409 -1.723889,-5.13086 -3.674923,-10.17073 -5.358911,-15.31773 -2.534336,-7.19533 -3.69429,-14.76904 -6.012627,-22.03576 -2.624786,-9.15937 -4.411382,-18.51324 -6.625883,-27.77588 -1.917946,-10.18273 -3.606861,-20.400386 -5.40491,-30.605414 -3.049975,-13.87649 -8.04351,-27.152878 -11.896116,-40.813384 -5.521796,-17.195975 -10.038778,-34.6730165 -13.261911,-52.455195 -2.692411,-12.921849 -4.700282,-25.799316 -3.910844,-39.050416 0,0 12.666624,-6.453968 12.666624,-6.453968 z"
       inkscape:connector-curvature="0" />
    <path
       style="opacity:1;fill:#000000;fill-opacity:1;stroke:#000000;stroke-width:1;stroke-linecap:round;stroke-linejoin:round;stroke-miterlimit:4;stroke-dasharray:none;stroke-opacity:1"
       id="path4321"
       d="m -32.198892,22.469916 c 8.735656,0.02757 17.471386,0.02579 26.2070771,0.03522 14.5549016,-8.34e-4 29.1097799,0.02197 43.6646629,0.04167 24.339535,0.01881 48.679079,0.03307 73.018622,0.03655 26.04034,0.0052 52.08068,0.0013 78.12101,-0.01667 18.21129,-0.551886 36.37157,0.696306 54.53913,1.711302 11.56388,0.141151 23.01202,1.682547 34.50021,2.817455 4.9301,0.603673 9.59351,2.018974 14.25075,3.664902 0,0 -11.74495,7.943675 -11.74495,7.943675 l 0,0 c -4.57225,-1.58202 -9.1856,-2.865679 -14.01336,-3.423075 -11.44725,-1.17531 -22.86622,-2.613292 -34.38929,-2.821043 -18.11237,-1.042175 -36.21971,-2.233252 -54.37716,-1.730746 -26.02504,-0.01805 -52.05008,-0.02185 -78.075118,-0.01667 -24.373081,0.0035 -48.746163,0.01776 -73.119236,0.03655 -14.593117,0.01968 -29.1862277,0.04247 -43.779362,0.04167 -8.768012,0.0094 -17.536063,0.0077 -26.30404,0.03522 0,0 11.501054,-8.356006 11.501054,-8.356006 z"
       inkscape:connector-curvature="0" />
    <path
       style="opacity:1;fill:#000000;fill-opacity:1;stroke:#000000;stroke-width:1;stroke-linecap:round;stroke-linejoin:round;stroke-miterlimit:4;stroke-dasharray:none;stroke-opacity:1"
       id="path4323"
       d="m -60.493394,99.193559 c 11.968362,-1.405211 24.026226,-1.787758 36.06356,-2.076222 20.5658085,-0.348004 41.13617,-0.280941 61.704164,-0.273492 29.197029,0.02697 58.394069,0.0363 87.59111,0.02409 22.11631,-0.01513 44.23263,-0.02184 66.34895,-0.04088 14.51183,-0.0048 29.02365,-0.02262 43.53548,-0.03369 8.18299,-0.0091 16.36598,-0.02029 24.54898,-0.02605 5.82017,-0.0035 11.64034,-0.0037 17.46051,-0.0039 5.68241,-2.5e-5 11.36482,1.01e-4 17.04723,1.62e-4 3.80601,3.9e-5 7.61203,5.1e-5 11.41805,6.2e-5 0,0 -11.47892,8.339931 -11.47892,8.339931 l 0,0 c -3.80608,10e-6 -7.61215,2e-5 -11.41823,6e-5 -5.68256,6e-5 -11.36511,1.8e-4 -17.04767,1.6e-4 -5.81663,-1.5e-4 -11.63326,-3.2e-4 -17.4499,-0.004 -8.15916,-0.006 -16.31833,-0.0168 -24.47749,-0.0259 -14.48077,-0.0109 -28.96153,-0.0287 -43.4423,-0.0341 -22.0733,-0.0204 -44.14662,-0.0297 -66.21992,-0.0531 -29.206852,-0.0233 -58.413728,-0.0345 -87.620574,-10e-4 -20.6094058,0.0302 -41.221399,0.002 -61.827706,0.40734 -12.054132,0.33744 -24.13977,0.72195 -36.106704,2.31165 0,0 11.37138,-8.510912 11.37138,-8.510912 z"
       inkscape:connector-curvature="0" />
    <text
       xml:space="preserve"
       style="font-style:normal;font-weight:normal;font-size:60px;line-height:125%;font-family:Sans;letter-spacing:0px;word-spacing:0px;fill:#000000;fill-opacity:1;stroke:none;stroke-width:1px;stroke-linecap:butt;stroke-linejoin:miter;stroke-opacity:1"
       x="17.142857"
       y="0.93362969"
       id="text4325"
       sodipodi:linespacing="125%"><tspan
         sodipodi:role="line"
         id="tspan4327"
         x="17.142857"
         y="0.93362969">折线</tspan></text>
    <text
       xml:space="preserve"
       style="font-style:normal;font-weight:normal;font-size:60px;line-height:125%;font-family:Sans;letter-spacing:0px;word-spacing:0px;fill:#000000;fill-opacity:1;stroke:none;stroke-width:1px;stroke-linecap:butt;stroke-linejoin:miter;stroke-opacity:1"
       x="20.000002"
       y="-99.066368"
       id="text4329"
       sodipodi:linespacing="125%"><tspan
         sodipodi:role="line"
         id="tspan4331"
         x="20.000002"
         y="-99.066368">柱状图</tspan></text>
    <text
       xml:space="preserve"
       style="font-style:normal;font-weight:normal;font-size:60px;line-height:125%;font-family:Sans;letter-spacing:0px;word-spacing:0px;fill:#000000;fill-opacity:1;stroke:none;stroke-width:1px;stroke-linecap:butt;stroke-linejoin:miter;stroke-opacity:1"
       x="14.285714"
       y="83.790779"
       id="text4333"
       sodipodi:linespacing="125%"><tspan
         sodipodi:role="line"
         id="tspan4335"
         x="14.285714"
         y="83.790779">面积图</tspan></text>
    <text
       xml:space="preserve"
       style="font-style:normal;font-weight:normal;font-size:60px;line-height:125%;font-family:Sans;letter-spacing:0px;word-spacing:0px;fill:#000000;fill-opacity:1;stroke:none;stroke-width:1px;stroke-linecap:butt;stroke-linejoin:miter;stroke-opacity:1"
       x="908.57141"
       y="-261.92352"
       id="text4337"
       sodipodi:linespacing="125%"><tspan
         sodipodi:role="line"
         id="tspan4339"
         x="908.57141"
         y="-261.92352">（最近一个月）</tspan></text>
    <text
       xml:space="preserve"
       style="font-style:normal;font-weight:normal;font-size:60px;line-height:125%;font-family:Sans;letter-spacing:0px;word-spacing:0px;fill:#000000;fill-opacity:1;stroke:none;stroke-width:1px;stroke-linecap:butt;stroke-linejoin:miter;stroke-opacity:1"
       x="1220"
       y="69.505058"
       id="text4341"
       sodipodi:linespacing="125%"><tspan
         sodipodi:role="line"
         id="tspan4343"
         x="1220"
         y="69.505058">最近6个月</tspan></text>
    <text
       xml:space="preserve"
       style="font-style:normal;font-weight:normal;font-size:60px;line-height:125%;font-family:Sans;letter-spacing:0px;word-spacing:0px;fill:#000000;fill-opacity:1;stroke:none;stroke-width:1px;stroke-linecap:butt;stroke-linejoin:miter;stroke-opacity:1"
       x="1477.1429"
       y="-279.06638"
       id="text4345"
       sodipodi:linespacing="125%"><tspan
         sodipodi:role="line"
         id="tspan4347"
         x="1477.1429"
         y="-279.06638">最近1年</tspan></text>
    <circle
       style="opacity:1;fill:#ffffff;fill-opacity:1;stroke:#000000;stroke-width:1;stroke-linecap:round;stroke-linejoin:round;stroke-miterlimit:4;stroke-dasharray:none;stroke-opacity:1"
       id="path4357"
       cx="-772.85712"
       cy="1030.7908"
       r="187.14285" />
    <path
       style="opacity:1;fill:#000000;fill-opacity:1;stroke:#000000;stroke-width:1;stroke-linecap:round;stroke-linejoin:round;stroke-miterlimit:4;stroke-dasharray:none;stroke-opacity:1"
       id="path4359"
       d="m -782.23631,1029.551 c 6.68777,-13.654 14.76716,-26.5598 22.84461,-39.42006 7.28483,-12.24425 15.21013,-24.00382 23.81675,-35.34831 5.91577,-7.57615 13.97717,-12.84658 20.85663,-19.45272 7.29648,-7.426 12.98913,-16.16751 19.34052,-24.36039 5.33676,-6.65101 10.36536,-13.46676 15.05142,-20.58063 0.61538,-0.75087 1.23076,-1.50175 1.84614,-2.25262 0,0 13.06928,-5.52192 13.06928,-5.52192 l 0,0 c -0.6428,0.69885 -1.2856,1.39769 -1.9284,2.09653 -4.82051,7.06031 -9.58058,14.11767 -15.07477,20.70556 -6.46159,8.13673 -12.0389,16.9825 -19.24605,24.52589 -6.80329,6.70087 -14.81019,11.91725 -20.95934,19.27033 -8.68192,11.30455 -16.72077,22.99557 -23.97458,35.27947 -8.06789,12.76846 -16.13688,25.59927 -22.7212,39.21307 0,0 -12.92101,5.8458 -12.92101,5.8458 z"
       inkscape:connector-curvature="0" />
    <path
       style="opacity:1;fill:#000000;fill-opacity:1;stroke:#000000;stroke-width:1;stroke-linecap:round;stroke-linejoin:round;stroke-miterlimit:4;stroke-dasharray:none;stroke-opacity:1"
       id="path4361"
       d="m -760.77032,1033.7556 c 7.6702,0.026 15.34049,0.023 23.01073,0.019 7.87057,-0.012 15.74111,0 23.61166,0.011 12.98516,0.01 25.97031,0.022 38.95547,0.023 13.8387,0 27.6774,-8e-4 41.51608,-0.014 9.51257,-0.01 19.02513,-0.012 28.53769,-0.021 5.371,0 10.742,-0.01 16.11301,-0.01 0,0 -11.47614,8.3379 -11.47614,8.3379 l 0,0 c -5.3625,0 -10.72501,0 -16.08752,-0.01 -9.49352,-0.01 -18.98704,-0.014 -28.48057,-0.021 -13.8255,-0.014 -27.65102,-0.017 -41.47653,-0.014 -13.00618,8e-4 -26.01234,0.017 -39.01852,0.023 -7.88073,0.013 -15.76145,0.024 -23.64219,0.011 -7.68807,0 -15.37619,-0.01 -23.06422,0.019 0,0 11.50105,-8.356 11.50105,-8.356 z"
       inkscape:connector-curvature="0" />
    <path
       style="opacity:1;fill:#000000;fill-opacity:1;stroke:#000000;stroke-width:1;stroke-linecap:round;stroke-linejoin:round;stroke-miterlimit:4;stroke-dasharray:none;stroke-opacity:1"
       id="path4363"
       d="m -773.67703,1054.5889 c 0.42735,17.2687 -0.59933,34.4245 -2.54611,51.5742 -2.53689,22.5157 -5.34793,44.999 -7.2322,67.5816 -1.60034,14.7202 -3.15237,29.4394 -4.03139,44.2224 -0.18879,5.7197 -0.6154,11.4548 -0.47536,17.1819 -14.42376,6.4645 -12.72136,8.4418 -12.66885,0.129 0,0 12.64909,-6.441 12.64909,-6.441 l 0,0 c 0.0111,8.8095 0.84888,5.2153 -12.70805,12.7678 0.34462,-5.7615 0.10372,-11.5561 0.60126,-17.3129 0.92123,-14.8176 2.47608,-29.574 4.1604,-44.3227 1.90131,-22.6007 4.7401,-45.0998 7.25308,-67.6377 1.93522,-17.0565 3.01463,-34.1236 2.35219,-51.2992 0,0 12.64594,-6.4434 12.64594,-6.4434 z"
       inkscape:connector-curvature="0" />
    <path
       style="opacity:1;fill:#000000;fill-opacity:1;stroke:#000000;stroke-width:1;stroke-linecap:round;stroke-linejoin:round;stroke-miterlimit:4;stroke-dasharray:none;stroke-opacity:1"
       id="path4365"
       d="m -793.51539,1053.5402 c -8.47113,-0.033 -16.94234,-0.024 -25.41351,-0.026 -9.85576,0 -19.71153,-7e-4 -29.56728,-0.01 -13.7826,-0.018 -27.5652,-0.012 -41.3478,-0.017 -11.07014,0.01 -22.14027,0.018 -33.21039,0.031 -6.48341,0.01 -12.96683,0.011 -19.45024,0.013 -5.68294,9e-4 -11.36588,7e-4 -17.04882,6e-4 -5.06752,0.5559 -9.7777,2.431 -14.64388,3.7949 -5.38806,2.1802 -11.04549,3.5012 -16.60479,5.1532 -3.81427,0.9585 -1.89987,0.5284 -5.74297,1.2914 0,0 11.30272,-8.5737 11.30272,-8.5737 l 0,0 c 3.79041,-0.8349 1.90046,-0.3738 5.66949,-1.3849 5.55856,-1.6673 11.19743,-3.051 16.61921,-5.1496 4.88738,-1.4619 9.72952,-3.213 14.87961,-3.4715 5.68237,-1e-4 11.36474,-3e-4 17.04711,6e-4 6.47154,0 12.94309,0 19.41462,0.013 11.04143,0.013 22.08285,0.025 33.12428,0.031 13.79807,0 27.59615,7e-4 41.39421,-0.017 9.86449,-0.01 19.72899,-0.013 29.59349,-0.01 8.49533,0 16.99071,0.01 25.48599,-0.026 0,0 -11.50105,8.356 -11.50105,8.356 z"
       inkscape:connector-curvature="0" />
    <path
       style="opacity:1;fill:#000000;fill-opacity:1;stroke:#000000;stroke-width:1;stroke-linecap:round;stroke-linejoin:round;stroke-miterlimit:4;stroke-dasharray:none;stroke-opacity:1"
       id="path4367"
       d="m -505.09526,633.90009 c -0.0722,10.80855 -0.0622,21.61745 -0.0629,32.42618 0.0112,9.65648 0.021,19.31296 0.0349,28.96944 -0.2191,6.10045 0.64193,6.77864 6.40331,7.18454 11.09487,0.27181 22.19721,0.0865 33.29423,0.021 12.49826,-0.0745 24.9967,-0.11196 37.49514,-0.13339 10.43519,-0.0236 20.87041,-0.0103 31.30562,-0.005 11.9379,0.009 23.87579,0.007 35.81369,-0.003 8.21491,-0.0834 16.41302,0.49128 24.53116,-0.92845 4.49844,-1.19163 9.24232,-2.47473 13.50534,-4.40753 4.78919,-1.98462 7.67495,-3.27471 -8.43522,5.05339 -0.57736,0.29847 1.04837,-0.7807 1.49044,-1.25714 1.52219,-1.64053 2.43044,-3.87235 3.35957,-5.86399 1.79113,-5.40971 3.41418,-10.90748 4.46772,-16.51501 1.18575,-7.88246 1.21201,-15.8789 1.30899,-23.83175 -0.13464,-6.83391 0.99797,-14.45913 -2.704,-20.56638 -2.92642,-2.42772 -7.44559,-1.29996 -10.98618,-1.08955 -7.67588,0.45375 -15.36905,0.46173 -23.05546,0.49846 -16.03513,0.0449 -32.07036,0.0299 -48.10553,0.022 -17.74015,-0.0111 -35.4803,0.004 -53.22044,0.009 -13.39711,-0.43377 -26.71538,0.28305 -40.05774,1.35697 -9.20747,0.82957 -18.43781,1.27107 -27.67852,1.45446 -7.46221,-0.31021 -14.75355,0.29906 -22.10001,1.49619 -2.79628,0.68318 -5.42437,1.55906 -8.002,2.82212 0,0 11.12373,-8.81836 11.12373,-8.81836 l 0,0 c 2.67159,-1.08142 5.37593,-1.9821 8.21882,-2.52086 7.36798,-1.15357 14.72302,-1.47633 22.18396,-1.31728 9.20696,-0.21556 18.4034,-0.67771 27.57935,-1.4833 13.34615,-1.05737 26.67647,-1.61453 40.07158,-1.22819 17.72768,0.007 35.45536,0.0275 53.18304,0.0182 16.06651,-0.009 32.13322,-0.003 48.19948,-0.1029 7.70288,-0.0756 15.41124,-0.12969 23.10177,-0.61917 4.13999,-0.22524 8.77479,-1.04765 11.83311,2.38087 3.80125,6.40901 3.01457,14.09784 3.00806,21.28815 -0.0706,8.01305 -0.0742,16.06394 -1.16051,24.01872 -0.95658,5.72348 -2.68974,11.25137 -4.29894,16.81414 -4.05931,9.65221 -8.79717,12.7343 -20.48951,16.77467 -4.46103,1.63569 -8.99645,3.32161 -13.68209,4.13462 -8.1517,1.20607 -16.38532,0.55931 -24.60025,0.69816 -11.934,-0.0106 -23.868,-0.0129 -35.80201,-0.006 -10.43718,0.004 -20.87436,0.0138 -31.31155,0.0118 -12.48536,0.0114 -24.97075,0.0319 -37.45589,0.11344 -11.16387,0.0735 -22.33921,0.34092 -33.49778,-0.0694 -6.0823,-0.84779 -7.79121,-2.62717 -7.44511,-8.97895 0.0139,-9.66832 0.0237,-19.33665 0.0349,-29.00498 -6.6e-4,-10.78737 0.009,-21.57492 -0.0629,-32.36211 0,0 12.66663,-6.45397 12.66663,-6.45397 z"
       inkscape:connector-curvature="0" />
    <path
       style="opacity:1;fill:#000000;fill-opacity:1;stroke:#000000;stroke-width:1;stroke-linecap:round;stroke-linejoin:round;stroke-miterlimit:4;stroke-dasharray:none;stroke-opacity:1"
       id="path4369"
       d="m -510.80955,742.47152 c -0.0864,12.43612 -0.08,24.87271 -0.0805,37.30907 0.0573,11.74095 -0.87107,23.48117 2.07822,34.94067 1.80799,5.66398 6.10629,6.99839 11.48402,7.62107 8.30368,0.39371 16.6287,0.18248 24.93961,0.14893 16.86458,-0.0683 33.72933,-0.0694 50.59402,-0.0818 14.7003,-0.0143 29.4006,-0.0302 44.1009,-0.0485 7.65058,-0.0113 15.30116,-0.0199 22.95175,-0.024 5.66914,0.2712 18.57082,-5.39854 -3.23422,4.382 -0.58825,0.26385 0.86561,-0.96745 1.19061,-1.52426 0.35247,-0.60386 0.54986,-1.28576 0.82479,-1.92864 1.42946,-5.55206 1.19519,-11.37102 1.20108,-17.05991 -0.0282,-6.23446 -0.0803,-12.46877 -0.10761,-18.70325 -0.022,-5.76049 -0.0243,-11.52103 -0.0261,-17.28155 -0.39864,-5.063 -1.90903,-6.47477 -6.72618,-6.3053 -4.99554,0.40678 -9.99685,0.69203 -15.00573,0.86327 -7.205,0.19948 -14.414,0.16728 -21.62103,0.16488 -13.52721,-0.0175 -27.05444,-0.0194 -40.58165,-0.0248 -12.42265,-0.004 -24.84528,0.006 -37.26791,0.0221 -6.8996,0.0103 -13.7992,0.0156 -20.69881,0.0181 -3.71822,8.2e-4 -1.93865,-0.16249 -5.3444,0.4233 0,0 11.37378,-8.50111 11.37378,-8.50111 l 0,0 c 3.51847,-0.35832 1.70334,-0.26106 5.44699,-0.26026 6.88286,0.002 13.76571,0.008 20.64856,0.0185 12.39945,0.0174 24.79889,0.0288 37.19835,0.0286 13.54861,-10e-4 27.09725,0.008 40.64584,-0.0246 7.21709,-0.023 14.4363,-0.0155 21.65048,-0.2484 5.03133,-0.1989 10.04919,-0.59206 15.07793,-0.81724 4.9046,0.34084 7.53172,3.17858 7.84586,8.20106 10e-4,5.75948 0.003,11.51896 0.0206,17.27842 0.0226,6.23807 0.0659,12.476 0.0989,18.71401 0.006,5.83218 0.21632,11.74491 -0.94847,17.4906 -2.89856,9.28775 -13.98957,13.6939 -23.13458,13.40999 -7.62751,-0.005 -15.25502,-0.0144 -22.88253,-0.0263 -14.66479,-0.0187 -29.3296,-0.0329 -43.99442,-0.0274 -16.89397,0.0155 -33.78803,0.0413 -50.68169,0.15411 -8.37954,0.0632 -16.7918,0.37369 -25.15452,-0.24412 -5.83459,-0.93412 -10.37052,-3.03735 -12.33139,-9.0653 -2.98201,-11.58931 -2.13088,-23.43197 -2.13656,-35.31107 -5.4e-4,-12.409 0.006,-24.81824 -0.0805,-37.227 0,0 12.66662,-6.45397 12.66662,-6.45397 z"
       inkscape:connector-curvature="0" />
    <path
       style="opacity:1;fill:#000000;fill-opacity:1;stroke:#000000;stroke-width:1;stroke-linecap:round;stroke-linejoin:round;stroke-miterlimit:4;stroke-dasharray:none;stroke-opacity:1"
       id="path4371"
       d="m -502.23812,891.04295 c -0.0355,12.86259 -0.2975,25.72609 0.23996,38.57956 1.1913,12.75364 3.28607,25.39203 4.56195,38.13725 0.96619,7.6298 2.67575,10.18424 10.15896,11.43116 13.44646,0.89045 26.95321,0.56029 40.42254,0.51906 20.02035,-0.0784 40.04083,-0.12112 60.06132,-0.14305 16.22207,-0.0213 32.44415,-0.0322 48.66622,-0.0585 7.25205,-0.7633 15.34843,1.63391 22.20213,-1.38803 -18.58972,10.38783 -10.24028,7.66322 -8.47791,2.28665 0.81094,-2.474 0.86491,-5.13195 1.01479,-7.7003 0.73177,-9.36246 -0.36371,-18.51603 -2.01095,-27.70703 -1.95102,-9.07963 -5.14089,-17.807 -9.37082,-26.05901 -2.35964,-4.7899 -4.79557,-9.68293 -9.62507,-12.29591 -4.81617,-1.78659 -10.03984,-1.71589 -15.10669,-1.78639 -7.20164,-0.005 -14.40325,0.0371 -21.60492,0.0464 -14.8262,0.008 -29.65239,-0.005 -44.47859,7.9e-4 -13.2541,-0.005 -26.50819,0.0171 -39.76228,0.0375 -6.70024,0.011 -13.40048,0.0154 -20.10073,0.0173 -5.65888,10e-4 -11.31777,7.4e-4 -16.97665,6.2e-4 0,0 11.47961,-8.34043 11.47961,-8.34043 l 0,0 c 5.65828,-1.2e-4 11.31655,-4.4e-4 16.97483,7.3e-4 6.68399,0.002 13.36797,0.007 20.05194,0.0182 13.22083,0.0211 26.44166,0.0435 39.66251,0.0346 14.85631,-6.8e-4 29.71264,-0.0132 44.56885,-0.0712 7.22701,-0.0337 14.4544,-0.11318 21.68142,-0.0646 5.2466,0.11935 10.66507,0.14755 15.52878,2.3718 4.87506,3.01524 7.58666,7.9251 10.00663,13.01242 4.27919,8.38144 7.48197,17.25512 9.51703,26.45299 1.68825,9.27288 2.91191,18.49545 2.23376,27.954 -0.52917,13.36687 -1.97623,12.69577 -16.40017,20.53463 -7.22195,2.09477 -14.99259,0.38435 -22.39805,0.9201 -16.18468,-0.0252 -32.36939,-0.032 -48.55409,-0.021 -20.02897,0.0254 -40.05793,0.0598 -60.08667,0.16616 -13.57284,0.0642 -27.2121,0.52597 -40.74621,-0.62948 -7.79468,-1.74233 -10.05286,-5.05033 -11.05188,-13.00733 -1.20238,-12.78879 -3.23819,-25.47002 -4.5046,-38.25142 -0.58041,-12.84122 -0.30506,-25.69245 -0.44357,-38.54423 0,0 12.66662,-6.45397 12.66662,-6.45397 z"
       inkscape:connector-curvature="0" />
    <text
       xml:space="preserve"
       style="font-style:normal;font-weight:normal;font-size:60px;line-height:125%;font-family:Sans;letter-spacing:0px;word-spacing:0px;fill:#000000;fill-opacity:1;stroke:none;stroke-width:1px;stroke-linecap:butt;stroke-linejoin:miter;stroke-opacity:1"
       x="-462.85715"
       y="692.21936"
       id="text4373"
       sodipodi:linespacing="125%"><tspan
         sodipodi:role="line"
         id="tspan4375"
         x="-462.85715"
         y="692.21936">分类#1</tspan></text>
    <text
       xml:space="preserve"
       style="font-style:normal;font-weight:normal;font-size:60px;line-height:125%;font-family:Sans;letter-spacing:0px;word-spacing:0px;fill:#000000;fill-opacity:1;stroke:none;stroke-width:1px;stroke-linecap:butt;stroke-linejoin:miter;stroke-opacity:1"
       x="-482.85715"
       y="817.93365"
       id="text4377"
       sodipodi:linespacing="125%"><tspan
         sodipodi:role="line"
         id="tspan4379"
         x="-482.85715"
         y="817.93365">分类#2</tspan></text>
    <text
       xml:space="preserve"
       style="font-style:normal;font-weight:normal;font-size:60px;line-height:125%;font-family:Sans;letter-spacing:0px;word-spacing:0px;fill:#000000;fill-opacity:1;stroke:none;stroke-width:1px;stroke-linecap:butt;stroke-linejoin:miter;stroke-opacity:1"
       x="-474.28574"
       y="972.21936"
       id="text4381"
       sodipodi:linespacing="125%"><tspan
         sodipodi:role="line"
         id="tspan4383"
         x="-474.28574"
         y="972.21936">分类#3</tspan></text>
    <text
       xml:space="preserve"
       style="font-style:normal;font-weight:normal;font-size:60px;line-height:125%;font-family:Sans;letter-spacing:0px;word-spacing:0px;fill:#000000;fill-opacity:1;stroke:none;stroke-width:1px;stroke-linecap:butt;stroke-linejoin:miter;stroke-opacity:1"
       x="-491.42856"
       y="23.790775"
       id="text4389"
       sodipodi:linespacing="125%"><tspan
         sodipodi:role="line"
         id="tspan4391"
         x="-491.42856"
         y="23.790775" /></text>
  </g>
</svg>
